 0
SECTION
 2
ENTITIES
  0
POLYLINE
 8
Group#18
 66
     1
70
    8
 10
0.0
 20
 0.0
 30
0.0
  0
VERTEX
  8
MY3DLAYER
10
174.17341340898895
20
-1.4901058209559892e-07
30
-10.0000000246065
 70
     32
  0
VERTEX
  8
MY3DLAYER
10
174.17341340898895
20
-110.50000044548949
30
-10.000000186448265
 70
     32
  0
VERTEX
  8
MY3DLAYER
10
174.17341340680505
20
-110.50000043205864
30
-20.00000018644826
 70
     32
  0
VERTEX
  8
MY3DLAYER
10
174.17341340680505
20
-1.3557973033151427e-07
30
-20.000000024606496
 70
     32
  0
VERTEX
  8
MY3DLAYER
10
174.17341340898895
20
-1.4901058209559892e-07
30
-10.0000000246065
 70
     32
  0
SEQEND
  0
POLYLINE
 8
Group#18
 66
     1
70
    8
 10
0.0
 20
 0.0
 30
0.0
  0
VERTEX
  8
MY3DLAYER
10
174.17341340898895
20
-110.50000044548949
30
-10.000000186448265
 70
     32
  0
VERTEX
  8
MY3DLAYER
10
-39.99999999999969
20
-110.50000044548949
30
-10.000000126244544
 70
     32
  0
VERTEX
  8
MY3DLAYER
10
-40.00000000218356
20
-110.50000043205864
30
-20.000000126244544
 70
     32
  0
VERTEX
  8
MY3DLAYER
10
174.17341340680505
20
-110.50000043205864
30
-20.00000018644826
 70
     32
  0
VERTEX
  8
MY3DLAYER
10
174.17341340898895
20
-110.50000044548949
30
-10.000000186448265
 70
     32
  0
SEQEND
  0
POLYLINE
 8
Group#18
 66
     1
70
    8
 10
0.0
 20
 0.0
 30
0.0
  0
VERTEX
  8
MY3DLAYER
10
-39.99999999999969
20
-1.4901058209559892e-07
30
-9.999999991264485
 70
     32
  0
VERTEX
  8
MY3DLAYER
10
174.17341340898895
20
-1.4901058209559892e-07
30
-10.0000000246065
 70
     32
  0
VERTEX
  8
MY3DLAYER
10
174.17341340680505
20
-1.3557973033151427e-07
30
-20.000000024606496
 70
     32
  0
VERTEX
  8
MY3DLAYER
10
-40.00000000218356
20
-1.3557973033151427e-07
30
-19.999999991264485
 70
     32
  0
VERTEX
  8
MY3DLAYER
10
-39.99999999999969
20
-1.4901058209559892e-07
30
-9.999999991264485
 70
     32
  0
SEQEND
  0
POLYLINE
 8
Group#18
 66
     1
70
    8
 10
0.0
 20
 0.0
 30
0.0
  0
VERTEX
  8
MY3DLAYER
10
-40.00000000218356
20
-1.3557973033151427e-07
30
-19.999999991264485
 70
     32
  0
VERTEX
  8
MY3DLAYER
10
174.17341340680505
20
-1.3557973033151427e-07
30
-20.000000024606496
 70
     32
  0
VERTEX
  8
MY3DLAYER
10
174.17341340680505
20
-110.50000043205864
30
-20.00000018644826
 70
     32
  0
VERTEX
  8
MY3DLAYER
10
-40.00000000218356
20
-110.50000043205864
30
-20.000000126244544
 70
     32
  0
VERTEX
  8
MY3DLAYER
10
-40.00000000218356
20
-1.3557973033151427e-07
30
-19.999999991264485
 70
     32
  0
SEQEND
  0
POLYLINE
 8
Group#18
 66
     1
70
    8
 10
0.0
 20
 0.0
 30
0.0
  0
VERTEX
  8
MY3DLAYER
10
174.17341340898895
20
-1.4901058209559892e-07
30
-10.0000000246065
 70
     32
  0
VERTEX
  8
MY3DLAYER
10
-39.99999999999969
20
-1.4901058209559892e-07
30
-9.999999991264485
 70
     32
  0
VERTEX
  8
MY3DLAYER
10
-39.99999999999969
20
-110.50000044548949
30
-10.000000126244544
 70
     32
  0
VERTEX
  8
MY3DLAYER
10
174.17341340898895
20
-110.50000044548949
30
-10.000000186448265
 70
     32
  0
VERTEX
  8
MY3DLAYER
10
174.17341340898895
20
-1.4901058209559892e-07
30
-10.0000000246065
 70
     32
  0
SEQEND
  0
POLYLINE
 8
Group#18
 66
     1
70
    8
 10
0.0
 20
 0.0
 30
0.0
  0
VERTEX
  8
MY3DLAYER
10
-39.99999999999969
20
-110.50000044548949
30
-10.000000126244544
 70
     32
  0
VERTEX
  8
MY3DLAYER
10
-39.99999999999969
20
-1.4901058209559892e-07
30
-9.999999991264485
 70
     32
  0
VERTEX
  8
MY3DLAYER
10
-40.00000000218356
20
-1.3557973033151427e-07
30
-19.999999991264485
 70
     32
  0
VERTEX
  8
MY3DLAYER
10
-40.00000000218356
20
-110.50000043205864
30
-20.000000126244544
 70
     32
  0
VERTEX
  8
MY3DLAYER
10
-39.99999999999969
20
-110.50000044548949
30
-10.000000126244544
 70
     32
  0
SEQEND
 0
ENDSEC
 0
EOF
