 0
SECTION
 2
ENTITIES
  0
POLYLINE
 8
Group#11
 66
     1
70
    8
 10
0.0
 20
 0.0
 30
0.0
  0
VERTEX
  8
MY3DLAYER
10
50.68812378825141
20
-110.50000028385733
30
3.9999997579274105
 70
     32
  0
VERTEX
  8
MY3DLAYER
10
2.6315098556765644e-08
20
-110.50000030185124
30
3.999999865019938
 70
     32
  0
VERTEX
  8
MY3DLAYER
10
2.413121499388718e-08
20
-110.5000002884204
30
-6.000000134980064
 70
     32
  0
VERTEX
  8
MY3DLAYER
10
50.688123786067536
20
-110.50000027042648
30
-6.000000242072597
 70
     32
  0
VERTEX
  8
MY3DLAYER
10
50.68812378825141
20
-110.50000028385733
30
3.9999997579274105
 70
     32
  0
SEQEND
  0
POLYLINE
 8
Group#11
 66
     1
70
    8
 10
0.0
 20
 0.0
 30
0.0
  0
VERTEX
  8
MY3DLAYER
10
2.6315098556765644e-08
20
-5.37234070563386e-09
30
3.9999999999999982
 70
     32
  0
VERTEX
  8
MY3DLAYER
10
50.68812382303472
20
-1.0641097133445853e-07
30
3.9999999197691727
 70
     32
  0
VERTEX
  8
MY3DLAYER
10
50.688123820850855
20
-9.298011957037388e-08
30
-6.000000080230832
 70
     32
  0
VERTEX
  8
MY3DLAYER
10
2.413121499388718e-08
20
8.05851105845079e-09
30
-6.000000000000002
 70
     32
  0
VERTEX
  8
MY3DLAYER
10
2.6315098556765644e-08
20
-5.37234070563386e-09
30
3.9999999999999982
 70
     32
  0
SEQEND
  0
POLYLINE
 8
Group#11
 66
     1
70
    8
 10
0.0
 20
 0.0
 30
0.0
  0
VERTEX
  8
MY3DLAYER
10
2.413121499388718e-08
20
8.05851105845079e-09
30
-6.000000000000002
 70
     32
  0
VERTEX
  8
MY3DLAYER
10
50.688123820850855
20
-9.298011957037388e-08
30
-6.000000080230832
 70
     32
  0
VERTEX
  8
MY3DLAYER
10
50.688123786067536
20
-110.50000027042648
30
-6.000000242072597
 70
     32
  0
VERTEX
  8
MY3DLAYER
10
2.413121499388718e-08
20
-110.5000002884204
30
-6.000000134980064
 70
     32
  0
VERTEX
  8
MY3DLAYER
10
2.413121499388718e-08
20
8.05851105845079e-09
30
-6.000000000000002
 70
     32
  0
SEQEND
  0
POLYLINE
 8
Group#11
 66
     1
70
    8
 10
0.0
 20
 0.0
 30
0.0
  0
VERTEX
  8
MY3DLAYER
10
8.850000005240656
20
-18.472243147838164
30
-6.0000000983036665
 70
     32
  0
VERTEX
  8
MY3DLAYER
10
9.071928482289236
20
-18.30195143797687
30
-6.0000000926293975
 70
     32
  0
VERTEX
  8
MY3DLAYER
10
9.202081533241811
20
-18.20208148940093
30
-6.000000098166492
 70
     32
  0
VERTEX
  8
MY3DLAYER
10
9.472243191637407
20
-17.84999996136782
30
-6.000000097540471
 70
     32
  0
VERTEX
  8
MY3DLAYER
10
9.642073909871032
20
-17.439992338032066
30
-6.000000096468274
 70
     32
  0
VERTEX
  8
MY3DLAYER
10
9.700000005153598
20
-16.999999961354355
30
-6.000000095022974
 70
     32
  0
VERTEX
  8
MY3DLAYER
10
9.642073909818997
20
-16.560007584683497
30
-6.000000093303054
 70
     32
  0
VERTEX
  8
MY3DLAYER
10
9.472243191536881
20
-16.149999961367826
30
-6.0000000914257345
 70
     32
  0
VERTEX
  8
MY3DLAYER
10
9.202081533099646
20
-15.79791843336667
30
-6.000000089518941
 70
     32
  0
VERTEX
  8
MY3DLAYER
10
8.85000000506654
20
-15.527756774971074
30
-6.000000087712628
 70
     32
  0
VERTEX
  8
MY3DLAYER
10
8.439992381730784
20
-15.357926056737448
30
-6.000000086129894
 70
     32
  0
VERTEX
  8
MY3DLAYER
10
8.000000005053073
20
-15.299999961454882
30
-6.000000084878584
 70
     32
  0
VERTEX
  8
MY3DLAYER
10
7.560007628382213
20
-15.357926056789484
30
-6.000000084043987
 70
     32
  0
VERTEX
  8
MY3DLAYER
10
7.15000000506654
20
-15.527756775071598
30
-6.000000083682987
 70
     32
  0
VERTEX
  8
MY3DLAYER
10
6.7979184770653855
20
-15.797918433508832
30
-6.000000083820161
 70
     32
  0
VERTEX
  8
MY3DLAYER
10
6.527756818669791
20
-16.149999961541937
30
-6.0000000844461825
 70
     32
  0
VERTEX
  8
MY3DLAYER
10
6.357926100436164
20
-16.560007584877695
30
-6.000000085518378
 70
     32
  0
VERTEX
  8
MY3DLAYER
10
6.300000005153599
20
-16.999999961555407
30
-6.000000086963679
 70
     32
  0
VERTEX
  8
MY3DLAYER
10
6.3579261004882
20
-17.43999233822627
30
-6.000000088683599
 70
     32
  0
VERTEX
  8
MY3DLAYER
10
6.527756818770316
20
-17.84999996154194
30
-6.000000090560919
 70
     32
  0
VERTEX
  8
MY3DLAYER
10
6.79791847720755
20
-18.202081489543094
30
-6.000000092467713
 70
     32
  0
VERTEX
  8
MY3DLAYER
10
7.150000005240656
20
-18.472243147938688
30
-6.000000094274025
 70
     32
  0
VERTEX
  8
MY3DLAYER
10
7.560007628576413
20
-18.642073866172318
30
-6.000000095856759
 70
     32
  0
VERTEX
  8
MY3DLAYER
10
8.000000005254124
20
-18.699999961454882
30
-6.000000097108068
 70
     32
  0
VERTEX
  8
MY3DLAYER
10
8.439992381924984
20
-18.64207386612028
30
-6.0000000979426655
 70
     32
  0
VERTEX
  8
MY3DLAYER
10
8.850000005240656
20
-18.472243147838164
30
-6.0000000983036665
 70
     32
  0
SEQEND
  0
POLYLINE
 8
Group#11
 66
     1
70
    8
 10
0.0
 20
 0.0
 30
0.0
  0
VERTEX
  8
MY3DLAYER
10
43.12811613244225
20
-18.642073871781484
30
-6.000000139321454
 70
     32
  0
VERTEX
  8
MY3DLAYER
10
43.53812375558509
20
-18.472243153082115
30
-6.000000139682466
 70
     32
  0
VERTEX
  8
MY3DLAYER
10
43.89020528331131
20
-18.20208149428658
30
-6.000000139545292
 70
     32
  0
VERTEX
  8
MY3DLAYER
10
44.160366941348606
20
-17.849999965978544
30
-6.00000013891927
 70
     32
  0
VERTEX
  8
MY3DLAYER
10
44.33019765916498
20
-17.439992342469957
30
-6.000000137847074
 70
     32
  0
VERTEX
  8
MY3DLAYER
10
44.388123753999785
20
-16.999999965733295
30
-6.000000136401773
 70
     32
  0
VERTEX
  8
MY3DLAYER
10
44.330197658217415
20
-16.560007589121383
30
-6.000000134681853
 70
     32
  0
VERTEX
  8
MY3DLAYER
10
44.160366939518056
20
-16.149999965978544
30
-6.000000132804534
 70
     32
  0
VERTEX
  8
MY3DLAYER
10
43.89020528072252
20
-15.79791843825232
30
-6.000000130897741
 70
     32
  0
VERTEX
  8
MY3DLAYER
10
43.53812375241448
20
-15.527756780215027
30
-6.000000129091427
 70
     32
  0
VERTEX
  8
MY3DLAYER
10
43.128116128905894
20
-15.35792606239865
30
-6.000000127508682
 70
     32
  0
VERTEX
  8
MY3DLAYER
10
42.68812375216923
20
-15.29999996756385
30
-6.000000126257384
 70
     32
  0
VERTEX
  8
MY3DLAYER
10
42.24813137555732
20
-15.357926063346213
30
-6.000000125422787
 70
     32
  0
VERTEX
  8
MY3DLAYER
10
41.838123752414475
20
-15.527756782045579
30
-6.000000125061774
 70
     32
  0
VERTEX
  8
MY3DLAYER
10
41.486042224688255
20
-15.797918440841114
30
-6.0000001251989605
 70
     32
  0
VERTEX
  8
MY3DLAYER
10
41.21588056665096
20
-16.149999969149153
30
-6.00000012582497
 70
     32
  0
VERTEX
  8
MY3DLAYER
10
41.046049848834585
20
-16.56000759265774
30
-6.0000001268971666
 70
     32
  0
VERTEX
  8
MY3DLAYER
10
40.98812375399978
20
-16.999999969394402
30
-6.000000128342478
 70
     32
  0
VERTEX
  8
MY3DLAYER
10
41.04604984978215
20
-17.439992346006314
30
-6.0000001300623875
 70
     32
  0
VERTEX
  8
MY3DLAYER
10
41.21588056848151
20
-17.849999969149152
30
-6.000000131939718
 70
     32
  0
VERTEX
  8
MY3DLAYER
10
41.486042227277046
20
-18.202081496875373
30
-6.0000001338465
 70
     32
  0
VERTEX
  8
MY3DLAYER
10
41.83812375558509
20
-18.472243154912668
30
-6.0000001356528125
 70
     32
  0
VERTEX
  8
MY3DLAYER
10
42.24813137909367
20
-18.642073872729046
30
-6.000000137235559
 70
     32
  0
VERTEX
  8
MY3DLAYER
10
42.68812375583033
20
-18.699999967563848
30
-6.000000138486857
 70
     32
  0
VERTEX
  8
MY3DLAYER
10
43.12811613244225
20
-18.642073871781484
30
-6.000000139321454
 70
     32
  0
SEQEND
  0
POLYLINE
 8
Group#11
 66
     1
70
    8
 10
0.0
 20
 0.0
 30
0.0
  0
VERTEX
  8
MY3DLAYER
10
42.688123742478055
20
-6.299999972213799
30
-6.000000096099244
 70
     32
  0
VERTEX
  8
MY3DLAYER
10
42.24813136586614
20
-6.357926067996165
30
-6.000000095264647
 70
     32
  0
VERTEX
  8
MY3DLAYER
10
41.838123742723305
20
-6.52775678669553
30
-6.000000094903646
 70
     32
  0
VERTEX
  8
MY3DLAYER
10
41.486042214997084
20
-6.797918445491066
30
-6.0000000950408205
 70
     32
  0
VERTEX
  8
MY3DLAYER
10
41.21588055695978
20
-7.149999973799106
30
-6.000000095666842
 70
     32
  0
VERTEX
  8
MY3DLAYER
10
41.046049839143414
20
-7.560007597307691
30
-6.000000096739038
 70
     32
  0
VERTEX
  8
MY3DLAYER
10
40.9881237443086
20
-7.999999974044354
30
-6.000000098184338
 70
     32
  0
VERTEX
  8
MY3DLAYER
10
41.04604984009097
20
-8.439992350656265
30
-6.000000099904258
 70
     32
  0
VERTEX
  8
MY3DLAYER
10
41.21588055879034
20
-8.849999973799106
30
-6.000000101781578
 70
     32
  0
VERTEX
  8
MY3DLAYER
10
41.486042217585876
20
-9.202081501525326
30
-6.000000103688372
 70
     32
  0
VERTEX
  8
MY3DLAYER
10
41.83812374589391
20
-9.472243159562622
30
-6.000000105494684
 70
     32
  0
VERTEX
  8
MY3DLAYER
10
42.24813136940249
20
-9.642073877378998
30
-6.000000107077419
 70
     32
  0
VERTEX
  8
MY3DLAYER
10
42.68812374613916
20
-9.699999972213801
30
-6.000000108328728
 70
     32
  0
VERTEX
  8
MY3DLAYER
10
43.128116122751074
20
-9.642073876431436
30
-6.0000001091633255
 70
     32
  0
VERTEX
  8
MY3DLAYER
10
43.53812374589391
20
-9.472243157732072
30
-6.000000109524326
 70
     32
  0
VERTEX
  8
MY3DLAYER
10
43.89020527362013
20
-9.202081498936534
30
-6.000000109387152
 70
     32
  0
VERTEX
  8
MY3DLAYER
10
44.16036693165743
20
-8.849999970628495
30
-6.00000010876113
 70
     32
  0
VERTEX
  8
MY3DLAYER
10
44.3301976494738
20
-8.439992347119908
30
-6.000000107688934
 70
     32
  0
VERTEX
  8
MY3DLAYER
10
44.38812374430861
20
-7.999999970383248
30
-6.0000001062436334
 70
     32
  0
VERTEX
  8
MY3DLAYER
10
44.330197648526244
20
-7.560007593771338
30
-6.000000104523713
 70
     32
  0
VERTEX
  8
MY3DLAYER
10
44.16036692982688
20
-7.149999970628496
30
-6.000000102646394
 70
     32
  0
VERTEX
  8
MY3DLAYER
10
43.89020527103134
20
-6.797918442902276
30
-6.000000100739601
 70
     32
  0
VERTEX
  8
MY3DLAYER
10
43.5381237427233
20
-6.527756784864978
30
-6.000000098933287
 70
     32
  0
VERTEX
  8
MY3DLAYER
10
43.12811611921472
20
-6.357926067048603
30
-6.000000097350553
 70
     32
  0
VERTEX
  8
MY3DLAYER
10
42.688123742478055
20
-6.299999972213799
30
-6.000000096099244
 70
     32
  0
SEQEND
  0
POLYLINE
 8
Group#11
 66
     1
70
    8
 10
0.0
 20
 0.0
 30
0.0
  0
VERTEX
  8
MY3DLAYER
10
9.47224318946765
20
-7.149999984313221
30
-6.000000033396767
 70
     32
  0
VERTEX
  8
MY3DLAYER
10
9.202081531030414
20
-6.797918456312065
30
-6.000000031489974
 70
     32
  0
VERTEX
  8
MY3DLAYER
10
8.850000002997309
20
-6.52775679791647
30
-6.000000029683661
 70
     32
  0
VERTEX
  8
MY3DLAYER
10
8.439992379661552
20
-6.357926079682845
30
-6.000000028100927
 70
     32
  0
VERTEX
  8
MY3DLAYER
10
8.000000002983839
20
-6.29999998440028
30
-6.000000026849618
 70
     32
  0
VERTEX
  8
MY3DLAYER
10
7.560007626312981
20
-6.357926079734883
30
-6.000000026015031
 70
     32
  0
VERTEX
  8
MY3DLAYER
10
7.1500000029973085
20
-6.527756798016997
30
-6.000000025654019
 70
     32
  0
VERTEX
  8
MY3DLAYER
10
6.797918474996154
20
-6.797918456454231
30
-6.000000025791194
 70
     32
  0
VERTEX
  8
MY3DLAYER
10
6.527756816600557
20
-7.149999984487337
30
-6.000000026417215
 70
     32
  0
VERTEX
  8
MY3DLAYER
10
6.357926098366932
20
-7.560007607823095
30
-6.000000027489412
 70
     32
  0
VERTEX
  8
MY3DLAYER
10
6.300000003084362
20
-7.999999984500803
30
-6.0000000289347115
 70
     32
  0
VERTEX
  8
MY3DLAYER
10
6.357926098418968
20
-8.439992361171665
30
-6.000000030654632
 70
     32
  0
VERTEX
  8
MY3DLAYER
10
6.527756816701084
20
-8.849999984487335
30
-6.000000032531951
 70
     32
  0
VERTEX
  8
MY3DLAYER
10
6.797918475138317
20
-9.20208151248849
30
-6.000000034438745
 70
     32
  0
VERTEX
  8
MY3DLAYER
10
7.150000003171424
20
-9.472243170884088
30
-6.000000036245058
 70
     32
  0
VERTEX
  8
MY3DLAYER
10
7.560007626507181
20
-9.642073889117713
30
-6.0000000378277925
 70
     32
  0
VERTEX
  8
MY3DLAYER
10
8.000000003184892
20
-9.69999998440028
30
-6.000000039079102
 70
     32
  0
VERTEX
  8
MY3DLAYER
10
8.439992379855752
20
-9.642073889065678
30
-6.000000039913699
 70
     32
  0
VERTEX
  8
MY3DLAYER
10
8.850000003171424
20
-9.472243170783562
30
-6.000000040274699
 70
     32
  0
VERTEX
  8
MY3DLAYER
10
9.20208153117258
20
-9.202081512346327
30
-6.000000040137525
 70
     32
  0
VERTEX
  8
MY3DLAYER
10
9.472243189568175
20
-8.849999984313222
30
-6.000000039511503
 70
     32
  0
VERTEX
  8
MY3DLAYER
10
9.6420739078018
20
-8.439992360977463
30
-6.000000038439308
 70
     32
  0
VERTEX
  8
MY3DLAYER
10
9.700000003084366
20
-7.999999984299752
30
-6.000000036994007
 70
     32
  0
VERTEX
  8
MY3DLAYER
10
9.642073907749763
20
-7.560007607628895
30
-6.000000035274087
 70
     32
  0
VERTEX
  8
MY3DLAYER
10
9.47224318946765
20
-7.149999984313221
30
-6.000000033396767
 70
     32
  0
SEQEND
  0
POLYLINE
 8
Group#11
 66
     1
70
    8
 10
0.0
 20
 0.0
 30
0.0
  0
VERTEX
  8
MY3DLAYER
10
9.335268875178382
20
-79.24791866736723
30
-6.000000180384471
 70
     32
  0
VERTEX
  8
MY3DLAYER
10
8.983187347159623
20
-78.97775700895295
30
-6.000000180497405
 70
     32
  0
VERTEX
  8
MY3DLAYER
10
8.573179723832883
20
-78.80792629069755
30
-6.000000180628916
 70
     32
  0
VERTEX
  8
MY3DLAYER
10
8.133187347158227
20
-78.75000019539165
30
-6.000000180770044
 70
     32
  0
VERTEX
  8
MY3DLAYER
10
7.6931949704843134
20
-78.8079262907029
30
-6.000000180911167
 70
     32
  0
VERTEX
  8
MY3DLAYER
10
7.283187347159626
20
-78.97775700896324
30
-6.000000181042673
 70
     32
  0
VERTEX
  8
MY3DLAYER
10
6.931105819144128
20
-79.24791866738178
30
-6.00000018115559
 70
     32
  0
VERTEX
  8
MY3DLAYER
10
6.660944160729851
20
-79.60000019540057
30
-6.000000181242236
 70
     32
  0
VERTEX
  8
MY3DLAYER
10
6.49111344247445
20
-80.01000781872732
30
-6.000000181296696
 70
     32
  0
VERTEX
  8
MY3DLAYER
10
6.433187347168551
20
-80.45000019540196
30
-6.000000181315269
 70
     32
  0
VERTEX
  8
MY3DLAYER
10
6.491113442479792
20
-80.88999257207588
30
-6.000000181296674
 70
     32
  0
VERTEX
  8
MY3DLAYER
10
6.660944160740138
20
-81.30000019540056
30
-6.000000181242192
 70
     32
  0
VERTEX
  8
MY3DLAYER
10
6.9311058191586845
20
-81.65208172341606
30
-6.000000181155529
 70
     32
  0
VERTEX
  8
MY3DLAYER
10
7.283187347177448
20
-81.92224338183034
30
-6.000000181042594
 70
     32
  0
VERTEX
  8
MY3DLAYER
10
7.693194970504211
20
-82.09207410008571
30
-6.000000180911083
 70
     32
  0
VERTEX
  8
MY3DLAYER
10
8.133187347178845
20
-82.15000019539166
30
-6.000000180769955
 70
     32
  0
VERTEX
  8
MY3DLAYER
10
8.573179723852782
20
-82.0920741000804
30
-6.000000180628832
 70
     32
  0
VERTEX
  8
MY3DLAYER
10
8.983187347177445
20
-81.92224338182002
30
-6.000000180497331
 70
     32
  0
VERTEX
  8
MY3DLAYER
10
9.335268875192956
20
-81.65208172340148
30
-6.000000180384409
 70
     32
  0
VERTEX
  8
MY3DLAYER
10
9.605430533607226
20
-81.30000019538274
30
-6.000000180297768
 70
     32
  0
VERTEX
  8
MY3DLAYER
10
9.775261251862617
20
-80.88999257205599
30
-6.000000180243303
 70
     32
  0
VERTEX
  8
MY3DLAYER
10
9.833187347168533
20
-80.45000019538135
30
-6.0000001802247365
 70
     32
  0
VERTEX
  8
MY3DLAYER
10
9.775261251857298
20
-80.01000781870742
30
-6.000000180243326
 70
     32
  0
VERTEX
  8
MY3DLAYER
10
9.605430533596934
20
-79.60000019538273
30
-6.000000180297813
 70
     32
  0
VERTEX
  8
MY3DLAYER
10
9.335268875178382
20
-79.24791866736723
30
-6.000000180384471
 70
     32
  0
SEQEND
  0
POLYLINE
 8
Group#11
 66
     1
70
    8
 10
0.0
 20
 0.0
 30
0.0
  0
VERTEX
  8
MY3DLAYER
10
8.133187347094012
20
-68.1500001953922
30
-6.000000180770564
 70
     32
  0
VERTEX
  8
MY3DLAYER
10
8.573179723767936
20
-68.09207410008094
30
-6.000000180629441
 70
     32
  0
VERTEX
  8
MY3DLAYER
10
8.983187347092612
20
-67.92224338182058
30
-6.00000018049794
 70
     32
  0
VERTEX
  8
MY3DLAYER
10
9.33526887510811
20
-67.65208172340202
30
-6.000000180385018
 70
     32
  0
VERTEX
  8
MY3DLAYER
10
9.605430533522393
20
-67.30000019538329
30
-6.000000180298372
 70
     32
  0
VERTEX
  8
MY3DLAYER
10
9.775261251777787
20
-66.88999257205653
30
-6.000000180243912
 70
     32
  0
VERTEX
  8
MY3DLAYER
10
9.833187347083692
20
-66.45000019538189
30
-6.000000180225346
 70
     32
  0
VERTEX
  8
MY3DLAYER
10
9.775261251772447
20
-66.01000781870796
30
-6.0000001802439344
 70
     32
  0
VERTEX
  8
MY3DLAYER
10
9.605430533512093
20
-65.60000019538327
30
-6.000000180298416
 70
     32
  0
VERTEX
  8
MY3DLAYER
10
9.335268875093552
20
-65.24791866736776
30
-6.000000180385079
 70
     32
  0
VERTEX
  8
MY3DLAYER
10
8.98318734707479
20
-64.97775700895349
30
-6.000000180498014
 70
     32
  0
VERTEX
  8
MY3DLAYER
10
8.573179723748027
20
-64.8079262906981
30
-6.000000180629526
 70
     32
  0
VERTEX
  8
MY3DLAYER
10
8.133187347073392
20
-64.7500001953922
30
-6.000000180770654
 70
     32
  0
VERTEX
  8
MY3DLAYER
10
7.693194970399456
20
-64.8079262907034
30
-6.000000180911776
 70
     32
  0
VERTEX
  8
MY3DLAYER
10
7.283187347074792
20
-64.97775700896378
30
-6.000000181043276
 70
     32
  0
VERTEX
  8
MY3DLAYER
10
6.931105819059288
20
-65.24791866738234
30
-6.000000181156199
 70
     32
  0
VERTEX
  8
MY3DLAYER
10
6.660944160644999
20
-65.60000019540111
30
-6.000000181242846
 70
     32
  0
VERTEX
  8
MY3DLAYER
10
6.491113442389616
20
-66.01000781872786
30
-6.000000181297305
 70
     32
  0
VERTEX
  8
MY3DLAYER
10
6.433187347083677
20
-66.4500001954025
30
-6.000000181315872
 70
     32
  0
VERTEX
  8
MY3DLAYER
10
6.491113442394951
20
-66.88999257207644
30
-6.000000181297282
 70
     32
  0
VERTEX
  8
MY3DLAYER
10
6.660944160655304
20
-67.30000019540111
30
-6.0000001812428
 70
     32
  0
VERTEX
  8
MY3DLAYER
10
6.93110581907385
20
-67.6520817234166
30
-6.000000181156137
 70
     32
  0
VERTEX
  8
MY3DLAYER
10
7.283187347092603
20
-67.92224338183088
30
-6.0000001810432035
 70
     32
  0
VERTEX
  8
MY3DLAYER
10
7.693194970419365
20
-68.09207410008625
30
-6.000000180911692
 70
     32
  0
VERTEX
  8
MY3DLAYER
10
8.133187347094012
20
-68.1500001953922
30
-6.000000180770564
 70
     32
  0
SEQEND
  0
POLYLINE
 8
Group#11
 66
     1
70
    8
 10
0.0
 20
 0.0
 30
0.0
  0
VERTEX
  8
MY3DLAYER
10
42.24813143122733
20
-68.09207409987697
30
-6.000000168545445
 70
     32
  0
VERTEX
  8
MY3DLAYER
10
42.688123807901974
20
-68.15000019518288
30
-6.000000168404317
 70
     32
  0
VERTEX
  8
MY3DLAYER
10
43.1281161845759
20
-68.09207409987161
30
-6.0000001682631945
 70
     32
  0
VERTEX
  8
MY3DLAYER
10
43.5381238079006
20
-67.9222433816113
30
-6.0000001681316935
 70
     32
  0
VERTEX
  8
MY3DLAYER
10
43.89020533591609
20
-67.65208172319274
30
-6.000000168018771
 70
     32
  0
VERTEX
  8
MY3DLAYER
10
44.16036699433036
20
-67.30000019517396
30
-6.000000167932124
 70
     32
  0
VERTEX
  8
MY3DLAYER
10
44.330197712585765
20
-66.88999257184723
30
-6.0000001678776655
 70
     32
  0
VERTEX
  8
MY3DLAYER
10
44.388123807891674
20
-66.45000019517258
30
-6.000000167859099
 70
     32
  0
VERTEX
  8
MY3DLAYER
10
44.330197712580436
20
-66.01000781849865
30
-6.000000167877688
 70
     32
  0
VERTEX
  8
MY3DLAYER
10
44.16036699432009
20
-65.60000019517396
30
-6.0000001679321695
 70
     32
  0
VERTEX
  8
MY3DLAYER
10
43.89020533590154
20
-65.24791866715849
30
-6.000000168018833
 70
     32
  0
VERTEX
  8
MY3DLAYER
10
43.538123807882776
20
-64.97775700874419
30
-6.000000168131767
 70
     32
  0
VERTEX
  8
MY3DLAYER
10
43.12811618455602
20
-64.80792629048877
30
-6.000000168263279
 70
     32
  0
VERTEX
  8
MY3DLAYER
10
42.688123807881404
20
-64.75000019518286
30
-6.000000168404407
 70
     32
  0
VERTEX
  8
MY3DLAYER
10
42.24813143120745
20
-64.80792629049412
30
-6.0000001685455295
 70
     32
  0
VERTEX
  8
MY3DLAYER
10
41.83812380788278
20
-64.97775700875445
30
-6.00000016867703
 70
     32
  0
VERTEX
  8
MY3DLAYER
10
41.48604227986728
20
-65.24791866717301
30
-6.000000168789953
 70
     32
  0
VERTEX
  8
MY3DLAYER
10
41.215880621452996
20
-65.6000001951918
30
-6.000000168876599
 70
     32
  0
VERTEX
  8
MY3DLAYER
10
41.046049903197606
20
-66.01000781851853
30
-6.0000001689310585
 70
     32
  0
VERTEX
  8
MY3DLAYER
10
40.98812380789167
20
-66.45000019519317
30
-6.000000168949625
 70
     32
  0
VERTEX
  8
MY3DLAYER
10
41.04604990320293
20
-66.8899925718671
30
-6.000000168931035
 70
     32
  0
VERTEX
  8
MY3DLAYER
10
41.21588062146327
20
-67.30000019519179
30
-6.000000168876554
 70
     32
  0
VERTEX
  8
MY3DLAYER
10
41.48604227988182
20
-67.65208172320727
30
-6.0000001687898905
 70
     32
  0
VERTEX
  8
MY3DLAYER
10
41.83812380790059
20
-67.92224338162156
30
-6.000000168676957
 70
     32
  0
VERTEX
  8
MY3DLAYER
10
42.24813143122733
20
-68.09207409987697
30
-6.000000168545445
 70
     32
  0
SEQEND
  0
POLYLINE
 8
Group#11
 66
     1
70
    8
 10
0.0
 20
 0.0
 30
0.0
  0
VERTEX
  8
MY3DLAYER
10
42.24813143131216
20
-82.09207409987643
30
-6.000000168544836
 70
     32
  0
VERTEX
  8
MY3DLAYER
10
42.688123807986806
20
-82.15000019518234
30
-6.000000168403708
 70
     32
  0
VERTEX
  8
MY3DLAYER
10
43.12811618466074
20
-82.09207409987108
30
-6.000000168262585
 70
     32
  0
VERTEX
  8
MY3DLAYER
10
43.538123807985414
20
-81.92224338161074
30
-6.000000168131079
 70
     32
  0
VERTEX
  8
MY3DLAYER
10
43.89020533600092
20
-81.6520817231922
30
-6.000000168018162
 70
     32
  0
VERTEX
  8
MY3DLAYER
10
44.160366994415206
20
-81.30000019517342
30
-6.000000167931516
 70
     32
  0
VERTEX
  8
MY3DLAYER
10
44.33019771267058
20
-80.88999257184666
30
-6.000000167877056
 70
     32
  0
VERTEX
  8
MY3DLAYER
10
44.388123807976505
20
-80.45000019517204
30
-6.0000001678584844
 70
     32
  0
VERTEX
  8
MY3DLAYER
10
44.33019771266526
20
-80.01000781849808
30
-6.0000001678770785
 70
     32
  0
VERTEX
  8
MY3DLAYER
10
44.160366994404896
20
-79.60000019517342
30
-6.00000016793156
 70
     32
  0
VERTEX
  8
MY3DLAYER
10
43.890205335986344
20
-79.24791866715792
30
-6.000000168018224
 70
     32
  0
VERTEX
  8
MY3DLAYER
10
43.53812380796759
20
-78.97775700874365
30
-6.000000168131158
 70
     32
  0
VERTEX
  8
MY3DLAYER
10
43.12811618464083
20
-78.80792629048824
30
-6.00000016826267
 70
     32
  0
VERTEX
  8
MY3DLAYER
10
42.6881238079662
20
-78.75000019518232
30
-6.000000168403792
 70
     32
  0
VERTEX
  8
MY3DLAYER
10
42.248131431292265
20
-78.80792629049358
30
-6.000000168544915
 70
     32
  0
VERTEX
  8
MY3DLAYER
10
41.838123807967584
20
-78.97775700875393
30
-6.000000168676421
 70
     32
  0
VERTEX
  8
MY3DLAYER
10
41.48604227995207
20
-79.24791866717247
30
-6.000000168789343
 70
     32
  0
VERTEX
  8
MY3DLAYER
10
41.2158806215378
20
-79.60000019519124
30
-6.000000168875984
 70
     32
  0
VERTEX
  8
MY3DLAYER
10
41.04604990328242
20
-80.01000781851799
30
-6.000000168930449
 70
     32
  0
VERTEX
  8
MY3DLAYER
10
40.9881238079765
20
-80.45000019519263
30
-6.000000168949016
 70
     32
  0
VERTEX
  8
MY3DLAYER
10
41.046049903287745
20
-80.88999257186657
30
-6.000000168930427
 70
     32
  0
VERTEX
  8
MY3DLAYER
10
41.21588062154811
20
-81.30000019519125
30
-6.000000168875939
 70
     32
  0
VERTEX
  8
MY3DLAYER
10
41.486042279966654
20
-81.65208172320675
30
-6.000000168789281
 70
     32
  0
VERTEX
  8
MY3DLAYER
10
41.83812380798541
20
-81.92224338162103
30
-6.000000168676348
 70
     32
  0
VERTEX
  8
MY3DLAYER
10
42.24813143131216
20
-82.09207409987643
30
-6.000000168544836
 70
     32
  0
SEQEND
  0
POLYLINE
 8
Group#11
 66
     1
70
    8
 10
0.0
 20
 0.0
 30
0.0
  0
VERTEX
  8
MY3DLAYER
10
2.6315098556765644e-08
20
-110.50000030185124
30
3.999999865019938
 70
     32
  0
VERTEX
  8
MY3DLAYER
10
2.6315098556765644e-08
20
-5.37234070563386e-09
30
3.9999999999999982
 70
     32
  0
VERTEX
  8
MY3DLAYER
10
2.413121499388718e-08
20
8.05851105845079e-09
30
-6.000000000000002
 70
     32
  0
VERTEX
  8
MY3DLAYER
10
2.413121499388718e-08
20
-110.5000002884204
30
-6.000000134980064
 70
     32
  0
VERTEX
  8
MY3DLAYER
10
2.6315098556765644e-08
20
-110.50000030185124
30
3.999999865019938
 70
     32
  0
SEQEND
  0
LINE
 8
Group#11
10
43.53812377928889
20
-18.472243189051174
30
3.9999998046098053
11
43.538123776118276
21
-18.642073907750543
31
3.9999998152008436
  0
POLYLINE
 8
Group#11
 66
     1
70
    8
 10
0.0
 20
 0.0
 30
0.0
  0
VERTEX
  8
MY3DLAYER
10
8.850000027407411
20
-18.472243181940346
30
3.9999999016963335
 70
     32
  0
VERTEX
  8
MY3DLAYER
10
9.071928504455991
20
-18.301951472079054
30
3.999999907370602
 70
     32
  0
VERTEX
  8
MY3DLAYER
10
9.071928482289236
20
-18.30195143797687
30
-6.0000000926293975
 70
     32
  0
VERTEX
  8
MY3DLAYER
10
8.850000005240656
20
-18.472243147838164
30
-6.0000000983036665
 70
     32
  0
VERTEX
  8
MY3DLAYER
10
8.850000027407411
20
-18.472243181940346
30
3.9999999016963335
 70
     32
  0
SEQEND
  0
POLYLINE
 8
Group#11
 66
     1
70
    8
 10
0.0
 20
 0.0
 30
0.0
  0
VERTEX
  8
MY3DLAYER
10
9.071928504455991
20
-18.301951472079054
30
3.999999907370602
 70
     32
  0
VERTEX
  8
MY3DLAYER
10
9.202081555408567
20
-18.202081523503114
30
3.9999999018335077
 70
     32
  0
VERTEX
  8
MY3DLAYER
10
9.202081533241811
20
-18.20208148940093
30
-6.000000098166492
 70
     32
  0
VERTEX
  8
MY3DLAYER
10
9.071928482289236
20
-18.30195143797687
30
-6.0000000926293975
 70
     32
  0
VERTEX
  8
MY3DLAYER
10
9.071928504455991
20
-18.301951472079054
30
3.999999907370602
 70
     32
  0
SEQEND
  0
POLYLINE
 8
Group#11
 66
     1
70
    8
 10
0.0
 20
 0.0
 30
0.0
  0
VERTEX
  8
MY3DLAYER
10
9.202081555408567
20
-18.202081523503114
30
3.9999999018335077
 70
     32
  0
VERTEX
  8
MY3DLAYER
10
9.472243213804163
20
-17.849999995470007
30
3.999999902459529
 70
     32
  0
VERTEX
  8
MY3DLAYER
10
9.472243191637407
20
-17.84999996136782
30
-6.000000097540471
 70
     32
  0
VERTEX
  8
MY3DLAYER
10
9.202081533241811
20
-18.20208148940093
30
-6.000000098166492
 70
     32
  0
VERTEX
  8
MY3DLAYER
10
9.202081555408567
20
-18.202081523503114
30
3.9999999018335077
 70
     32
  0
SEQEND
  0
POLYLINE
 8
Group#11
 66
     1
70
    8
 10
0.0
 20
 0.0
 30
0.0
  0
VERTEX
  8
MY3DLAYER
10
9.472243213804163
20
-17.849999995470007
30
3.999999902459529
 70
     32
  0
VERTEX
  8
MY3DLAYER
10
9.642073932037787
20
-17.439992372134252
30
3.9999999035317253
 70
     32
  0
VERTEX
  8
MY3DLAYER
10
9.642073909871032
20
-17.439992338032066
30
-6.000000096468274
 70
     32
  0
VERTEX
  8
MY3DLAYER
10
9.472243191637407
20
-17.84999996136782
30
-6.000000097540471
 70
     32
  0
VERTEX
  8
MY3DLAYER
10
9.472243213804163
20
-17.849999995470007
30
3.999999902459529
 70
     32
  0
SEQEND
  0
POLYLINE
 8
Group#11
 66
     1
70
    8
 10
0.0
 20
 0.0
 30
0.0
  0
VERTEX
  8
MY3DLAYER
10
9.642073932037787
20
-17.439992372134252
30
3.9999999035317253
 70
     32
  0
VERTEX
  8
MY3DLAYER
10
9.700000027320353
20
-16.99999999545654
30
3.999999904977026
 70
     32
  0
VERTEX
  8
MY3DLAYER
10
9.700000005153598
20
-16.999999961354355
30
-6.000000095022974
 70
     32
  0
VERTEX
  8
MY3DLAYER
10
9.642073909871032
20
-17.439992338032066
30
-6.000000096468274
 70
     32
  0
VERTEX
  8
MY3DLAYER
10
9.642073932037787
20
-17.439992372134252
30
3.9999999035317253
 70
     32
  0
SEQEND
  0
POLYLINE
 8
Group#11
 66
     1
70
    8
 10
0.0
 20
 0.0
 30
0.0
  0
VERTEX
  8
MY3DLAYER
10
9.700000027320353
20
-16.99999999545654
30
3.999999904977026
 70
     32
  0
VERTEX
  8
MY3DLAYER
10
9.642073931985752
20
-16.560007618785683
30
3.999999906696946
 70
     32
  0
VERTEX
  8
MY3DLAYER
10
9.642073909818997
20
-16.560007584683497
30
-6.000000093303054
 70
     32
  0
VERTEX
  8
MY3DLAYER
10
9.700000005153598
20
-16.999999961354355
30
-6.000000095022974
 70
     32
  0
VERTEX
  8
MY3DLAYER
10
9.700000027320353
20
-16.99999999545654
30
3.999999904977026
 70
     32
  0
SEQEND
  0
POLYLINE
 8
Group#11
 66
     1
70
    8
 10
0.0
 20
 0.0
 30
0.0
  0
VERTEX
  8
MY3DLAYER
10
9.642073931985752
20
-16.560007618785683
30
3.999999906696946
 70
     32
  0
VERTEX
  8
MY3DLAYER
10
9.472243213703637
20
-16.14999999547001
30
3.9999999085742655
 70
     32
  0
VERTEX
  8
MY3DLAYER
10
9.472243191536881
20
-16.149999961367826
30
-6.0000000914257345
 70
     32
  0
VERTEX
  8
MY3DLAYER
10
9.642073909818997
20
-16.560007584683497
30
-6.000000093303054
 70
     32
  0
VERTEX
  8
MY3DLAYER
10
9.642073931985752
20
-16.560007618785683
30
3.999999906696946
 70
     32
  0
SEQEND
  0
POLYLINE
 8
Group#11
 66
     1
70
    8
 10
0.0
 20
 0.0
 30
0.0
  0
VERTEX
  8
MY3DLAYER
10
9.472243213703637
20
-16.14999999547001
30
3.9999999085742655
 70
     32
  0
VERTEX
  8
MY3DLAYER
10
9.202081555266401
20
-15.797918467468854
30
3.999999910481059
 70
     32
  0
VERTEX
  8
MY3DLAYER
10
9.202081533099646
20
-15.79791843336667
30
-6.000000089518941
 70
     32
  0
VERTEX
  8
MY3DLAYER
10
9.472243191536881
20
-16.149999961367826
30
-6.0000000914257345
 70
     32
  0
VERTEX
  8
MY3DLAYER
10
9.472243213703637
20
-16.14999999547001
30
3.9999999085742655
 70
     32
  0
SEQEND
  0
POLYLINE
 8
Group#11
 66
     1
70
    8
 10
0.0
 20
 0.0
 30
0.0
  0
VERTEX
  8
MY3DLAYER
10
9.202081555266401
20
-15.797918467468854
30
3.999999910481059
 70
     32
  0
VERTEX
  8
MY3DLAYER
10
8.850000027233296
20
-15.527756809073258
30
3.9999999122873717
 70
     32
  0
VERTEX
  8
MY3DLAYER
10
8.85000000506654
20
-15.527756774971074
30
-6.000000087712628
 70
     32
  0
VERTEX
  8
MY3DLAYER
10
9.202081533099646
20
-15.79791843336667
30
-6.000000089518941
 70
     32
  0
VERTEX
  8
MY3DLAYER
10
9.202081555266401
20
-15.797918467468854
30
3.999999910481059
 70
     32
  0
SEQEND
  0
POLYLINE
 8
Group#11
 66
     1
70
    8
 10
0.0
 20
 0.0
 30
0.0
  0
VERTEX
  8
MY3DLAYER
10
8.850000027233296
20
-15.527756809073258
30
3.9999999122873717
 70
     32
  0
VERTEX
  8
MY3DLAYER
10
8.43999240389754
20
-15.357926090839632
30
3.999999913870106
 70
     32
  0
VERTEX
  8
MY3DLAYER
10
8.439992381730784
20
-15.357926056737448
30
-6.000000086129894
 70
     32
  0
VERTEX
  8
MY3DLAYER
10
8.85000000506654
20
-15.527756774971074
30
-6.000000087712628
 70
     32
  0
VERTEX
  8
MY3DLAYER
10
8.850000027233296
20
-15.527756809073258
30
3.9999999122873717
 70
     32
  0
SEQEND
  0
POLYLINE
 8
Group#11
 66
     1
70
    8
 10
0.0
 20
 0.0
 30
0.0
  0
VERTEX
  8
MY3DLAYER
10
8.43999240389754
20
-15.357926090839632
30
3.999999913870106
 70
     32
  0
VERTEX
  8
MY3DLAYER
10
8.000000027219828
20
-15.299999995557068
30
3.9999999151214154
 70
     32
  0
VERTEX
  8
MY3DLAYER
10
8.000000005053073
20
-15.299999961454882
30
-6.000000084878584
 70
     32
  0
VERTEX
  8
MY3DLAYER
10
8.439992381730784
20
-15.357926056737448
30
-6.000000086129894
 70
     32
  0
VERTEX
  8
MY3DLAYER
10
8.43999240389754
20
-15.357926090839632
30
3.999999913870106
 70
     32
  0
SEQEND
  0
POLYLINE
 8
Group#11
 66
     1
70
    8
 10
0.0
 20
 0.0
 30
0.0
  0
VERTEX
  8
MY3DLAYER
10
8.000000027219828
20
-15.299999995557068
30
3.9999999151214154
 70
     32
  0
VERTEX
  8
MY3DLAYER
10
7.560007650548968
20
-15.357926090891668
30
3.9999999159560127
 70
     32
  0
VERTEX
  8
MY3DLAYER
10
7.560007628382213
20
-15.357926056789484
30
-6.000000084043987
 70
     32
  0
VERTEX
  8
MY3DLAYER
10
8.000000005053073
20
-15.299999961454882
30
-6.000000084878584
 70
     32
  0
VERTEX
  8
MY3DLAYER
10
8.000000027219828
20
-15.299999995557068
30
3.9999999151214154
 70
     32
  0
SEQEND
  0
POLYLINE
 8
Group#11
 66
     1
70
    8
 10
0.0
 20
 0.0
 30
0.0
  0
VERTEX
  8
MY3DLAYER
10
7.560007650548968
20
-15.357926090891668
30
3.9999999159560127
 70
     32
  0
VERTEX
  8
MY3DLAYER
10
7.150000027233296
20
-15.527756809173782
30
3.9999999163170137
 70
     32
  0
VERTEX
  8
MY3DLAYER
10
7.15000000506654
20
-15.527756775071598
30
-6.000000083682987
 70
     32
  0
VERTEX
  8
MY3DLAYER
10
7.560007628382213
20
-15.357926056789484
30
-6.000000084043987
 70
     32
  0
VERTEX
  8
MY3DLAYER
10
7.560007650548968
20
-15.357926090891668
30
3.9999999159560127
 70
     32
  0
SEQEND
  0
POLYLINE
 8
Group#11
 66
     1
70
    8
 10
0.0
 20
 0.0
 30
0.0
  0
VERTEX
  8
MY3DLAYER
10
7.150000027233296
20
-15.527756809173782
30
3.9999999163170137
 70
     32
  0
VERTEX
  8
MY3DLAYER
10
6.797918499232141
20
-15.797918467611018
30
3.999999916179839
 70
     32
  0
VERTEX
  8
MY3DLAYER
10
6.7979184770653855
20
-15.797918433508832
30
-6.000000083820161
 70
     32
  0
VERTEX
  8
MY3DLAYER
10
7.15000000506654
20
-15.527756775071598
30
-6.000000083682987
 70
     32
  0
VERTEX
  8
MY3DLAYER
10
7.150000027233296
20
-15.527756809173782
30
3.9999999163170137
 70
     32
  0
SEQEND
  0
POLYLINE
 8
Group#11
 66
     1
70
    8
 10
0.0
 20
 0.0
 30
0.0
  0
VERTEX
  8
MY3DLAYER
10
6.797918499232141
20
-15.797918467611018
30
3.999999916179839
 70
     32
  0
VERTEX
  8
MY3DLAYER
10
6.527756840836546
20
-16.149999995644123
30
3.999999915553818
 70
     32
  0
VERTEX
  8
MY3DLAYER
10
6.527756818669791
20
-16.149999961541937
30
-6.0000000844461825
 70
     32
  0
VERTEX
  8
MY3DLAYER
10
6.7979184770653855
20
-15.797918433508832
30
-6.000000083820161
 70
     32
  0
VERTEX
  8
MY3DLAYER
10
6.797918499232141
20
-15.797918467611018
30
3.999999916179839
 70
     32
  0
SEQEND
  0
POLYLINE
 8
Group#11
 66
     1
70
    8
 10
0.0
 20
 0.0
 30
0.0
  0
VERTEX
  8
MY3DLAYER
10
6.527756840836546
20
-16.149999995644123
30
3.999999915553818
 70
     32
  0
VERTEX
  8
MY3DLAYER
10
6.35792612260292
20
-16.56000761897988
30
3.9999999144816214
 70
     32
  0
VERTEX
  8
MY3DLAYER
10
6.357926100436164
20
-16.560007584877695
30
-6.000000085518378
 70
     32
  0
VERTEX
  8
MY3DLAYER
10
6.527756818669791
20
-16.149999961541937
30
-6.0000000844461825
 70
     32
  0
VERTEX
  8
MY3DLAYER
10
6.527756840836546
20
-16.149999995644123
30
3.999999915553818
 70
     32
  0
SEQEND
  0
POLYLINE
 8
Group#11
 66
     1
70
    8
 10
0.0
 20
 0.0
 30
0.0
  0
VERTEX
  8
MY3DLAYER
10
6.35792612260292
20
-16.56000761897988
30
3.9999999144816214
 70
     32
  0
VERTEX
  8
MY3DLAYER
10
6.300000027320354
20
-16.999999995657593
30
3.999999913036321
 70
     32
  0
VERTEX
  8
MY3DLAYER
10
6.300000005153599
20
-16.999999961555407
30
-6.000000086963679
 70
     32
  0
VERTEX
  8
MY3DLAYER
10
6.357926100436164
20
-16.560007584877695
30
-6.000000085518378
 70
     32
  0
VERTEX
  8
MY3DLAYER
10
6.35792612260292
20
-16.56000761897988
30
3.9999999144816214
 70
     32
  0
SEQEND
  0
POLYLINE
 8
Group#11
 66
     1
70
    8
 10
0.0
 20
 0.0
 30
0.0
  0
VERTEX
  8
MY3DLAYER
10
6.300000027320354
20
-16.999999995657593
30
3.999999913036321
 70
     32
  0
VERTEX
  8
MY3DLAYER
10
6.3579261226549555
20
-17.43999237232845
30
3.999999911316401
 70
     32
  0
VERTEX
  8
MY3DLAYER
10
6.3579261004882
20
-17.43999233822627
30
-6.000000088683599
 70
     32
  0
VERTEX
  8
MY3DLAYER
10
6.300000005153599
20
-16.999999961555407
30
-6.000000086963679
 70
     32
  0
VERTEX
  8
MY3DLAYER
10
6.300000027320354
20
-16.999999995657593
30
3.999999913036321
 70
     32
  0
SEQEND
  0
POLYLINE
 8
Group#11
 66
     1
70
    8
 10
0.0
 20
 0.0
 30
0.0
  0
VERTEX
  8
MY3DLAYER
10
6.3579261226549555
20
-17.43999237232845
30
3.999999911316401
 70
     32
  0
VERTEX
  8
MY3DLAYER
10
6.527756840937071
20
-17.849999995644122
30
3.9999999094390812
 70
     32
  0
VERTEX
  8
MY3DLAYER
10
6.527756818770316
20
-17.84999996154194
30
-6.000000090560919
 70
     32
  0
VERTEX
  8
MY3DLAYER
10
6.3579261004882
20
-17.43999233822627
30
-6.000000088683599
 70
     32
  0
VERTEX
  8
MY3DLAYER
10
6.3579261226549555
20
-17.43999237232845
30
3.999999911316401
 70
     32
  0
SEQEND
  0
POLYLINE
 8
Group#11
 66
     1
70
    8
 10
0.0
 20
 0.0
 30
0.0
  0
VERTEX
  8
MY3DLAYER
10
6.527756840937071
20
-17.849999995644122
30
3.9999999094390812
 70
     32
  0
VERTEX
  8
MY3DLAYER
10
6.797918499374306
20
-18.20208152364528
30
3.999999907532288
 70
     32
  0
VERTEX
  8
MY3DLAYER
10
6.79791847720755
20
-18.202081489543094
30
-6.000000092467713
 70
     32
  0
VERTEX
  8
MY3DLAYER
10
6.527756818770316
20
-17.84999996154194
30
-6.000000090560919
 70
     32
  0
VERTEX
  8
MY3DLAYER
10
6.527756840937071
20
-17.849999995644122
30
3.9999999094390812
 70
     32
  0
SEQEND
  0
POLYLINE
 8
Group#11
 66
     1
70
    8
 10
0.0
 20
 0.0
 30
0.0
  0
VERTEX
  8
MY3DLAYER
10
6.797918499374306
20
-18.20208152364528
30
3.999999907532288
 70
     32
  0
VERTEX
  8
MY3DLAYER
10
7.150000027407412
20
-18.472243182040874
30
3.999999905725975
 70
     32
  0
VERTEX
  8
MY3DLAYER
10
7.150000005240656
20
-18.472243147938688
30
-6.000000094274025
 70
     32
  0
VERTEX
  8
MY3DLAYER
10
6.79791847720755
20
-18.202081489543094
30
-6.000000092467713
 70
     32
  0
VERTEX
  8
MY3DLAYER
10
6.797918499374306
20
-18.20208152364528
30
3.999999907532288
 70
     32
  0
SEQEND
  0
POLYLINE
 8
Group#11
 66
     1
70
    8
 10
0.0
 20
 0.0
 30
0.0
  0
VERTEX
  8
MY3DLAYER
10
7.150000027407412
20
-18.472243182040874
30
3.999999905725975
 70
     32
  0
VERTEX
  8
MY3DLAYER
10
7.560007650743168
20
-18.6420739002745
30
3.9999999041432406
 70
     32
  0
VERTEX
  8
MY3DLAYER
10
7.560007628576413
20
-18.642073866172318
30
-6.000000095856759
 70
     32
  0
VERTEX
  8
MY3DLAYER
10
7.150000005240656
20
-18.472243147938688
30
-6.000000094274025
 70
     32
  0
VERTEX
  8
MY3DLAYER
10
7.150000027407412
20
-18.472243182040874
30
3.999999905725975
 70
     32
  0
SEQEND
  0
POLYLINE
 8
Group#11
 66
     1
70
    8
 10
0.0
 20
 0.0
 30
0.0
  0
VERTEX
  8
MY3DLAYER
10
7.560007650743168
20
-18.6420739002745
30
3.9999999041432406
 70
     32
  0
VERTEX
  8
MY3DLAYER
10
8.00000002742088
20
-18.699999995557068
30
3.9999999028919313
 70
     32
  0
VERTEX
  8
MY3DLAYER
10
8.000000005254124
20
-18.699999961454882
30
-6.000000097108068
 70
     32
  0
VERTEX
  8
MY3DLAYER
10
7.560007628576413
20
-18.642073866172318
30
-6.000000095856759
 70
     32
  0
VERTEX
  8
MY3DLAYER
10
7.560007650743168
20
-18.6420739002745
30
3.9999999041432406
 70
     32
  0
SEQEND
  0
POLYLINE
 8
Group#11
 66
     1
70
    8
 10
0.0
 20
 0.0
 30
0.0
  0
VERTEX
  8
MY3DLAYER
10
8.00000002742088
20
-18.699999995557068
30
3.9999999028919313
 70
     32
  0
VERTEX
  8
MY3DLAYER
10
8.439992404091738
20
-18.642073900222464
30
3.999999902057334
 70
     32
  0
VERTEX
  8
MY3DLAYER
10
8.439992381924984
20
-18.64207386612028
30
-6.0000000979426655
 70
     32
  0
VERTEX
  8
MY3DLAYER
10
8.000000005254124
20
-18.699999961454882
30
-6.000000097108068
 70
     32
  0
VERTEX
  8
MY3DLAYER
10
8.00000002742088
20
-18.699999995557068
30
3.9999999028919313
 70
     32
  0
SEQEND
  0
POLYLINE
 8
Group#11
 66
     1
70
    8
 10
0.0
 20
 0.0
 30
0.0
  0
VERTEX
  8
MY3DLAYER
10
8.439992404091738
20
-18.642073900222464
30
3.999999902057334
 70
     32
  0
VERTEX
  8
MY3DLAYER
10
8.850000027407411
20
-18.472243181940346
30
3.9999999016963335
 70
     32
  0
VERTEX
  8
MY3DLAYER
10
8.850000005240656
20
-18.472243147838164
30
-6.0000000983036665
 70
     32
  0
VERTEX
  8
MY3DLAYER
10
8.439992381924984
20
-18.64207386612028
30
-6.0000000979426655
 70
     32
  0
VERTEX
  8
MY3DLAYER
10
8.439992404091738
20
-18.642073900222464
30
3.999999902057334
 70
     32
  0
SEQEND
  0
POLYLINE
 8
Group#11
 66
     1
70
    8
 10
0.0
 20
 0.0
 30
0.0
  0
VERTEX
  8
MY3DLAYER
10
43.12811615614605
20
-18.642073907750543
30
3.9999998049708174
 70
     32
  0
VERTEX
  8
MY3DLAYER
10
43.53812377928889
20
-18.472243189051174
30
3.9999998046098053
 70
     32
  0
VERTEX
  8
MY3DLAYER
10
43.53812375558509
20
-18.472243153082115
30
-6.000000139682466
 70
     32
  0
VERTEX
  8
MY3DLAYER
10
43.12811613244225
20
-18.642073871781484
30
-6.000000139321454
 70
     32
  0
VERTEX
  8
MY3DLAYER
10
43.12811615614605
20
-18.642073907750543
30
3.9999998049708174
 70
     32
  0
SEQEND
  0
POLYLINE
 8
Group#11
 66
     1
70
    8
 10
0.0
 20
 0.0
 30
0.0
  0
VERTEX
  8
MY3DLAYER
10
43.53812377928889
20
-18.472243189051174
30
3.9999998046098053
 70
     32
  0
VERTEX
  8
MY3DLAYER
10
43.89020530701511
20
-18.20208153025564
30
3.9999998047469796
 70
     32
  0
VERTEX
  8
MY3DLAYER
10
43.89020528331131
20
-18.20208149428658
30
-6.000000139545292
 70
     32
  0
VERTEX
  8
MY3DLAYER
10
43.53812375558509
20
-18.472243153082115
30
-6.000000139682466
 70
     32
  0
VERTEX
  8
MY3DLAYER
10
43.53812377928889
20
-18.472243189051174
30
3.9999998046098053
 70
     32
  0
SEQEND
  0
POLYLINE
 8
Group#11
 66
     1
70
    8
 10
0.0
 20
 0.0
 30
0.0
  0
VERTEX
  8
MY3DLAYER
10
43.89020530701511
20
-18.20208153025564
30
3.9999998047469796
 70
     32
  0
VERTEX
  8
MY3DLAYER
10
44.160366965052404
20
-17.850000001947603
30
3.999999805373001
 70
     32
  0
VERTEX
  8
MY3DLAYER
10
44.160366941348606
20
-17.849999965978544
30
-6.00000013891927
 70
     32
  0
VERTEX
  8
MY3DLAYER
10
43.89020528331131
20
-18.20208149428658
30
-6.000000139545292
 70
     32
  0
VERTEX
  8
MY3DLAYER
10
43.89020530701511
20
-18.20208153025564
30
3.9999998047469796
 70
     32
  0
SEQEND
  0
POLYLINE
 8
Group#11
 66
     1
70
    8
 10
0.0
 20
 0.0
 30
0.0
  0
VERTEX
  8
MY3DLAYER
10
44.160366965052404
20
-17.850000001947603
30
3.999999805373001
 70
     32
  0
VERTEX
  8
MY3DLAYER
10
44.33019768286878
20
-17.439992378439015
30
3.9999998064451976
 70
     32
  0
VERTEX
  8
MY3DLAYER
10
44.33019765916498
20
-17.439992342469957
30
-6.000000137847074
 70
     32
  0
VERTEX
  8
MY3DLAYER
10
44.160366941348606
20
-17.849999965978544
30
-6.00000013891927
 70
     32
  0
VERTEX
  8
MY3DLAYER
10
44.160366965052404
20
-17.850000001947603
30
3.999999805373001
 70
     32
  0
SEQEND
  0
POLYLINE
 8
Group#11
 66
     1
70
    8
 10
0.0
 20
 0.0
 30
0.0
  0
VERTEX
  8
MY3DLAYER
10
44.33019768286878
20
-17.439992378439015
30
3.9999998064451976
 70
     32
  0
VERTEX
  8
MY3DLAYER
10
44.38812377770358
20
-17.000000001702354
30
3.999999807890498
 70
     32
  0
VERTEX
  8
MY3DLAYER
10
44.388123753999785
20
-16.999999965733295
30
-6.000000136401773
 70
     32
  0
VERTEX
  8
MY3DLAYER
10
44.33019765916498
20
-17.439992342469957
30
-6.000000137847074
 70
     32
  0
VERTEX
  8
MY3DLAYER
10
44.33019768286878
20
-17.439992378439015
30
3.9999998064451976
 70
     32
  0
SEQEND
  0
POLYLINE
 8
Group#11
 66
     1
70
    8
 10
0.0
 20
 0.0
 30
0.0
  0
VERTEX
  8
MY3DLAYER
10
44.38812377770358
20
-17.000000001702354
30
3.999999807890498
 70
     32
  0
VERTEX
  8
MY3DLAYER
10
44.33019768192121
20
-16.560007625090442
30
3.999999809610418
 70
     32
  0
VERTEX
  8
MY3DLAYER
10
44.330197658217415
20
-16.560007589121383
30
-6.000000134681853
 70
     32
  0
VERTEX
  8
MY3DLAYER
10
44.388123753999785
20
-16.999999965733295
30
-6.000000136401773
 70
     32
  0
VERTEX
  8
MY3DLAYER
10
44.38812377770358
20
-17.000000001702354
30
3.999999807890498
 70
     32
  0
SEQEND
  0
POLYLINE
 8
Group#11
 66
     1
70
    8
 10
0.0
 20
 0.0
 30
0.0
  0
VERTEX
  8
MY3DLAYER
10
44.33019768192121
20
-16.560007625090442
30
3.999999809610418
 70
     32
  0
VERTEX
  8
MY3DLAYER
10
44.160366963221854
20
-16.150000001947603
30
3.9999998114877373
 70
     32
  0
VERTEX
  8
MY3DLAYER
10
44.160366939518056
20
-16.149999965978544
30
-6.000000132804534
 70
     32
  0
VERTEX
  8
MY3DLAYER
10
44.330197658217415
20
-16.560007589121383
30
-6.000000134681853
 70
     32
  0
VERTEX
  8
MY3DLAYER
10
44.33019768192121
20
-16.560007625090442
30
3.999999809610418
 70
     32
  0
SEQEND
  0
POLYLINE
 8
Group#11
 66
     1
70
    8
 10
0.0
 20
 0.0
 30
0.0
  0
VERTEX
  8
MY3DLAYER
10
44.160366963221854
20
-16.150000001947603
30
3.9999998114877373
 70
     32
  0
VERTEX
  8
MY3DLAYER
10
43.89020530442632
20
-15.79791847422138
30
3.999999813394531
 70
     32
  0
VERTEX
  8
MY3DLAYER
10
43.89020528072252
20
-15.79791843825232
30
-6.000000130897741
 70
     32
  0
VERTEX
  8
MY3DLAYER
10
44.160366939518056
20
-16.149999965978544
30
-6.000000132804534
 70
     32
  0
VERTEX
  8
MY3DLAYER
10
44.160366963221854
20
-16.150000001947603
30
3.9999998114877373
 70
     32
  0
SEQEND
  0
POLYLINE
 8
Group#11
 66
     1
70
    8
 10
0.0
 20
 0.0
 30
0.0
  0
VERTEX
  8
MY3DLAYER
10
43.89020530442632
20
-15.79791847422138
30
3.999999813394531
 70
     32
  0
VERTEX
  8
MY3DLAYER
10
43.538123776118276
20
-15.527756816184086
30
3.9999998152008436
 70
     32
  0
VERTEX
  8
MY3DLAYER
10
43.53812375241448
20
-15.527756780215027
30
-6.000000129091427
 70
     32
  0
VERTEX
  8
MY3DLAYER
10
43.89020528072252
20
-15.79791843825232
30
-6.000000130897741
 70
     32
  0
VERTEX
  8
MY3DLAYER
10
43.89020530442632
20
-15.79791847422138
30
3.999999813394531
 70
     32
  0
SEQEND
  0
POLYLINE
 8
Group#11
 66
     1
70
    8
 10
0.0
 20
 0.0
 30
0.0
  0
VERTEX
  8
MY3DLAYER
10
43.538123776118276
20
-15.527756816184086
30
3.9999998152008436
 70
     32
  0
VERTEX
  8
MY3DLAYER
10
43.12811615260969
20
-15.35792609836771
30
3.9999998167835895
 70
     32
  0
VERTEX
  8
MY3DLAYER
10
43.128116128905894
20
-15.35792606239865
30
-6.000000127508682
 70
     32
  0
VERTEX
  8
MY3DLAYER
10
43.53812375241448
20
-15.527756780215027
30
-6.000000129091427
 70
     32
  0
VERTEX
  8
MY3DLAYER
10
43.538123776118276
20
-15.527756816184086
30
3.9999998152008436
 70
     32
  0
SEQEND
  0
POLYLINE
 8
Group#11
 66
     1
70
    8
 10
0.0
 20
 0.0
 30
0.0
  0
VERTEX
  8
MY3DLAYER
10
43.12811615260969
20
-15.35792609836771
30
3.9999998167835895
 70
     32
  0
VERTEX
  8
MY3DLAYER
10
42.68812377587303
20
-15.300000003532908
30
3.9999998180348872
 70
     32
  0
VERTEX
  8
MY3DLAYER
10
42.68812375216923
20
-15.29999996756385
30
-6.000000126257384
 70
     32
  0
VERTEX
  8
MY3DLAYER
10
43.128116128905894
20
-15.35792606239865
30
-6.000000127508682
 70
     32
  0
VERTEX
  8
MY3DLAYER
10
43.12811615260969
20
-15.35792609836771
30
3.9999998167835895
 70
     32
  0
SEQEND
  0
POLYLINE
 8
Group#11
 66
     1
70
    8
 10
0.0
 20
 0.0
 30
0.0
  0
VERTEX
  8
MY3DLAYER
10
42.68812377587303
20
-15.300000003532908
30
3.9999998180348872
 70
     32
  0
VERTEX
  8
MY3DLAYER
10
42.24813139926112
20
-15.357926099315272
30
3.9999998188694845
 70
     32
  0
VERTEX
  8
MY3DLAYER
10
42.24813137555732
20
-15.357926063346213
30
-6.000000125422787
 70
     32
  0
VERTEX
  8
MY3DLAYER
10
42.68812375216923
20
-15.29999996756385
30
-6.000000126257384
 70
     32
  0
VERTEX
  8
MY3DLAYER
10
42.68812377587303
20
-15.300000003532908
30
3.9999998180348872
 70
     32
  0
SEQEND
  0
POLYLINE
 8
Group#11
 66
     1
70
    8
 10
0.0
 20
 0.0
 30
0.0
  0
VERTEX
  8
MY3DLAYER
10
42.24813139926112
20
-15.357926099315272
30
3.9999998188694845
 70
     32
  0
VERTEX
  8
MY3DLAYER
10
41.83812377611827
20
-15.527756818014637
30
3.9999998192304966
 70
     32
  0
VERTEX
  8
MY3DLAYER
10
41.838123752414475
20
-15.527756782045579
30
-6.000000125061774
 70
     32
  0
VERTEX
  8
MY3DLAYER
10
42.24813137555732
20
-15.357926063346213
30
-6.000000125422787
 70
     32
  0
VERTEX
  8
MY3DLAYER
10
42.24813139926112
20
-15.357926099315272
30
3.9999998188694845
 70
     32
  0
SEQEND
  0
POLYLINE
 8
Group#11
 66
     1
70
    8
 10
0.0
 20
 0.0
 30
0.0
  0
VERTEX
  8
MY3DLAYER
10
41.83812377611827
20
-15.527756818014637
30
3.9999998192304966
 70
     32
  0
VERTEX
  8
MY3DLAYER
10
41.48604224839205
20
-15.797918476810173
30
3.9999998190933113
 70
     32
  0
VERTEX
  8
MY3DLAYER
10
41.486042224688255
20
-15.797918440841114
30
-6.0000001251989605
 70
     32
  0
VERTEX
  8
MY3DLAYER
10
41.838123752414475
20
-15.527756782045579
30
-6.000000125061774
 70
     32
  0
VERTEX
  8
MY3DLAYER
10
41.83812377611827
20
-15.527756818014637
30
3.9999998192304966
 70
     32
  0
SEQEND
  0
POLYLINE
 8
Group#11
 66
     1
70
    8
 10
0.0
 20
 0.0
 30
0.0
  0
VERTEX
  8
MY3DLAYER
10
41.48604224839205
20
-15.797918476810173
30
3.9999998190933113
 70
     32
  0
VERTEX
  8
MY3DLAYER
10
41.21588059035476
20
-16.150000005118212
30
3.999999818467301
 70
     32
  0
VERTEX
  8
MY3DLAYER
10
41.21588056665096
20
-16.149999969149153
30
-6.00000012582497
 70
     32
  0
VERTEX
  8
MY3DLAYER
10
41.486042224688255
20
-15.797918440841114
30
-6.0000001251989605
 70
     32
  0
VERTEX
  8
MY3DLAYER
10
41.48604224839205
20
-15.797918476810173
30
3.9999998190933113
 70
     32
  0
SEQEND
  0
POLYLINE
 8
Group#11
 66
     1
70
    8
 10
0.0
 20
 0.0
 30
0.0
  0
VERTEX
  8
MY3DLAYER
10
41.21588059035476
20
-16.150000005118212
30
3.999999818467301
 70
     32
  0
VERTEX
  8
MY3DLAYER
10
41.04604987253838
20
-16.5600076286268
30
3.999999817395105
 70
     32
  0
VERTEX
  8
MY3DLAYER
10
41.046049848834585
20
-16.56000759265774
30
-6.0000001268971666
 70
     32
  0
VERTEX
  8
MY3DLAYER
10
41.21588056665096
20
-16.149999969149153
30
-6.00000012582497
 70
     32
  0
VERTEX
  8
MY3DLAYER
10
41.21588059035476
20
-16.150000005118212
30
3.999999818467301
 70
     32
  0
SEQEND
  0
POLYLINE
 8
Group#11
 66
     1
70
    8
 10
0.0
 20
 0.0
 30
0.0
  0
VERTEX
  8
MY3DLAYER
10
41.04604987253838
20
-16.5600076286268
30
3.999999817395105
 70
     32
  0
VERTEX
  8
MY3DLAYER
10
40.98812377770358
20
-17.00000000536346
30
3.999999815949793
 70
     32
  0
VERTEX
  8
MY3DLAYER
10
40.98812375399978
20
-16.999999969394402
30
-6.000000128342478
 70
     32
  0
VERTEX
  8
MY3DLAYER
10
41.046049848834585
20
-16.56000759265774
30
-6.0000001268971666
 70
     32
  0
VERTEX
  8
MY3DLAYER
10
41.04604987253838
20
-16.5600076286268
30
3.999999817395105
 70
     32
  0
SEQEND
  0
POLYLINE
 8
Group#11
 66
     1
70
    8
 10
0.0
 20
 0.0
 30
0.0
  0
VERTEX
  8
MY3DLAYER
10
40.98812377770358
20
-17.00000000536346
30
3.999999815949793
 70
     32
  0
VERTEX
  8
MY3DLAYER
10
41.04604987348595
20
-17.439992381975372
30
3.9999998142298843
 70
     32
  0
VERTEX
  8
MY3DLAYER
10
41.04604984978215
20
-17.439992346006314
30
-6.0000001300623875
 70
     32
  0
VERTEX
  8
MY3DLAYER
10
40.98812375399978
20
-16.999999969394402
30
-6.000000128342478
 70
     32
  0
VERTEX
  8
MY3DLAYER
10
40.98812377770358
20
-17.00000000536346
30
3.999999815949793
 70
     32
  0
SEQEND
  0
POLYLINE
 8
Group#11
 66
     1
70
    8
 10
0.0
 20
 0.0
 30
0.0
  0
VERTEX
  8
MY3DLAYER
10
41.04604987348595
20
-17.439992381975372
30
3.9999998142298843
 70
     32
  0
VERTEX
  8
MY3DLAYER
10
41.21588059218531
20
-17.85000000511821
30
3.9999998123525535
 70
     32
  0
VERTEX
  8
MY3DLAYER
10
41.21588056848151
20
-17.849999969149152
30
-6.000000131939718
 70
     32
  0
VERTEX
  8
MY3DLAYER
10
41.04604984978215
20
-17.439992346006314
30
-6.0000001300623875
 70
     32
  0
VERTEX
  8
MY3DLAYER
10
41.04604987348595
20
-17.439992381975372
30
3.9999998142298843
 70
     32
  0
SEQEND
  0
POLYLINE
 8
Group#11
 66
     1
70
    8
 10
0.0
 20
 0.0
 30
0.0
  0
VERTEX
  8
MY3DLAYER
10
41.21588059218531
20
-17.85000000511821
30
3.9999998123525535
 70
     32
  0
VERTEX
  8
MY3DLAYER
10
41.486042250980844
20
-18.20208153284443
30
3.9999998104457712
 70
     32
  0
VERTEX
  8
MY3DLAYER
10
41.486042227277046
20
-18.202081496875373
30
-6.0000001338465
 70
     32
  0
VERTEX
  8
MY3DLAYER
10
41.21588056848151
20
-17.849999969149152
30
-6.000000131939718
 70
     32
  0
VERTEX
  8
MY3DLAYER
10
41.21588059218531
20
-17.85000000511821
30
3.9999998123525535
 70
     32
  0
SEQEND
  0
POLYLINE
 8
Group#11
 66
     1
70
    8
 10
0.0
 20
 0.0
 30
0.0
  0
VERTEX
  8
MY3DLAYER
10
41.486042250980844
20
-18.20208153284443
30
3.9999998104457712
 70
     32
  0
VERTEX
  8
MY3DLAYER
10
41.838123779288885
20
-18.472243190881727
30
3.9999998086394584
 70
     32
  0
VERTEX
  8
MY3DLAYER
10
41.83812375558509
20
-18.472243154912668
30
-6.0000001356528125
 70
     32
  0
VERTEX
  8
MY3DLAYER
10
41.486042227277046
20
-18.202081496875373
30
-6.0000001338465
 70
     32
  0
VERTEX
  8
MY3DLAYER
10
41.486042250980844
20
-18.20208153284443
30
3.9999998104457712
 70
     32
  0
SEQEND
  0
POLYLINE
 8
Group#11
 66
     1
70
    8
 10
0.0
 20
 0.0
 30
0.0
  0
VERTEX
  8
MY3DLAYER
10
41.838123779288885
20
-18.472243190881727
30
3.9999998086394584
 70
     32
  0
VERTEX
  8
MY3DLAYER
10
42.24813140279747
20
-18.642073908698105
30
3.999999807056713
 70
     32
  0
VERTEX
  8
MY3DLAYER
10
42.24813137909367
20
-18.642073872729046
30
-6.000000137235559
 70
     32
  0
VERTEX
  8
MY3DLAYER
10
41.83812375558509
20
-18.472243154912668
30
-6.0000001356528125
 70
     32
  0
VERTEX
  8
MY3DLAYER
10
41.838123779288885
20
-18.472243190881727
30
3.9999998086394584
 70
     32
  0
SEQEND
  0
POLYLINE
 8
Group#11
 66
     1
70
    8
 10
0.0
 20
 0.0
 30
0.0
  0
VERTEX
  8
MY3DLAYER
10
42.24813140279747
20
-18.642073908698105
30
3.999999807056713
 70
     32
  0
VERTEX
  8
MY3DLAYER
10
42.68812377953413
20
-18.700000003532907
30
3.9999998058054147
 70
     32
  0
VERTEX
  8
MY3DLAYER
10
42.68812375583033
20
-18.699999967563848
30
-6.000000138486857
 70
     32
  0
VERTEX
  8
MY3DLAYER
10
42.24813137909367
20
-18.642073872729046
30
-6.000000137235559
 70
     32
  0
VERTEX
  8
MY3DLAYER
10
42.24813140279747
20
-18.642073908698105
30
3.999999807056713
 70
     32
  0
SEQEND
  0
POLYLINE
 8
Group#11
 66
     1
70
    8
 10
0.0
 20
 0.0
 30
0.0
  0
VERTEX
  8
MY3DLAYER
10
42.68812377953413
20
-18.700000003532907
30
3.9999998058054147
 70
     32
  0
VERTEX
  8
MY3DLAYER
10
43.12811615614605
20
-18.642073907750543
30
3.9999998049708174
 70
     32
  0
VERTEX
  8
MY3DLAYER
10
43.12811613244225
20
-18.642073871781484
30
-6.000000139321454
 70
     32
  0
VERTEX
  8
MY3DLAYER
10
42.68812375583033
20
-18.699999967563848
30
-6.000000138486857
 70
     32
  0
VERTEX
  8
MY3DLAYER
10
42.68812377953413
20
-18.700000003532907
30
3.9999998058054147
 70
     32
  0
SEQEND
  0
POLYLINE
 8
Group#11
 66
     1
70
    8
 10
0.0
 20
 0.0
 30
0.0
  0
VERTEX
  8
MY3DLAYER
10
42.688123766181874
20
-6.300000008182863
30
3.999999875081681
 70
     32
  0
VERTEX
  8
MY3DLAYER
10
42.24813138956997
20
-6.3579261039652275
30
3.9999998759162785
 70
     32
  0
VERTEX
  8
MY3DLAYER
10
42.24813136586614
20
-6.357926067996165
30
-6.000000095264647
 70
     32
  0
VERTEX
  8
MY3DLAYER
10
42.688123742478055
20
-6.299999972213799
30
-6.000000096099244
 70
     32
  0
VERTEX
  8
MY3DLAYER
10
42.688123766181874
20
-6.300000008182863
30
3.999999875081681
 70
     32
  0
SEQEND
  0
POLYLINE
 8
Group#11
 66
     1
70
    8
 10
0.0
 20
 0.0
 30
0.0
  0
VERTEX
  8
MY3DLAYER
10
42.24813138956997
20
-6.3579261039652275
30
3.9999998759162785
 70
     32
  0
VERTEX
  8
MY3DLAYER
10
41.838123766427124
20
-6.527756822664592
30
3.9999998762772795
 70
     32
  0
VERTEX
  8
MY3DLAYER
10
41.838123742723305
20
-6.52775678669553
30
-6.000000094903646
 70
     32
  0
VERTEX
  8
MY3DLAYER
10
42.24813136586614
20
-6.357926067996165
30
-6.000000095264647
 70
     32
  0
VERTEX
  8
MY3DLAYER
10
42.24813138956997
20
-6.3579261039652275
30
3.9999998759162785
 70
     32
  0
SEQEND
  0
POLYLINE
 8
Group#11
 66
     1
70
    8
 10
0.0
 20
 0.0
 30
0.0
  0
VERTEX
  8
MY3DLAYER
10
41.838123766427124
20
-6.527756822664592
30
3.9999998762772795
 70
     32
  0
VERTEX
  8
MY3DLAYER
10
41.486042238700904
20
-6.797918481460129
30
3.999999876140105
 70
     32
  0
VERTEX
  8
MY3DLAYER
10
41.486042214997084
20
-6.797918445491066
30
-6.0000000950408205
 70
     32
  0
VERTEX
  8
MY3DLAYER
10
41.838123742723305
20
-6.52775678669553
30
-6.000000094903646
 70
     32
  0
VERTEX
  8
MY3DLAYER
10
41.838123766427124
20
-6.527756822664592
30
3.9999998762772795
 70
     32
  0
SEQEND
  0
POLYLINE
 8
Group#11
 66
     1
70
    8
 10
0.0
 20
 0.0
 30
0.0
  0
VERTEX
  8
MY3DLAYER
10
41.486042238700904
20
-6.797918481460129
30
3.999999876140105
 70
     32
  0
VERTEX
  8
MY3DLAYER
10
41.2158805806636
20
-7.150000009768167
30
3.9999998755140838
 70
     32
  0
VERTEX
  8
MY3DLAYER
10
41.21588055695978
20
-7.149999973799106
30
-6.000000095666842
 70
     32
  0
VERTEX
  8
MY3DLAYER
10
41.486042214997084
20
-6.797918445491066
30
-6.0000000950408205
 70
     32
  0
VERTEX
  8
MY3DLAYER
10
41.486042238700904
20
-6.797918481460129
30
3.999999876140105
 70
     32
  0
SEQEND
  0
POLYLINE
 8
Group#11
 66
     1
70
    8
 10
0.0
 20
 0.0
 30
0.0
  0
VERTEX
  8
MY3DLAYER
10
41.2158805806636
20
-7.150000009768167
30
3.9999998755140838
 70
     32
  0
VERTEX
  8
MY3DLAYER
10
41.046049862847234
20
-7.5600076332767525
30
3.999999874441887
 70
     32
  0
VERTEX
  8
MY3DLAYER
10
41.046049839143414
20
-7.560007597307691
30
-6.000000096739038
 70
     32
  0
VERTEX
  8
MY3DLAYER
10
41.21588055695978
20
-7.149999973799106
30
-6.000000095666842
 70
     32
  0
VERTEX
  8
MY3DLAYER
10
41.2158805806636
20
-7.150000009768167
30
3.9999998755140838
 70
     32
  0
SEQEND
  0
POLYLINE
 8
Group#11
 66
     1
70
    8
 10
0.0
 20
 0.0
 30
0.0
  0
VERTEX
  8
MY3DLAYER
10
41.046049862847234
20
-7.5600076332767525
30
3.999999874441887
 70
     32
  0
VERTEX
  8
MY3DLAYER
10
40.98812376801242
20
-8.000000010013416
30
3.999999872996587
 70
     32
  0
VERTEX
  8
MY3DLAYER
10
40.9881237443086
20
-7.999999974044354
30
-6.000000098184338
 70
     32
  0
VERTEX
  8
MY3DLAYER
10
41.046049839143414
20
-7.560007597307691
30
-6.000000096739038
 70
     32
  0
VERTEX
  8
MY3DLAYER
10
41.046049862847234
20
-7.5600076332767525
30
3.999999874441887
 70
     32
  0
SEQEND
  0
POLYLINE
 8
Group#11
 66
     1
70
    8
 10
0.0
 20
 0.0
 30
0.0
  0
VERTEX
  8
MY3DLAYER
10
40.98812376801242
20
-8.000000010013416
30
3.999999872996587
 70
     32
  0
VERTEX
  8
MY3DLAYER
10
41.04604986379479
20
-8.439992386625326
30
3.9999998712766667
 70
     32
  0
VERTEX
  8
MY3DLAYER
10
41.04604984009097
20
-8.439992350656265
30
-6.000000099904258
 70
     32
  0
VERTEX
  8
MY3DLAYER
10
40.9881237443086
20
-7.999999974044354
30
-6.000000098184338
 70
     32
  0
VERTEX
  8
MY3DLAYER
10
40.98812376801242
20
-8.000000010013416
30
3.999999872996587
 70
     32
  0
SEQEND
  0
POLYLINE
 8
Group#11
 66
     1
70
    8
 10
0.0
 20
 0.0
 30
0.0
  0
VERTEX
  8
MY3DLAYER
10
41.04604986379479
20
-8.439992386625326
30
3.9999998712766667
 70
     32
  0
VERTEX
  8
MY3DLAYER
10
41.21588058249416
20
-8.850000009768166
30
3.9999998693993475
 70
     32
  0
VERTEX
  8
MY3DLAYER
10
41.21588055879034
20
-8.849999973799106
30
-6.000000101781578
 70
     32
  0
VERTEX
  8
MY3DLAYER
10
41.04604984009097
20
-8.439992350656265
30
-6.000000099904258
 70
     32
  0
VERTEX
  8
MY3DLAYER
10
41.04604986379479
20
-8.439992386625326
30
3.9999998712766667
 70
     32
  0
SEQEND
  0
POLYLINE
 8
Group#11
 66
     1
70
    8
 10
0.0
 20
 0.0
 30
0.0
  0
VERTEX
  8
MY3DLAYER
10
41.21588058249416
20
-8.850000009768166
30
3.9999998693993475
 70
     32
  0
VERTEX
  8
MY3DLAYER
10
41.486042241289695
20
-9.202081537494388
30
3.9999998674925537
 70
     32
  0
VERTEX
  8
MY3DLAYER
10
41.486042217585876
20
-9.202081501525326
30
-6.000000103688372
 70
     32
  0
VERTEX
  8
MY3DLAYER
10
41.21588055879034
20
-8.849999973799106
30
-6.000000101781578
 70
     32
  0
VERTEX
  8
MY3DLAYER
10
41.21588058249416
20
-8.850000009768166
30
3.9999998693993475
 70
     32
  0
SEQEND
  0
POLYLINE
 8
Group#11
 66
     1
70
    8
 10
0.0
 20
 0.0
 30
0.0
  0
VERTEX
  8
MY3DLAYER
10
41.486042241289695
20
-9.202081537494388
30
3.9999998674925537
 70
     32
  0
VERTEX
  8
MY3DLAYER
10
41.83812376959773
20
-9.472243195531684
30
3.999999865686241
 70
     32
  0
VERTEX
  8
MY3DLAYER
10
41.83812374589391
20
-9.472243159562622
30
-6.000000105494684
 70
     32
  0
VERTEX
  8
MY3DLAYER
10
41.486042217585876
20
-9.202081501525326
30
-6.000000103688372
 70
     32
  0
VERTEX
  8
MY3DLAYER
10
41.486042241289695
20
-9.202081537494388
30
3.9999998674925537
 70
     32
  0
SEQEND
  0
POLYLINE
 8
Group#11
 66
     1
70
    8
 10
0.0
 20
 0.0
 30
0.0
  0
VERTEX
  8
MY3DLAYER
10
41.83812376959773
20
-9.472243195531684
30
3.999999865686241
 70
     32
  0
VERTEX
  8
MY3DLAYER
10
42.24813139310632
20
-9.64207391334806
30
3.999999864103507
 70
     32
  0
VERTEX
  8
MY3DLAYER
10
42.24813136940249
20
-9.642073877378998
30
-6.000000107077419
 70
     32
  0
VERTEX
  8
MY3DLAYER
10
41.83812374589391
20
-9.472243159562622
30
-6.000000105494684
 70
     32
  0
VERTEX
  8
MY3DLAYER
10
41.83812376959773
20
-9.472243195531684
30
3.999999865686241
 70
     32
  0
SEQEND
  0
POLYLINE
 8
Group#11
 66
     1
70
    8
 10
0.0
 20
 0.0
 30
0.0
  0
VERTEX
  8
MY3DLAYER
10
42.24813139310632
20
-9.64207391334806
30
3.999999864103507
 70
     32
  0
VERTEX
  8
MY3DLAYER
10
42.68812376984298
20
-9.700000008182862
30
3.9999998628521976
 70
     32
  0
VERTEX
  8
MY3DLAYER
10
42.68812374613916
20
-9.699999972213801
30
-6.000000108328728
 70
     32
  0
VERTEX
  8
MY3DLAYER
10
42.24813136940249
20
-9.642073877378998
30
-6.000000107077419
 70
     32
  0
VERTEX
  8
MY3DLAYER
10
42.24813139310632
20
-9.64207391334806
30
3.999999864103507
 70
     32
  0
SEQEND
  0
POLYLINE
 8
Group#11
 66
     1
70
    8
 10
0.0
 20
 0.0
 30
0.0
  0
VERTEX
  8
MY3DLAYER
10
42.68812376984298
20
-9.700000008182862
30
3.9999998628521976
 70
     32
  0
VERTEX
  8
MY3DLAYER
10
43.12811614645489
20
-9.642073912400498
30
3.9999998620176003
 70
     32
  0
VERTEX
  8
MY3DLAYER
10
43.128116122751074
20
-9.642073876431436
30
-6.0000001091633255
 70
     32
  0
VERTEX
  8
MY3DLAYER
10
42.68812374613916
20
-9.699999972213801
30
-6.000000108328728
 70
     32
  0
VERTEX
  8
MY3DLAYER
10
42.68812376984298
20
-9.700000008182862
30
3.9999998628521976
 70
     32
  0
SEQEND
  0
POLYLINE
 8
Group#11
 66
     1
70
    8
 10
0.0
 20
 0.0
 30
0.0
  0
VERTEX
  8
MY3DLAYER
10
43.12811614645489
20
-9.642073912400498
30
3.9999998620176003
 70
     32
  0
VERTEX
  8
MY3DLAYER
10
43.53812376959773
20
-9.472243193701134
30
3.9999998616565993
 70
     32
  0
VERTEX
  8
MY3DLAYER
10
43.53812374589391
20
-9.472243157732072
30
-6.000000109524326
 70
     32
  0
VERTEX
  8
MY3DLAYER
10
43.128116122751074
20
-9.642073876431436
30
-6.0000001091633255
 70
     32
  0
VERTEX
  8
MY3DLAYER
10
43.12811614645489
20
-9.642073912400498
30
3.9999998620176003
 70
     32
  0
SEQEND
  0
POLYLINE
 8
Group#11
 66
     1
70
    8
 10
0.0
 20
 0.0
 30
0.0
  0
VERTEX
  8
MY3DLAYER
10
43.53812376959773
20
-9.472243193701134
30
3.9999998616565993
 70
     32
  0
VERTEX
  8
MY3DLAYER
10
43.89020529732395
20
-9.202081534905597
30
3.9999998617937735
 70
     32
  0
VERTEX
  8
MY3DLAYER
10
43.89020527362013
20
-9.202081498936534
30
-6.000000109387152
 70
     32
  0
VERTEX
  8
MY3DLAYER
10
43.53812374589391
20
-9.472243157732072
30
-6.000000109524326
 70
     32
  0
VERTEX
  8
MY3DLAYER
10
43.53812376959773
20
-9.472243193701134
30
3.9999998616565993
 70
     32
  0
SEQEND
  0
POLYLINE
 8
Group#11
 66
     1
70
    8
 10
0.0
 20
 0.0
 30
0.0
  0
VERTEX
  8
MY3DLAYER
10
43.89020529732395
20
-9.202081534905597
30
3.9999998617937735
 70
     32
  0
VERTEX
  8
MY3DLAYER
10
44.16036695536125
20
-8.850000006597558
30
3.999999862419795
 70
     32
  0
VERTEX
  8
MY3DLAYER
10
44.16036693165743
20
-8.849999970628495
30
-6.00000010876113
 70
     32
  0
VERTEX
  8
MY3DLAYER
10
43.89020527362013
20
-9.202081498936534
30
-6.000000109387152
 70
     32
  0
VERTEX
  8
MY3DLAYER
10
43.89020529732395
20
-9.202081534905597
30
3.9999998617937735
 70
     32
  0
SEQEND
  0
POLYLINE
 8
Group#11
 66
     1
70
    8
 10
0.0
 20
 0.0
 30
0.0
  0
VERTEX
  8
MY3DLAYER
10
44.16036695536125
20
-8.850000006597558
30
3.999999862419795
 70
     32
  0
VERTEX
  8
MY3DLAYER
10
44.33019767317762
20
-8.43999238308897
30
3.9999998634919915
 70
     32
  0
VERTEX
  8
MY3DLAYER
10
44.3301976494738
20
-8.439992347119908
30
-6.000000107688934
 70
     32
  0
VERTEX
  8
MY3DLAYER
10
44.16036693165743
20
-8.849999970628495
30
-6.00000010876113
 70
     32
  0
VERTEX
  8
MY3DLAYER
10
44.16036695536125
20
-8.850000006597558
30
3.999999862419795
 70
     32
  0
SEQEND
  0
POLYLINE
 8
Group#11
 66
     1
70
    8
 10
0.0
 20
 0.0
 30
0.0
  0
VERTEX
  8
MY3DLAYER
10
44.33019767317762
20
-8.43999238308897
30
3.9999998634919915
 70
     32
  0
VERTEX
  8
MY3DLAYER
10
44.38812376801243
20
-8.000000006352309
30
3.999999864937292
 70
     32
  0
VERTEX
  8
MY3DLAYER
10
44.38812374430861
20
-7.999999970383248
30
-6.0000001062436334
 70
     32
  0
VERTEX
  8
MY3DLAYER
10
44.3301976494738
20
-8.439992347119908
30
-6.000000107688934
 70
     32
  0
VERTEX
  8
MY3DLAYER
10
44.33019767317762
20
-8.43999238308897
30
3.9999998634919915
 70
     32
  0
SEQEND
  0
POLYLINE
 8
Group#11
 66
     1
70
    8
 10
0.0
 20
 0.0
 30
0.0
  0
VERTEX
  8
MY3DLAYER
10
44.38812376801243
20
-8.000000006352309
30
3.999999864937292
 70
     32
  0
VERTEX
  8
MY3DLAYER
10
44.330197672230064
20
-7.560007629740399
30
3.999999866657212
 70
     32
  0
VERTEX
  8
MY3DLAYER
10
44.330197648526244
20
-7.560007593771338
30
-6.000000104523713
 70
     32
  0
VERTEX
  8
MY3DLAYER
10
44.38812374430861
20
-7.999999970383248
30
-6.0000001062436334
 70
     32
  0
VERTEX
  8
MY3DLAYER
10
44.38812376801243
20
-8.000000006352309
30
3.999999864937292
 70
     32
  0
SEQEND
  0
POLYLINE
 8
Group#11
 66
     1
70
    8
 10
0.0
 20
 0.0
 30
0.0
  0
VERTEX
  8
MY3DLAYER
10
44.330197672230064
20
-7.560007629740399
30
3.999999866657212
 70
     32
  0
VERTEX
  8
MY3DLAYER
10
44.1603669535307
20
-7.1500000065975575
30
3.9999998685345313
 70
     32
  0
VERTEX
  8
MY3DLAYER
10
44.16036692982688
20
-7.149999970628496
30
-6.000000102646394
 70
     32
  0
VERTEX
  8
MY3DLAYER
10
44.330197648526244
20
-7.560007593771338
30
-6.000000104523713
 70
     32
  0
VERTEX
  8
MY3DLAYER
10
44.330197672230064
20
-7.560007629740399
30
3.999999866657212
 70
     32
  0
SEQEND
  0
POLYLINE
 8
Group#11
 66
     1
70
    8
 10
0.0
 20
 0.0
 30
0.0
  0
VERTEX
  8
MY3DLAYER
10
44.1603669535307
20
-7.1500000065975575
30
3.9999998685345313
 70
     32
  0
VERTEX
  8
MY3DLAYER
10
43.89020529473516
20
-6.797918478871337
30
3.999999870441325
 70
     32
  0
VERTEX
  8
MY3DLAYER
10
43.89020527103134
20
-6.797918442902276
30
-6.000000100739601
 70
     32
  0
VERTEX
  8
MY3DLAYER
10
44.16036692982688
20
-7.149999970628496
30
-6.000000102646394
 70
     32
  0
VERTEX
  8
MY3DLAYER
10
44.1603669535307
20
-7.1500000065975575
30
3.9999998685345313
 70
     32
  0
SEQEND
  0
POLYLINE
 8
Group#11
 66
     1
70
    8
 10
0.0
 20
 0.0
 30
0.0
  0
VERTEX
  8
MY3DLAYER
10
43.89020529473516
20
-6.797918478871337
30
3.999999870441325
 70
     32
  0
VERTEX
  8
MY3DLAYER
10
43.53812376642712
20
-6.527756820834039
30
3.9999998722476375
 70
     32
  0
VERTEX
  8
MY3DLAYER
10
43.5381237427233
20
-6.527756784864978
30
-6.000000098933287
 70
     32
  0
VERTEX
  8
MY3DLAYER
10
43.89020527103134
20
-6.797918442902276
30
-6.000000100739601
 70
     32
  0
VERTEX
  8
MY3DLAYER
10
43.89020529473516
20
-6.797918478871337
30
3.999999870441325
 70
     32
  0
SEQEND
  0
POLYLINE
 8
Group#11
 66
     1
70
    8
 10
0.0
 20
 0.0
 30
0.0
  0
VERTEX
  8
MY3DLAYER
10
43.53812376642712
20
-6.527756820834039
30
3.9999998722476375
 70
     32
  0
VERTEX
  8
MY3DLAYER
10
43.128116142918536
20
-6.357926103017665
30
3.999999873830372
 70
     32
  0
VERTEX
  8
MY3DLAYER
10
43.12811611921472
20
-6.357926067048603
30
-6.000000097350553
 70
     32
  0
VERTEX
  8
MY3DLAYER
10
43.5381237427233
20
-6.527756784864978
30
-6.000000098933287
 70
     32
  0
VERTEX
  8
MY3DLAYER
10
43.53812376642712
20
-6.527756820834039
30
3.9999998722476375
 70
     32
  0
SEQEND
  0
POLYLINE
 8
Group#11
 66
     1
70
    8
 10
0.0
 20
 0.0
 30
0.0
  0
VERTEX
  8
MY3DLAYER
10
43.128116142918536
20
-6.357926103017665
30
3.999999873830372
 70
     32
  0
VERTEX
  8
MY3DLAYER
10
42.688123766181874
20
-6.300000008182863
30
3.999999875081681
 70
     32
  0
VERTEX
  8
MY3DLAYER
10
42.688123742478055
20
-6.299999972213799
30
-6.000000096099244
 70
     32
  0
VERTEX
  8
MY3DLAYER
10
43.12811611921472
20
-6.357926067048603
30
-6.000000097350553
 70
     32
  0
VERTEX
  8
MY3DLAYER
10
43.128116142918536
20
-6.357926103017665
30
3.999999873830372
 70
     32
  0
SEQEND
  0
POLYLINE
 8
Group#11
 66
     1
70
    8
 10
0.0
 20
 0.0
 30
0.0
  0
VERTEX
  8
MY3DLAYER
10
9.472243213171442
20
-7.150000020282274
30
3.999999973822255
 70
     32
  0
VERTEX
  8
MY3DLAYER
10
9.202081554734209
20
-6.797918492281118
30
3.9999999757290485
 70
     32
  0
VERTEX
  8
MY3DLAYER
10
9.202081531030414
20
-6.797918456312065
30
-6.000000031489974
 70
     32
  0
VERTEX
  8
MY3DLAYER
10
9.47224318946765
20
-7.149999984313221
30
-6.000000033396767
 70
     32
  0
VERTEX
  8
MY3DLAYER
10
9.472243213171442
20
-7.150000020282274
30
3.999999973822255
 70
     32
  0
SEQEND
  0
POLYLINE
 8
Group#11
 66
     1
70
    8
 10
0.0
 20
 0.0
 30
0.0
  0
VERTEX
  8
MY3DLAYER
10
9.202081554734209
20
-6.797918492281118
30
3.9999999757290485
 70
     32
  0
VERTEX
  8
MY3DLAYER
10
8.850000026701101
20
-6.527756833885523
30
3.9999999775353614
 70
     32
  0
VERTEX
  8
MY3DLAYER
10
8.850000002997309
20
-6.52775679791647
30
-6.000000029683661
 70
     32
  0
VERTEX
  8
MY3DLAYER
10
9.202081531030414
20
-6.797918456312065
30
-6.000000031489974
 70
     32
  0
VERTEX
  8
MY3DLAYER
10
9.202081554734209
20
-6.797918492281118
30
3.9999999757290485
 70
     32
  0
SEQEND
  0
POLYLINE
 8
Group#11
 66
     1
70
    8
 10
0.0
 20
 0.0
 30
0.0
  0
VERTEX
  8
MY3DLAYER
10
8.850000026701101
20
-6.527756833885523
30
3.9999999775353614
 70
     32
  0
VERTEX
  8
MY3DLAYER
10
8.439992403365345
20
-6.357926115651899
30
3.999999979118096
 70
     32
  0
VERTEX
  8
MY3DLAYER
10
8.439992379661552
20
-6.357926079682845
30
-6.000000028100927
 70
     32
  0
VERTEX
  8
MY3DLAYER
10
8.850000002997309
20
-6.52775679791647
30
-6.000000029683661
 70
     32
  0
VERTEX
  8
MY3DLAYER
10
8.850000026701101
20
-6.527756833885523
30
3.9999999775353614
 70
     32
  0
SEQEND
  0
POLYLINE
 8
Group#11
 66
     1
70
    8
 10
0.0
 20
 0.0
 30
0.0
  0
VERTEX
  8
MY3DLAYER
10
8.439992403365345
20
-6.357926115651899
30
3.999999979118096
 70
     32
  0
VERTEX
  8
MY3DLAYER
10
8.000000026687633
20
-6.300000020369334
30
3.999999980369405
 70
     32
  0
VERTEX
  8
MY3DLAYER
10
8.000000002983839
20
-6.29999998440028
30
-6.000000026849618
 70
     32
  0
VERTEX
  8
MY3DLAYER
10
8.439992379661552
20
-6.357926079682845
30
-6.000000028100927
 70
     32
  0
VERTEX
  8
MY3DLAYER
10
8.439992403365345
20
-6.357926115651899
30
3.999999979118096
 70
     32
  0
SEQEND
  0
POLYLINE
 8
Group#11
 66
     1
70
    8
 10
0.0
 20
 0.0
 30
0.0
  0
VERTEX
  8
MY3DLAYER
10
8.000000026687633
20
-6.300000020369334
30
3.999999980369405
 70
     32
  0
VERTEX
  8
MY3DLAYER
10
7.560007650016774
20
-6.357926115703935
30
3.9999999812039913
 70
     32
  0
VERTEX
  8
MY3DLAYER
10
7.560007626312981
20
-6.357926079734883
30
-6.000000026015031
 70
     32
  0
VERTEX
  8
MY3DLAYER
10
8.000000002983839
20
-6.29999998440028
30
-6.000000026849618
 70
     32
  0
VERTEX
  8
MY3DLAYER
10
8.000000026687633
20
-6.300000020369334
30
3.999999980369405
 70
     32
  0
SEQEND
  0
POLYLINE
 8
Group#11
 66
     1
70
    8
 10
0.0
 20
 0.0
 30
0.0
  0
VERTEX
  8
MY3DLAYER
10
7.560007650016774
20
-6.357926115703935
30
3.9999999812039913
 70
     32
  0
VERTEX
  8
MY3DLAYER
10
7.150000026701102
20
-6.527756833986049
30
3.9999999815650034
 70
     32
  0
VERTEX
  8
MY3DLAYER
10
7.1500000029973085
20
-6.527756798016997
30
-6.000000025654019
 70
     32
  0
VERTEX
  8
MY3DLAYER
10
7.560007626312981
20
-6.357926079734883
30
-6.000000026015031
 70
     32
  0
VERTEX
  8
MY3DLAYER
10
7.560007650016774
20
-6.357926115703935
30
3.9999999812039913
 70
     32
  0
SEQEND
  0
POLYLINE
 8
Group#11
 66
     1
70
    8
 10
0.0
 20
 0.0
 30
0.0
  0
VERTEX
  8
MY3DLAYER
10
7.150000026701102
20
-6.527756833986049
30
3.9999999815650034
 70
     32
  0
VERTEX
  8
MY3DLAYER
10
6.797918498699947
20
-6.797918492423284
30
3.9999999814278286
 70
     32
  0
VERTEX
  8
MY3DLAYER
10
6.797918474996154
20
-6.797918456454231
30
-6.000000025791194
 70
     32
  0
VERTEX
  8
MY3DLAYER
10
7.1500000029973085
20
-6.527756798016997
30
-6.000000025654019
 70
     32
  0
VERTEX
  8
MY3DLAYER
10
7.150000026701102
20
-6.527756833986049
30
3.9999999815650034
 70
     32
  0
SEQEND
  0
POLYLINE
 8
Group#11
 66
     1
70
    8
 10
0.0
 20
 0.0
 30
0.0
  0
VERTEX
  8
MY3DLAYER
10
6.797918498699947
20
-6.797918492423284
30
3.9999999814278286
 70
     32
  0
VERTEX
  8
MY3DLAYER
10
6.527756840304351
20
-7.150000020456391
30
3.9999999808018076
 70
     32
  0
VERTEX
  8
MY3DLAYER
10
6.527756816600557
20
-7.149999984487337
30
-6.000000026417215
 70
     32
  0
VERTEX
  8
MY3DLAYER
10
6.797918474996154
20
-6.797918456454231
30
-6.000000025791194
 70
     32
  0
VERTEX
  8
MY3DLAYER
10
6.797918498699947
20
-6.797918492423284
30
3.9999999814278286
 70
     32
  0
SEQEND
  0
POLYLINE
 8
Group#11
 66
     1
70
    8
 10
0.0
 20
 0.0
 30
0.0
  0
VERTEX
  8
MY3DLAYER
10
6.527756840304351
20
-7.150000020456391
30
3.9999999808018076
 70
     32
  0
VERTEX
  8
MY3DLAYER
10
6.357926122070726
20
-7.560007643792148
30
3.999999979729611
 70
     32
  0
VERTEX
  8
MY3DLAYER
10
6.357926098366932
20
-7.560007607823095
30
-6.000000027489412
 70
     32
  0
VERTEX
  8
MY3DLAYER
10
6.527756816600557
20
-7.149999984487337
30
-6.000000026417215
 70
     32
  0
VERTEX
  8
MY3DLAYER
10
6.527756840304351
20
-7.150000020456391
30
3.9999999808018076
 70
     32
  0
SEQEND
  0
POLYLINE
 8
Group#11
 66
     1
70
    8
 10
0.0
 20
 0.0
 30
0.0
  0
VERTEX
  8
MY3DLAYER
10
6.357926122070726
20
-7.560007643792148
30
3.999999979729611
 70
     32
  0
VERTEX
  8
MY3DLAYER
10
6.30000002678816
20
-8.000000020469857
30
3.9999999782843108
 70
     32
  0
VERTEX
  8
MY3DLAYER
10
6.300000003084362
20
-7.999999984500803
30
-6.0000000289347115
 70
     32
  0
VERTEX
  8
MY3DLAYER
10
6.357926098366932
20
-7.560007607823095
30
-6.000000027489412
 70
     32
  0
VERTEX
  8
MY3DLAYER
10
6.357926122070726
20
-7.560007643792148
30
3.999999979729611
 70
     32
  0
SEQEND
  0
POLYLINE
 8
Group#11
 66
     1
70
    8
 10
0.0
 20
 0.0
 30
0.0
  0
VERTEX
  8
MY3DLAYER
10
6.30000002678816
20
-8.000000020469857
30
3.9999999782843108
 70
     32
  0
VERTEX
  8
MY3DLAYER
10
6.357926122122762
20
-8.439992397140719
30
3.9999999765643905
 70
     32
  0
VERTEX
  8
MY3DLAYER
10
6.357926098418968
20
-8.439992361171665
30
-6.000000030654632
 70
     32
  0
VERTEX
  8
MY3DLAYER
10
6.300000003084362
20
-7.999999984500803
30
-6.0000000289347115
 70
     32
  0
VERTEX
  8
MY3DLAYER
10
6.30000002678816
20
-8.000000020469857
30
3.9999999782843108
 70
     32
  0
SEQEND
  0
POLYLINE
 8
Group#11
 66
     1
70
    8
 10
0.0
 20
 0.0
 30
0.0
  0
VERTEX
  8
MY3DLAYER
10
6.357926122122762
20
-8.439992397140719
30
3.9999999765643905
 70
     32
  0
VERTEX
  8
MY3DLAYER
10
6.527756840404877
20
-8.850000020456386
30
3.999999974687071
 70
     32
  0
VERTEX
  8
MY3DLAYER
10
6.527756816701084
20
-8.849999984487335
30
-6.000000032531951
 70
     32
  0
VERTEX
  8
MY3DLAYER
10
6.357926098418968
20
-8.439992361171665
30
-6.000000030654632
 70
     32
  0
VERTEX
  8
MY3DLAYER
10
6.357926122122762
20
-8.439992397140719
30
3.9999999765643905
 70
     32
  0
SEQEND
  0
POLYLINE
 8
Group#11
 66
     1
70
    8
 10
0.0
 20
 0.0
 30
0.0
  0
VERTEX
  8
MY3DLAYER
10
6.527756840404877
20
-8.850000020456386
30
3.999999974687071
 70
     32
  0
VERTEX
  8
MY3DLAYER
10
6.797918498842111
20
-9.202081548457544
30
3.9999999727802775
 70
     32
  0
VERTEX
  8
MY3DLAYER
10
6.797918475138317
20
-9.20208151248849
30
-6.000000034438745
 70
     32
  0
VERTEX
  8
MY3DLAYER
10
6.527756816701084
20
-8.849999984487335
30
-6.000000032531951
 70
     32
  0
VERTEX
  8
MY3DLAYER
10
6.527756840404877
20
-8.850000020456386
30
3.999999974687071
 70
     32
  0
SEQEND
  0
POLYLINE
 8
Group#11
 66
     1
70
    8
 10
0.0
 20
 0.0
 30
0.0
  0
VERTEX
  8
MY3DLAYER
10
6.797918498842111
20
-9.202081548457544
30
3.9999999727802775
 70
     32
  0
VERTEX
  8
MY3DLAYER
10
7.150000026875218
20
-9.472243206853141
30
3.9999999709739646
 70
     32
  0
VERTEX
  8
MY3DLAYER
10
7.150000003171424
20
-9.472243170884088
30
-6.000000036245058
 70
     32
  0
VERTEX
  8
MY3DLAYER
10
6.797918475138317
20
-9.20208151248849
30
-6.000000034438745
 70
     32
  0
VERTEX
  8
MY3DLAYER
10
6.797918498842111
20
-9.202081548457544
30
3.9999999727802775
 70
     32
  0
SEQEND
  0
POLYLINE
 8
Group#11
 66
     1
70
    8
 10
0.0
 20
 0.0
 30
0.0
  0
VERTEX
  8
MY3DLAYER
10
7.150000026875218
20
-9.472243206853141
30
3.9999999709739646
 70
     32
  0
VERTEX
  8
MY3DLAYER
10
7.5600076502109745
20
-9.642073925086766
30
3.9999999693912303
 70
     32
  0
VERTEX
  8
MY3DLAYER
10
7.560007626507181
20
-9.642073889117713
30
-6.0000000378277925
 70
     32
  0
VERTEX
  8
MY3DLAYER
10
7.150000003171424
20
-9.472243170884088
30
-6.000000036245058
 70
     32
  0
VERTEX
  8
MY3DLAYER
10
7.150000026875218
20
-9.472243206853141
30
3.9999999709739646
 70
     32
  0
SEQEND
  0
POLYLINE
 8
Group#11
 66
     1
70
    8
 10
0.0
 20
 0.0
 30
0.0
  0
VERTEX
  8
MY3DLAYER
10
7.5600076502109745
20
-9.642073925086766
30
3.9999999693912303
 70
     32
  0
VERTEX
  8
MY3DLAYER
10
8.000000026888685
20
-9.700000020369334
30
3.999999968139921
 70
     32
  0
VERTEX
  8
MY3DLAYER
10
8.000000003184892
20
-9.69999998440028
30
-6.000000039079102
 70
     32
  0
VERTEX
  8
MY3DLAYER
10
7.560007626507181
20
-9.642073889117713
30
-6.0000000378277925
 70
     32
  0
VERTEX
  8
MY3DLAYER
10
7.5600076502109745
20
-9.642073925086766
30
3.9999999693912303
 70
     32
  0
SEQEND
  0
POLYLINE
 8
Group#11
 66
     1
70
    8
 10
0.0
 20
 0.0
 30
0.0
  0
VERTEX
  8
MY3DLAYER
10
8.000000026888685
20
-9.700000020369334
30
3.999999968139921
 70
     32
  0
VERTEX
  8
MY3DLAYER
10
8.439992403559547
20
-9.642073925034731
30
3.9999999673053237
 70
     32
  0
VERTEX
  8
MY3DLAYER
10
8.439992379855752
20
-9.642073889065678
30
-6.000000039913699
 70
     32
  0
VERTEX
  8
MY3DLAYER
10
8.000000003184892
20
-9.69999998440028
30
-6.000000039079102
 70
     32
  0
VERTEX
  8
MY3DLAYER
10
8.000000026888685
20
-9.700000020369334
30
3.999999968139921
 70
     32
  0
SEQEND
  0
POLYLINE
 8
Group#11
 66
     1
70
    8
 10
0.0
 20
 0.0
 30
0.0
  0
VERTEX
  8
MY3DLAYER
10
8.439992403559547
20
-9.642073925034731
30
3.9999999673053237
 70
     32
  0
VERTEX
  8
MY3DLAYER
10
8.850000026875218
20
-9.472243206752616
30
3.999999966944323
 70
     32
  0
VERTEX
  8
MY3DLAYER
10
8.850000003171424
20
-9.472243170783562
30
-6.000000040274699
 70
     32
  0
VERTEX
  8
MY3DLAYER
10
8.439992379855752
20
-9.642073889065678
30
-6.000000039913699
 70
     32
  0
VERTEX
  8
MY3DLAYER
10
8.439992403559547
20
-9.642073925034731
30
3.9999999673053237
 70
     32
  0
SEQEND
  0
POLYLINE
 8
Group#11
 66
     1
70
    8
 10
0.0
 20
 0.0
 30
0.0
  0
VERTEX
  8
MY3DLAYER
10
8.850000026875218
20
-9.472243206752616
30
3.999999966944323
 70
     32
  0
VERTEX
  8
MY3DLAYER
10
9.202081554876372
20
-9.20208154831538
30
3.9999999670814974
 70
     32
  0
VERTEX
  8
MY3DLAYER
10
9.20208153117258
20
-9.202081512346327
30
-6.000000040137525
 70
     32
  0
VERTEX
  8
MY3DLAYER
10
8.850000003171424
20
-9.472243170783562
30
-6.000000040274699
 70
     32
  0
VERTEX
  8
MY3DLAYER
10
8.850000026875218
20
-9.472243206752616
30
3.999999966944323
 70
     32
  0
SEQEND
  0
POLYLINE
 8
Group#11
 66
     1
70
    8
 10
0.0
 20
 0.0
 30
0.0
  0
VERTEX
  8
MY3DLAYER
10
9.202081554876372
20
-9.20208154831538
30
3.9999999670814974
 70
     32
  0
VERTEX
  8
MY3DLAYER
10
9.472243213271968
20
-8.850000020282273
30
3.999999967707519
 70
     32
  0
VERTEX
  8
MY3DLAYER
10
9.472243189568175
20
-8.849999984313222
30
-6.000000039511503
 70
     32
  0
VERTEX
  8
MY3DLAYER
10
9.20208153117258
20
-9.202081512346327
30
-6.000000040137525
 70
     32
  0
VERTEX
  8
MY3DLAYER
10
9.202081554876372
20
-9.20208154831538
30
3.9999999670814974
 70
     32
  0
SEQEND
  0
POLYLINE
 8
Group#11
 66
     1
70
    8
 10
0.0
 20
 0.0
 30
0.0
  0
VERTEX
  8
MY3DLAYER
10
9.472243213271968
20
-8.850000020282273
30
3.999999967707519
 70
     32
  0
VERTEX
  8
MY3DLAYER
10
9.642073931505593
20
-8.439992396946517
30
3.999999968779715
 70
     32
  0
VERTEX
  8
MY3DLAYER
10
9.6420739078018
20
-8.439992360977463
30
-6.000000038439308
 70
     32
  0
VERTEX
  8
MY3DLAYER
10
9.472243189568175
20
-8.849999984313222
30
-6.000000039511503
 70
     32
  0
VERTEX
  8
MY3DLAYER
10
9.472243213271968
20
-8.850000020282273
30
3.999999967707519
 70
     32
  0
SEQEND
  0
POLYLINE
 8
Group#11
 66
     1
70
    8
 10
0.0
 20
 0.0
 30
0.0
  0
VERTEX
  8
MY3DLAYER
10
9.642073931505593
20
-8.439992396946517
30
3.999999968779715
 70
     32
  0
VERTEX
  8
MY3DLAYER
10
9.700000026788159
20
-8.000000020268805
30
3.9999999702250157
 70
     32
  0
VERTEX
  8
MY3DLAYER
10
9.700000003084366
20
-7.999999984299752
30
-6.000000036994007
 70
     32
  0
VERTEX
  8
MY3DLAYER
10
9.6420739078018
20
-8.439992360977463
30
-6.000000038439308
 70
     32
  0
VERTEX
  8
MY3DLAYER
10
9.642073931505593
20
-8.439992396946517
30
3.999999968779715
 70
     32
  0
SEQEND
  0
POLYLINE
 8
Group#11
 66
     1
70
    8
 10
0.0
 20
 0.0
 30
0.0
  0
VERTEX
  8
MY3DLAYER
10
9.700000026788159
20
-8.000000020268805
30
3.9999999702250157
 70
     32
  0
VERTEX
  8
MY3DLAYER
10
9.642073931453558
20
-7.560007643597948
30
3.9999999719449355
 70
     32
  0
VERTEX
  8
MY3DLAYER
10
9.642073907749763
20
-7.560007607628895
30
-6.000000035274087
 70
     32
  0
VERTEX
  8
MY3DLAYER
10
9.700000003084366
20
-7.999999984299752
30
-6.000000036994007
 70
     32
  0
VERTEX
  8
MY3DLAYER
10
9.700000026788159
20
-8.000000020268805
30
3.9999999702250157
 70
     32
  0
SEQEND
  0
POLYLINE
 8
Group#11
 66
     1
70
    8
 10
0.0
 20
 0.0
 30
0.0
  0
VERTEX
  8
MY3DLAYER
10
9.642073931453558
20
-7.560007643597948
30
3.9999999719449355
 70
     32
  0
VERTEX
  8
MY3DLAYER
10
9.472243213171442
20
-7.150000020282274
30
3.999999973822255
 70
     32
  0
VERTEX
  8
MY3DLAYER
10
9.47224318946765
20
-7.149999984313221
30
-6.000000033396767
 70
     32
  0
VERTEX
  8
MY3DLAYER
10
9.642073907749763
20
-7.560007607628895
30
-6.000000035274087
 70
     32
  0
VERTEX
  8
MY3DLAYER
10
9.642073931453558
20
-7.560007643597948
30
3.9999999719449355
 70
     32
  0
SEQEND
  0
POLYLINE
 8
Group#11
 66
     1
70
    8
 10
0.0
 20
 0.0
 30
0.0
  0
VERTEX
  8
MY3DLAYER
10
50.68812382303472
20
-1.0641097133445853e-07
30
3.9999999197691727
 70
     32
  0
VERTEX
  8
MY3DLAYER
10
50.68812378825141
20
-110.50000028385733
30
3.9999997579274105
 70
     32
  0
VERTEX
  8
MY3DLAYER
10
50.688123786067536
20
-110.50000027042648
30
-6.000000242072597
 70
     32
  0
VERTEX
  8
MY3DLAYER
10
50.688123820850855
20
-9.298011957037388e-08
30
-6.000000080230832
 70
     32
  0
VERTEX
  8
MY3DLAYER
10
50.68812382303472
20
-1.0641097133445853e-07
30
3.9999999197691727
 70
     32
  0
SEQEND
  0
POLYLINE
 8
Group#11
 66
     1
70
    8
 10
0.0
 20
 0.0
 30
0.0
  0
VERTEX
  8
MY3DLAYER
10
2.6315098556765644e-08
20
-110.50000030185124
30
3.999999865019938
 70
     32
  0
VERTEX
  8
MY3DLAYER
10
50.68812378825141
20
-110.50000028385733
30
3.9999997579274105
 70
     32
  0
VERTEX
  8
MY3DLAYER
10
50.68812382303472
20
-1.0641097133445853e-07
30
3.9999999197691727
 70
     32
  0
VERTEX
  8
MY3DLAYER
10
2.6315098556765644e-08
20
-5.37234070563386e-09
30
3.9999999999999982
 70
     32
  0
VERTEX
  8
MY3DLAYER
10
2.6315098556765644e-08
20
-110.50000030185124
30
3.999999865019938
 70
     32
  0
SEQEND
  0
POLYLINE
 8
Group#11
 66
     1
70
    8
 10
0.0
 20
 0.0
 30
0.0
  0
VERTEX
  8
MY3DLAYER
10
8.983187343970007
20
-81.92224338181977
30
3.9999998195026687
 70
     32
  0
VERTEX
  8
MY3DLAYER
10
8.573179720645344
20
-82.09207410008013
30
3.999999819371168
 70
     32
  0
VERTEX
  8
MY3DLAYER
10
8.133187343971407
20
-82.15000019539139
30
3.9999998192300454
 70
     32
  0
VERTEX
  8
MY3DLAYER
10
7.6931949672967725
20
-82.09207410008545
30
3.9999998190889174
 70
     32
  0
VERTEX
  8
MY3DLAYER
10
7.2831873439700106
20
-81.92224338183009
30
3.9999998189574058
 70
     32
  0
VERTEX
  8
MY3DLAYER
10
6.931105815951247
20
-81.65208172341579
30
3.9999998188444716
 70
     32
  0
VERTEX
  8
MY3DLAYER
10
6.6609441575326995
20
-81.3000001954003
30
3.9999998187578085
 70
     32
  0
VERTEX
  8
MY3DLAYER
10
6.491113439272353
20
-80.88999257207563
30
3.9999998187033268
 70
     32
  0
VERTEX
  8
MY3DLAYER
10
6.433187343961112
20
-80.45000019540169
30
3.999999818684732
 70
     32
  0
VERTEX
  8
MY3DLAYER
10
6.4911134392670125
20
-80.01000781872706
30
3.999999818703304
 70
     32
  0
VERTEX
  8
MY3DLAYER
10
6.660944157522413
20
-79.60000019540031
30
3.9999998187577632
 70
     32
  0
VERTEX
  8
MY3DLAYER
10
6.931105815936689
20
-79.24791866738153
30
3.9999998188444095
 70
     32
  0
VERTEX
  8
MY3DLAYER
10
7.283187343952188
20
-78.97775700896297
30
3.9999998189573267
 70
     32
  0
VERTEX
  8
MY3DLAYER
10
7.693194967276875
20
-78.80792629070264
30
3.999999819088833
 70
     32
  0
VERTEX
  8
MY3DLAYER
10
8.133187343950787
20
-78.7500001953914
30
3.9999998192299553
 70
     32
  0
VERTEX
  8
MY3DLAYER
10
8.573179720625445
20
-78.80792629069728
30
3.9999998193710833
 70
     32
  0
VERTEX
  8
MY3DLAYER
10
8.983187343952185
20
-78.97775700895268
30
3.9999998195025954
 70
     32
  0
VERTEX
  8
MY3DLAYER
10
9.335268871970944
20
-79.24791866736697
30
3.9999998196155295
 70
     32
  0
VERTEX
  8
MY3DLAYER
10
9.605430530389496
20
-79.60000019538248
30
3.999999819702187
 70
     32
  0
VERTEX
  8
MY3DLAYER
10
9.77526124864986
20
-80.01000781870717
30
3.9999998197566744
 70
     32
  0
VERTEX
  8
MY3DLAYER
10
9.833187343961095
20
-80.45000019538108
30
3.9999998197752635
 70
     32
  0
VERTEX
  8
MY3DLAYER
10
9.775261248655179
20
-80.88999257205573
30
3.999999819756697
 70
     32
  0
VERTEX
  8
MY3DLAYER
10
9.605430530399788
20
-81.30000019538248
30
3.999999819702232
 70
     32
  0
VERTEX
  8
MY3DLAYER
10
9.335268871985518
20
-81.65208172340122
30
3.9999998196155913
 70
     32
  0
VERTEX
  8
MY3DLAYER
10
8.983187343970007
20
-81.92224338181977
30
3.9999998195026687
 70
     32
  0
SEQEND
  0
POLYLINE
 8
Group#11
 66
     1
70
    8
 10
0.0
 20
 0.0
 30
0.0
  0
VERTEX
  8
MY3DLAYER
10
41.04604990008031
20
-80.8899925718663
30
3.9999998310695735
 70
     32
  0
VERTEX
  8
MY3DLAYER
10
40.98812380476906
20
-80.45000019519237
30
3.9999998310509843
 70
     32
  0
VERTEX
  8
MY3DLAYER
10
41.04604990007498
20
-80.01000781851774
30
3.999999831069551
 70
     32
  0
VERTEX
  8
MY3DLAYER
10
41.21588061833037
20
-79.60000019519099
30
3.9999998311240157
 70
     32
  0
VERTEX
  8
MY3DLAYER
10
41.48604227674464
20
-79.24791866717221
30
3.999999831210656
 70
     32
  0
VERTEX
  8
MY3DLAYER
10
41.83812380476015
20
-78.97775700875367
30
3.999999831323579
 70
     32
  0
VERTEX
  8
MY3DLAYER
10
42.248131428084825
20
-78.80792629049333
30
3.9999998314550855
 70
     32
  0
VERTEX
  8
MY3DLAYER
10
42.68812380475876
20
-78.75000019518207
30
3.9999998315962078
 70
     32
  0
VERTEX
  8
MY3DLAYER
10
43.1281161814334
20
-78.80792629048797
30
3.99999983173733
 70
     32
  0
VERTEX
  8
MY3DLAYER
10
43.53812380476015
20
-78.97775700874338
30
3.999999831868842
 70
     32
  0
VERTEX
  8
MY3DLAYER
10
43.890205332778905
20
-79.24791866715766
30
3.999999831981776
 70
     32
  0
VERTEX
  8
MY3DLAYER
10
44.160366991197456
20
-79.60000019517317
30
3.9999998320684393
 70
     32
  0
VERTEX
  8
MY3DLAYER
10
44.33019770945782
20
-80.01000781849783
30
3.999999832122921
 70
     32
  0
VERTEX
  8
MY3DLAYER
10
44.388123804769066
20
-80.45000019517177
30
3.999999832141516
 70
     32
  0
VERTEX
  8
MY3DLAYER
10
44.33019770946315
20
-80.88999257184639
30
3.9999998321229437
 70
     32
  0
VERTEX
  8
MY3DLAYER
10
44.160366991207766
20
-81.30000019517315
30
3.9999998320684846
 70
     32
  0
VERTEX
  8
MY3DLAYER
10
43.890205332793485
20
-81.65208172319194
30
3.9999998319818384
 70
     32
  0
VERTEX
  8
MY3DLAYER
10
43.538123804777975
20
-81.92224338161049
30
3.999999831868921
 70
     32
  0
VERTEX
  8
MY3DLAYER
10
43.12811618145331
20
-82.09207409987083
30
3.999999831737415
 70
     32
  0
VERTEX
  8
MY3DLAYER
10
42.68812380477937
20
-82.15000019518209
30
3.9999998315962926
 70
     32
  0
VERTEX
  8
MY3DLAYER
10
42.24813142810472
20
-82.09207409987617
30
3.999999831455164
 70
     32
  0
VERTEX
  8
MY3DLAYER
10
41.83812380477797
20
-81.92224338162077
30
3.9999998313236524
 70
     32
  0
VERTEX
  8
MY3DLAYER
10
41.48604227675922
20
-81.65208172320649
30
3.9999998312107183
 70
     32
  0
VERTEX
  8
MY3DLAYER
10
41.21588061834068
20
-81.30000019519099
30
3.999999831124061
 70
     32
  0
VERTEX
  8
MY3DLAYER
10
41.04604990008031
20
-80.8899925718663
30
3.9999998310695735
 70
     32
  0
SEQEND
  0
POLYLINE
 8
Group#11
 66
     1
70
    8
 10
0.0
 20
 0.0
 30
0.0
  0
VERTEX
  8
MY3DLAYER
10
43.8902053326941
20
-65.24791866715823
30
3.999999831981167
 70
     32
  0
VERTEX
  8
MY3DLAYER
10
44.16036699111265
20
-65.6000001951737
30
3.99999983206783
 70
     32
  0
VERTEX
  8
MY3DLAYER
10
44.330197709372996
20
-66.0100078184984
30
3.999999832122312
 70
     32
  0
VERTEX
  8
MY3DLAYER
10
44.388123804684234
20
-66.45000019517232
30
3.9999998321409014
 70
     32
  0
VERTEX
  8
MY3DLAYER
10
44.330197709378325
20
-66.88999257184696
30
3.9999998321223345
 70
     32
  0
VERTEX
  8
MY3DLAYER
10
44.16036699112292
20
-67.30000019517371
30
3.9999998320678753
 70
     32
  0
VERTEX
  8
MY3DLAYER
10
43.890205332708646
20
-67.65208172319248
30
3.999999831981229
 70
     32
  0
VERTEX
  8
MY3DLAYER
10
43.53812380469316
20
-67.92224338161104
30
3.9999998318683065
 70
     32
  0
VERTEX
  8
MY3DLAYER
10
43.12811618136846
20
-68.09207409987135
30
3.9999998317368055
 70
     32
  0
VERTEX
  8
MY3DLAYER
10
42.688123804694534
20
-68.15000019518263
30
3.9999998315956833
 70
     32
  0
VERTEX
  8
MY3DLAYER
10
42.24813142801989
20
-68.09207409987671
30
3.9999998314545553
 70
     32
  0
VERTEX
  8
MY3DLAYER
10
41.83812380469315
20
-67.92224338162129
30
3.999999831323043
 70
     32
  0
VERTEX
  8
MY3DLAYER
10
41.48604227667438
20
-67.652081723207
30
3.999999831210109
 70
     32
  0
VERTEX
  8
MY3DLAYER
10
41.215880618255824
20
-67.30000019519153
30
3.999999831123446
 70
     32
  0
VERTEX
  8
MY3DLAYER
10
41.04604989999549
20
-66.88999257186684
30
3.999999831068964
 70
     32
  0
VERTEX
  8
MY3DLAYER
10
40.98812380468423
20
-66.4500001951929
30
3.999999831050375
 70
     32
  0
VERTEX
  8
MY3DLAYER
10
41.04604989999016
20
-66.01000781851828
30
3.9999998310689415
 70
     32
  0
VERTEX
  8
MY3DLAYER
10
41.215880618245556
20
-65.60000019519153
30
3.999999831123401
 70
     32
  0
VERTEX
  8
MY3DLAYER
10
41.48604227665983
20
-65.24791866717275
30
3.9999998312100473
 70
     32
  0
VERTEX
  8
MY3DLAYER
10
41.83812380467534
20
-64.97775700875418
30
3.99999983132297
 70
     32
  0
VERTEX
  8
MY3DLAYER
10
42.24813142800001
20
-64.80792629049387
30
3.9999998314544705
 70
     32
  0
VERTEX
  8
MY3DLAYER
10
42.68812380467396
20
-64.75000019518261
30
3.999999831595593
 70
     32
  0
VERTEX
  8
MY3DLAYER
10
43.12811618134858
20
-64.80792629048851
30
3.999999831736721
 70
     32
  0
VERTEX
  8
MY3DLAYER
10
43.53812380467534
20
-64.97775700874394
30
3.999999831868233
 70
     32
  0
VERTEX
  8
MY3DLAYER
10
43.8902053326941
20
-65.24791866715823
30
3.999999831981167
 70
     32
  0
SEQEND
  0
POLYLINE
 8
Group#11
 66
     1
70
    8
 10
0.0
 20
 0.0
 30
0.0
  0
VERTEX
  8
MY3DLAYER
10
9.335268871886113
20
-65.24791866736749
30
3.9999998196149202
 70
     32
  0
VERTEX
  8
MY3DLAYER
10
9.605430530304654
20
-65.60000019538302
30
3.9999998197015834
 70
     32
  0
VERTEX
  8
MY3DLAYER
10
9.775261248565007
20
-66.0100078187077
30
3.999999819756065
 70
     32
  0
VERTEX
  8
MY3DLAYER
10
9.833187343876252
20
-66.45000019538163
30
3.9999998197746547
 70
     32
  0
VERTEX
  8
MY3DLAYER
10
9.775261248570347
20
-66.88999257205627
30
3.9999998197560878
 70
     32
  0
VERTEX
  8
MY3DLAYER
10
9.605430530314953
20
-67.30000019538302
30
3.9999998197016287
 70
     32
  0
VERTEX
  8
MY3DLAYER
10
9.33526887190067
20
-67.65208172340175
30
3.9999998196149824
 70
     32
  0
VERTEX
  8
MY3DLAYER
10
8.983187343885172
20
-67.92224338182031
30
3.9999998195020594
 70
     32
  0
VERTEX
  8
MY3DLAYER
10
8.573179720560496
20
-68.09207410008068
30
3.999999819370559
 70
     32
  0
VERTEX
  8
MY3DLAYER
10
8.133187343886572
20
-68.15000019539194
30
3.9999998192294366
 70
     32
  0
VERTEX
  8
MY3DLAYER
10
7.693194967211926
20
-68.092074100086
30
3.9999998190883086
 70
     32
  0
VERTEX
  8
MY3DLAYER
10
7.283187343885164
20
-67.92224338183063
30
3.9999998189567965
 70
     32
  0
VERTEX
  8
MY3DLAYER
10
6.9311058158664105
20
-67.65208172341634
30
3.9999998188438624
 70
     32
  0
VERTEX
  8
MY3DLAYER
10
6.660944157447864
20
-67.30000019540084
30
3.9999998187571992
 70
     32
  0
VERTEX
  8
MY3DLAYER
10
6.491113439187512
20
-66.88999257207617
30
3.9999998187027175
 70
     32
  0
VERTEX
  8
MY3DLAYER
10
6.433187343876237
20
-66.45000019540224
30
3.9999998186841283
 70
     32
  0
VERTEX
  8
MY3DLAYER
10
6.491113439182176
20
-66.0100078187276
30
3.999999818702695
 70
     32
  0
VERTEX
  8
MY3DLAYER
10
6.66094415743756
20
-65.60000019540085
30
3.9999998187571544
 70
     32
  0
VERTEX
  8
MY3DLAYER
10
6.931105815851848
20
-65.24791866738208
30
3.9999998188438006
 70
     32
  0
VERTEX
  8
MY3DLAYER
10
7.283187343867352
20
-64.97775700896352
30
3.999999818956723
 70
     32
  0
VERTEX
  8
MY3DLAYER
10
7.693194967192016
20
-64.80792629070315
30
3.9999998190882238
 70
     32
  0
VERTEX
  8
MY3DLAYER
10
8.133187343865952
20
-64.75000019539195
30
3.9999998192293464
 70
     32
  0
VERTEX
  8
MY3DLAYER
10
8.573179720540587
20
-64.80792629069784
30
3.9999998193704744
 70
     32
  0
VERTEX
  8
MY3DLAYER
10
8.98318734386735
20
-64.97775700895323
30
3.999999819501986
 70
     32
  0
VERTEX
  8
MY3DLAYER
10
9.335268871886113
20
-65.24791866736749
30
3.9999998196149202
 70
     32
  0
SEQEND
  0
POLYLINE
 8
Group#11
 66
     1
70
    8
 10
0.0
 20
 0.0
 30
0.0
  0
VERTEX
  8
MY3DLAYER
10
42.24813139310632
20
-9.64207391334806
30
3.999999864103507
 70
     32
  0
VERTEX
  8
MY3DLAYER
10
41.83812376959773
20
-9.472243195531684
30
3.999999865686241
 70
     32
  0
VERTEX
  8
MY3DLAYER
10
41.486042241289695
20
-9.202081537494388
30
3.9999998674925537
 70
     32
  0
VERTEX
  8
MY3DLAYER
10
41.21588058249416
20
-8.850000009768166
30
3.9999998693993475
 70
     32
  0
VERTEX
  8
MY3DLAYER
10
41.04604986379479
20
-8.439992386625326
30
3.9999998712766667
 70
     32
  0
VERTEX
  8
MY3DLAYER
10
40.98812376801242
20
-8.000000010013416
30
3.999999872996587
 70
     32
  0
VERTEX
  8
MY3DLAYER
10
41.046049862847234
20
-7.5600076332767525
30
3.999999874441887
 70
     32
  0
VERTEX
  8
MY3DLAYER
10
41.2158805806636
20
-7.150000009768167
30
3.9999998755140838
 70
     32
  0
VERTEX
  8
MY3DLAYER
10
41.486042238700904
20
-6.797918481460129
30
3.999999876140105
 70
     32
  0
VERTEX
  8
MY3DLAYER
10
41.838123766427124
20
-6.527756822664592
30
3.9999998762772795
 70
     32
  0
VERTEX
  8
MY3DLAYER
10
42.24813138956997
20
-6.3579261039652275
30
3.9999998759162785
 70
     32
  0
VERTEX
  8
MY3DLAYER
10
42.688123766181874
20
-6.300000008182863
30
3.999999875081681
 70
     32
  0
VERTEX
  8
MY3DLAYER
10
43.128116142918536
20
-6.357926103017665
30
3.999999873830372
 70
     32
  0
VERTEX
  8
MY3DLAYER
10
43.53812376642712
20
-6.527756820834039
30
3.9999998722476375
 70
     32
  0
VERTEX
  8
MY3DLAYER
10
43.89020529473516
20
-6.797918478871337
30
3.999999870441325
 70
     32
  0
VERTEX
  8
MY3DLAYER
10
44.1603669535307
20
-7.1500000065975575
30
3.9999998685345313
 70
     32
  0
VERTEX
  8
MY3DLAYER
10
44.330197672230064
20
-7.560007629740399
30
3.999999866657212
 70
     32
  0
VERTEX
  8
MY3DLAYER
10
44.38812376801243
20
-8.000000006352309
30
3.999999864937292
 70
     32
  0
VERTEX
  8
MY3DLAYER
10
44.33019767317762
20
-8.43999238308897
30
3.9999998634919915
 70
     32
  0
VERTEX
  8
MY3DLAYER
10
44.16036695536125
20
-8.850000006597558
30
3.999999862419795
 70
     32
  0
VERTEX
  8
MY3DLAYER
10
43.89020529732395
20
-9.202081534905597
30
3.9999998617937735
 70
     32
  0
VERTEX
  8
MY3DLAYER
10
43.53812376959773
20
-9.472243193701134
30
3.9999998616565993
 70
     32
  0
VERTEX
  8
MY3DLAYER
10
43.12811614645489
20
-9.642073912400498
30
3.9999998620176003
 70
     32
  0
VERTEX
  8
MY3DLAYER
10
42.68812376984298
20
-9.700000008182862
30
3.9999998628521976
 70
     32
  0
VERTEX
  8
MY3DLAYER
10
42.24813139310632
20
-9.64207391334806
30
3.999999864103507
 70
     32
  0
SEQEND
  0
POLYLINE
 8
Group#11
 66
     1
70
    8
 10
0.0
 20
 0.0
 30
0.0
  0
VERTEX
  8
MY3DLAYER
10
9.202081555408567
20
-18.202081523503114
30
3.9999999018335077
 70
     32
  0
VERTEX
  8
MY3DLAYER
10
9.071928504455991
20
-18.301951472079054
30
3.999999907370602
 70
     32
  0
VERTEX
  8
MY3DLAYER
10
8.850000027407411
20
-18.472243181940346
30
3.9999999016963335
 70
     32
  0
VERTEX
  8
MY3DLAYER
10
8.439992404091738
20
-18.642073900222464
30
3.999999902057334
 70
     32
  0
VERTEX
  8
MY3DLAYER
10
8.00000002742088
20
-18.699999995557068
30
3.9999999028919313
 70
     32
  0
VERTEX
  8
MY3DLAYER
10
7.560007650743168
20
-18.6420739002745
30
3.9999999041432406
 70
     32
  0
VERTEX
  8
MY3DLAYER
10
7.150000027407412
20
-18.472243182040874
30
3.999999905725975
 70
     32
  0
VERTEX
  8
MY3DLAYER
10
6.797918499374306
20
-18.20208152364528
30
3.999999907532288
 70
     32
  0
VERTEX
  8
MY3DLAYER
10
6.527756840937071
20
-17.849999995644122
30
3.9999999094390812
 70
     32
  0
VERTEX
  8
MY3DLAYER
10
6.3579261226549555
20
-17.43999237232845
30
3.999999911316401
 70
     32
  0
VERTEX
  8
MY3DLAYER
10
6.300000027320354
20
-16.999999995657593
30
3.999999913036321
 70
     32
  0
VERTEX
  8
MY3DLAYER
10
6.35792612260292
20
-16.56000761897988
30
3.9999999144816214
 70
     32
  0
VERTEX
  8
MY3DLAYER
10
6.527756840836546
20
-16.149999995644123
30
3.999999915553818
 70
     32
  0
VERTEX
  8
MY3DLAYER
10
6.797918499232141
20
-15.797918467611018
30
3.999999916179839
 70
     32
  0
VERTEX
  8
MY3DLAYER
10
7.150000027233296
20
-15.527756809173782
30
3.9999999163170137
 70
     32
  0
VERTEX
  8
MY3DLAYER
10
7.560007650548968
20
-15.357926090891668
30
3.9999999159560127
 70
     32
  0
VERTEX
  8
MY3DLAYER
10
8.000000027219828
20
-15.299999995557068
30
3.9999999151214154
 70
     32
  0
VERTEX
  8
MY3DLAYER
10
8.43999240389754
20
-15.357926090839632
30
3.999999913870106
 70
     32
  0
VERTEX
  8
MY3DLAYER
10
8.850000027233296
20
-15.527756809073258
30
3.9999999122873717
 70
     32
  0
VERTEX
  8
MY3DLAYER
10
9.202081555266401
20
-15.797918467468854
30
3.999999910481059
 70
     32
  0
VERTEX
  8
MY3DLAYER
10
9.472243213703637
20
-16.14999999547001
30
3.9999999085742655
 70
     32
  0
VERTEX
  8
MY3DLAYER
10
9.642073931985752
20
-16.560007618785683
30
3.999999906696946
 70
     32
  0
VERTEX
  8
MY3DLAYER
10
9.700000027320353
20
-16.99999999545654
30
3.999999904977026
 70
     32
  0
VERTEX
  8
MY3DLAYER
10
9.642073932037787
20
-17.439992372134252
30
3.9999999035317253
 70
     32
  0
VERTEX
  8
MY3DLAYER
10
9.472243213804163
20
-17.849999995470007
30
3.999999902459529
 70
     32
  0
VERTEX
  8
MY3DLAYER
10
9.202081555408567
20
-18.202081523503114
30
3.9999999018335077
 70
     32
  0
SEQEND
  0
POLYLINE
 8
Group#11
 66
     1
70
    8
 10
0.0
 20
 0.0
 30
0.0
  0
VERTEX
  8
MY3DLAYER
10
7.150000026701102
20
-6.527756833986049
30
3.9999999815650034
 70
     32
  0
VERTEX
  8
MY3DLAYER
10
7.560007650016774
20
-6.357926115703935
30
3.9999999812039913
 70
     32
  0
VERTEX
  8
MY3DLAYER
10
8.000000026687633
20
-6.300000020369334
30
3.999999980369405
 70
     32
  0
VERTEX
  8
MY3DLAYER
10
8.439992403365345
20
-6.357926115651899
30
3.999999979118096
 70
     32
  0
VERTEX
  8
MY3DLAYER
10
8.850000026701101
20
-6.527756833885523
30
3.9999999775353614
 70
     32
  0
VERTEX
  8
MY3DLAYER
10
9.202081554734209
20
-6.797918492281118
30
3.9999999757290485
 70
     32
  0
VERTEX
  8
MY3DLAYER
10
9.472243213171442
20
-7.150000020282274
30
3.999999973822255
 70
     32
  0
VERTEX
  8
MY3DLAYER
10
9.642073931453558
20
-7.560007643597948
30
3.9999999719449355
 70
     32
  0
VERTEX
  8
MY3DLAYER
10
9.700000026788159
20
-8.000000020268805
30
3.9999999702250157
 70
     32
  0
VERTEX
  8
MY3DLAYER
10
9.642073931505593
20
-8.439992396946517
30
3.999999968779715
 70
     32
  0
VERTEX
  8
MY3DLAYER
10
9.472243213271968
20
-8.850000020282273
30
3.999999967707519
 70
     32
  0
VERTEX
  8
MY3DLAYER
10
9.202081554876372
20
-9.20208154831538
30
3.9999999670814974
 70
     32
  0
VERTEX
  8
MY3DLAYER
10
8.850000026875218
20
-9.472243206752616
30
3.999999966944323
 70
     32
  0
VERTEX
  8
MY3DLAYER
10
8.439992403559547
20
-9.642073925034731
30
3.9999999673053237
 70
     32
  0
VERTEX
  8
MY3DLAYER
10
8.000000026888685
20
-9.700000020369334
30
3.999999968139921
 70
     32
  0
VERTEX
  8
MY3DLAYER
10
7.5600076502109745
20
-9.642073925086766
30
3.9999999693912303
 70
     32
  0
VERTEX
  8
MY3DLAYER
10
7.150000026875218
20
-9.472243206853141
30
3.9999999709739646
 70
     32
  0
VERTEX
  8
MY3DLAYER
10
6.797918498842111
20
-9.202081548457544
30
3.9999999727802775
 70
     32
  0
VERTEX
  8
MY3DLAYER
10
6.527756840404877
20
-8.850000020456386
30
3.999999974687071
 70
     32
  0
VERTEX
  8
MY3DLAYER
10
6.357926122122762
20
-8.439992397140719
30
3.9999999765643905
 70
     32
  0
VERTEX
  8
MY3DLAYER
10
6.30000002678816
20
-8.000000020469857
30
3.9999999782843108
 70
     32
  0
VERTEX
  8
MY3DLAYER
10
6.357926122070726
20
-7.560007643792148
30
3.999999979729611
 70
     32
  0
VERTEX
  8
MY3DLAYER
10
6.527756840304351
20
-7.150000020456391
30
3.9999999808018076
 70
     32
  0
VERTEX
  8
MY3DLAYER
10
6.797918498699947
20
-6.797918492423284
30
3.9999999814278286
 70
     32
  0
VERTEX
  8
MY3DLAYER
10
7.150000026701102
20
-6.527756833986049
30
3.9999999815650034
 70
     32
  0
SEQEND
  0
POLYLINE
 8
Group#11
 66
     1
70
    8
 10
0.0
 20
 0.0
 30
0.0
  0
VERTEX
  8
MY3DLAYER
10
42.24813139926112
20
-15.357926099315272
30
3.9999998188694845
 70
     32
  0
VERTEX
  8
MY3DLAYER
10
42.68812377587303
20
-15.300000003532908
30
3.9999998180348872
 70
     32
  0
VERTEX
  8
MY3DLAYER
10
43.12811615260969
20
-15.35792609836771
30
3.9999998167835895
 70
     32
  0
VERTEX
  8
MY3DLAYER
10
43.538123776118276
20
-15.527756816184086
30
3.9999998152008436
 70
     32
  0
VERTEX
  8
MY3DLAYER
10
43.89020530442632
20
-15.79791847422138
30
3.999999813394531
 70
     32
  0
VERTEX
  8
MY3DLAYER
10
44.160366963221854
20
-16.150000001947603
30
3.9999998114877373
 70
     32
  0
VERTEX
  8
MY3DLAYER
10
44.33019768192121
20
-16.560007625090442
30
3.999999809610418
 70
     32
  0
VERTEX
  8
MY3DLAYER
10
44.38812377770358
20
-17.000000001702354
30
3.999999807890498
 70
     32
  0
VERTEX
  8
MY3DLAYER
10
44.33019768286878
20
-17.439992378439015
30
3.9999998064451976
 70
     32
  0
VERTEX
  8
MY3DLAYER
10
44.160366965052404
20
-17.850000001947603
30
3.999999805373001
 70
     32
  0
VERTEX
  8
MY3DLAYER
10
43.89020530701511
20
-18.20208153025564
30
3.9999998047469796
 70
     32
  0
VERTEX
  8
MY3DLAYER
10
43.53812377928889
20
-18.472243189051174
30
3.9999998046098053
 70
     32
  0
VERTEX
  8
MY3DLAYER
10
43.12811615614605
20
-18.642073907750543
30
3.9999998049708174
 70
     32
  0
VERTEX
  8
MY3DLAYER
10
42.68812377953413
20
-18.700000003532907
30
3.9999998058054147
 70
     32
  0
VERTEX
  8
MY3DLAYER
10
42.24813140279747
20
-18.642073908698105
30
3.999999807056713
 70
     32
  0
VERTEX
  8
MY3DLAYER
10
41.838123779288885
20
-18.472243190881727
30
3.9999998086394584
 70
     32
  0
VERTEX
  8
MY3DLAYER
10
41.486042250980844
20
-18.20208153284443
30
3.9999998104457712
 70
     32
  0
VERTEX
  8
MY3DLAYER
10
41.21588059218531
20
-17.85000000511821
30
3.9999998123525535
 70
     32
  0
VERTEX
  8
MY3DLAYER
10
41.04604987348595
20
-17.439992381975372
30
3.9999998142298843
 70
     32
  0
VERTEX
  8
MY3DLAYER
10
40.98812377770358
20
-17.00000000536346
30
3.999999815949793
 70
     32
  0
VERTEX
  8
MY3DLAYER
10
41.04604987253838
20
-16.5600076286268
30
3.999999817395105
 70
     32
  0
VERTEX
  8
MY3DLAYER
10
41.21588059035476
20
-16.150000005118212
30
3.999999818467301
 70
     32
  0
VERTEX
  8
MY3DLAYER
10
41.48604224839205
20
-15.797918476810173
30
3.9999998190933113
 70
     32
  0
VERTEX
  8
MY3DLAYER
10
41.83812377611827
20
-15.527756818014637
30
3.9999998192304966
 70
     32
  0
VERTEX
  8
MY3DLAYER
10
42.24813139926112
20
-15.357926099315272
30
3.9999998188694845
 70
     32
  0
SEQEND
  0
LINE
 8
Group#11
10
8.983187343952185
20
-78.97775700895268
30
3.9999998195025954
11
8.983187343970007
21
-78.80792629069728
31
3.9999998195026687
  0
POLYLINE
 8
Group#11
 66
     1
70
    8
 10
0.0
 20
 0.0
 30
0.0
  0
VERTEX
  8
MY3DLAYER
10
9.335268871970944
20
-79.24791866736697
30
3.9999998196155295
 70
     32
  0
VERTEX
  8
MY3DLAYER
10
8.983187343952185
20
-78.97775700895268
30
3.9999998195025954
 70
     32
  0
VERTEX
  8
MY3DLAYER
10
8.983187347159623
20
-78.97775700895295
30
-6.000000180497405
 70
     32
  0
VERTEX
  8
MY3DLAYER
10
9.335268875178382
20
-79.24791866736723
30
-6.000000180384471
 70
     32
  0
VERTEX
  8
MY3DLAYER
10
9.335268871970944
20
-79.24791866736697
30
3.9999998196155295
 70
     32
  0
SEQEND
  0
POLYLINE
 8
Group#11
 66
     1
70
    8
 10
0.0
 20
 0.0
 30
0.0
  0
VERTEX
  8
MY3DLAYER
10
8.983187343952185
20
-78.97775700895268
30
3.9999998195025954
 70
     32
  0
VERTEX
  8
MY3DLAYER
10
8.573179720625445
20
-78.80792629069728
30
3.9999998193710833
 70
     32
  0
VERTEX
  8
MY3DLAYER
10
8.573179723832883
20
-78.80792629069755
30
-6.000000180628916
 70
     32
  0
VERTEX
  8
MY3DLAYER
10
8.983187347159623
20
-78.97775700895295
30
-6.000000180497405
 70
     32
  0
VERTEX
  8
MY3DLAYER
10
8.983187343952185
20
-78.97775700895268
30
3.9999998195025954
 70
     32
  0
SEQEND
  0
POLYLINE
 8
Group#11
 66
     1
70
    8
 10
0.0
 20
 0.0
 30
0.0
  0
VERTEX
  8
MY3DLAYER
10
8.573179720625445
20
-78.80792629069728
30
3.9999998193710833
 70
     32
  0
VERTEX
  8
MY3DLAYER
10
8.133187343950787
20
-78.7500001953914
30
3.9999998192299553
 70
     32
  0
VERTEX
  8
MY3DLAYER
10
8.133187347158227
20
-78.75000019539165
30
-6.000000180770044
 70
     32
  0
VERTEX
  8
MY3DLAYER
10
8.573179723832883
20
-78.80792629069755
30
-6.000000180628916
 70
     32
  0
VERTEX
  8
MY3DLAYER
10
8.573179720625445
20
-78.80792629069728
30
3.9999998193710833
 70
     32
  0
SEQEND
  0
POLYLINE
 8
Group#11
 66
     1
70
    8
 10
0.0
 20
 0.0
 30
0.0
  0
VERTEX
  8
MY3DLAYER
10
8.133187343950787
20
-78.7500001953914
30
3.9999998192299553
 70
     32
  0
VERTEX
  8
MY3DLAYER
10
7.693194967276875
20
-78.80792629070264
30
3.999999819088833
 70
     32
  0
VERTEX
  8
MY3DLAYER
10
7.6931949704843134
20
-78.8079262907029
30
-6.000000180911167
 70
     32
  0
VERTEX
  8
MY3DLAYER
10
8.133187347158227
20
-78.75000019539165
30
-6.000000180770044
 70
     32
  0
VERTEX
  8
MY3DLAYER
10
8.133187343950787
20
-78.7500001953914
30
3.9999998192299553
 70
     32
  0
SEQEND
  0
POLYLINE
 8
Group#11
 66
     1
70
    8
 10
0.0
 20
 0.0
 30
0.0
  0
VERTEX
  8
MY3DLAYER
10
7.693194967276875
20
-78.80792629070264
30
3.999999819088833
 70
     32
  0
VERTEX
  8
MY3DLAYER
10
7.283187343952188
20
-78.97775700896297
30
3.9999998189573267
 70
     32
  0
VERTEX
  8
MY3DLAYER
10
7.283187347159626
20
-78.97775700896324
30
-6.000000181042673
 70
     32
  0
VERTEX
  8
MY3DLAYER
10
7.6931949704843134
20
-78.8079262907029
30
-6.000000180911167
 70
     32
  0
VERTEX
  8
MY3DLAYER
10
7.693194967276875
20
-78.80792629070264
30
3.999999819088833
 70
     32
  0
SEQEND
  0
POLYLINE
 8
Group#11
 66
     1
70
    8
 10
0.0
 20
 0.0
 30
0.0
  0
VERTEX
  8
MY3DLAYER
10
7.283187343952188
20
-78.97775700896297
30
3.9999998189573267
 70
     32
  0
VERTEX
  8
MY3DLAYER
10
6.931105815936689
20
-79.24791866738153
30
3.9999998188444095
 70
     32
  0
VERTEX
  8
MY3DLAYER
10
6.931105819144128
20
-79.24791866738178
30
-6.00000018115559
 70
     32
  0
VERTEX
  8
MY3DLAYER
10
7.283187347159626
20
-78.97775700896324
30
-6.000000181042673
 70
     32
  0
VERTEX
  8
MY3DLAYER
10
7.283187343952188
20
-78.97775700896297
30
3.9999998189573267
 70
     32
  0
SEQEND
  0
POLYLINE
 8
Group#11
 66
     1
70
    8
 10
0.0
 20
 0.0
 30
0.0
  0
VERTEX
  8
MY3DLAYER
10
6.931105815936689
20
-79.24791866738153
30
3.9999998188444095
 70
     32
  0
VERTEX
  8
MY3DLAYER
10
6.660944157522413
20
-79.60000019540031
30
3.9999998187577632
 70
     32
  0
VERTEX
  8
MY3DLAYER
10
6.660944160729851
20
-79.60000019540057
30
-6.000000181242236
 70
     32
  0
VERTEX
  8
MY3DLAYER
10
6.931105819144128
20
-79.24791866738178
30
-6.00000018115559
 70
     32
  0
VERTEX
  8
MY3DLAYER
10
6.931105815936689
20
-79.24791866738153
30
3.9999998188444095
 70
     32
  0
SEQEND
  0
POLYLINE
 8
Group#11
 66
     1
70
    8
 10
0.0
 20
 0.0
 30
0.0
  0
VERTEX
  8
MY3DLAYER
10
6.660944157522413
20
-79.60000019540031
30
3.9999998187577632
 70
     32
  0
VERTEX
  8
MY3DLAYER
10
6.4911134392670125
20
-80.01000781872706
30
3.999999818703304
 70
     32
  0
VERTEX
  8
MY3DLAYER
10
6.49111344247445
20
-80.01000781872732
30
-6.000000181296696
 70
     32
  0
VERTEX
  8
MY3DLAYER
10
6.660944160729851
20
-79.60000019540057
30
-6.000000181242236
 70
     32
  0
VERTEX
  8
MY3DLAYER
10
6.660944157522413
20
-79.60000019540031
30
3.9999998187577632
 70
     32
  0
SEQEND
  0
POLYLINE
 8
Group#11
 66
     1
70
    8
 10
0.0
 20
 0.0
 30
0.0
  0
VERTEX
  8
MY3DLAYER
10
6.4911134392670125
20
-80.01000781872706
30
3.999999818703304
 70
     32
  0
VERTEX
  8
MY3DLAYER
10
6.433187343961112
20
-80.45000019540169
30
3.999999818684732
 70
     32
  0
VERTEX
  8
MY3DLAYER
10
6.433187347168551
20
-80.45000019540196
30
-6.000000181315269
 70
     32
  0
VERTEX
  8
MY3DLAYER
10
6.49111344247445
20
-80.01000781872732
30
-6.000000181296696
 70
     32
  0
VERTEX
  8
MY3DLAYER
10
6.4911134392670125
20
-80.01000781872706
30
3.999999818703304
 70
     32
  0
SEQEND
  0
POLYLINE
 8
Group#11
 66
     1
70
    8
 10
0.0
 20
 0.0
 30
0.0
  0
VERTEX
  8
MY3DLAYER
10
6.433187343961112
20
-80.45000019540169
30
3.999999818684732
 70
     32
  0
VERTEX
  8
MY3DLAYER
10
6.491113439272353
20
-80.88999257207563
30
3.9999998187033268
 70
     32
  0
VERTEX
  8
MY3DLAYER
10
6.491113442479792
20
-80.88999257207588
30
-6.000000181296674
 70
     32
  0
VERTEX
  8
MY3DLAYER
10
6.433187347168551
20
-80.45000019540196
30
-6.000000181315269
 70
     32
  0
VERTEX
  8
MY3DLAYER
10
6.433187343961112
20
-80.45000019540169
30
3.999999818684732
 70
     32
  0
SEQEND
  0
POLYLINE
 8
Group#11
 66
     1
70
    8
 10
0.0
 20
 0.0
 30
0.0
  0
VERTEX
  8
MY3DLAYER
10
6.491113439272353
20
-80.88999257207563
30
3.9999998187033268
 70
     32
  0
VERTEX
  8
MY3DLAYER
10
6.6609441575326995
20
-81.3000001954003
30
3.9999998187578085
 70
     32
  0
VERTEX
  8
MY3DLAYER
10
6.660944160740138
20
-81.30000019540056
30
-6.000000181242192
 70
     32
  0
VERTEX
  8
MY3DLAYER
10
6.491113442479792
20
-80.88999257207588
30
-6.000000181296674
 70
     32
  0
VERTEX
  8
MY3DLAYER
10
6.491113439272353
20
-80.88999257207563
30
3.9999998187033268
 70
     32
  0
SEQEND
  0
POLYLINE
 8
Group#11
 66
     1
70
    8
 10
0.0
 20
 0.0
 30
0.0
  0
VERTEX
  8
MY3DLAYER
10
6.6609441575326995
20
-81.3000001954003
30
3.9999998187578085
 70
     32
  0
VERTEX
  8
MY3DLAYER
10
6.931105815951247
20
-81.65208172341579
30
3.9999998188444716
 70
     32
  0
VERTEX
  8
MY3DLAYER
10
6.9311058191586845
20
-81.65208172341606
30
-6.000000181155529
 70
     32
  0
VERTEX
  8
MY3DLAYER
10
6.660944160740138
20
-81.30000019540056
30
-6.000000181242192
 70
     32
  0
VERTEX
  8
MY3DLAYER
10
6.6609441575326995
20
-81.3000001954003
30
3.9999998187578085
 70
     32
  0
SEQEND
  0
POLYLINE
 8
Group#11
 66
     1
70
    8
 10
0.0
 20
 0.0
 30
0.0
  0
VERTEX
  8
MY3DLAYER
10
6.931105815951247
20
-81.65208172341579
30
3.9999998188444716
 70
     32
  0
VERTEX
  8
MY3DLAYER
10
7.2831873439700106
20
-81.92224338183009
30
3.9999998189574058
 70
     32
  0
VERTEX
  8
MY3DLAYER
10
7.283187347177448
20
-81.92224338183034
30
-6.000000181042594
 70
     32
  0
VERTEX
  8
MY3DLAYER
10
6.9311058191586845
20
-81.65208172341606
30
-6.000000181155529
 70
     32
  0
VERTEX
  8
MY3DLAYER
10
6.931105815951247
20
-81.65208172341579
30
3.9999998188444716
 70
     32
  0
SEQEND
  0
POLYLINE
 8
Group#11
 66
     1
70
    8
 10
0.0
 20
 0.0
 30
0.0
  0
VERTEX
  8
MY3DLAYER
10
7.2831873439700106
20
-81.92224338183009
30
3.9999998189574058
 70
     32
  0
VERTEX
  8
MY3DLAYER
10
7.6931949672967725
20
-82.09207410008545
30
3.9999998190889174
 70
     32
  0
VERTEX
  8
MY3DLAYER
10
7.693194970504211
20
-82.09207410008571
30
-6.000000180911083
 70
     32
  0
VERTEX
  8
MY3DLAYER
10
7.283187347177448
20
-81.92224338183034
30
-6.000000181042594
 70
     32
  0
VERTEX
  8
MY3DLAYER
10
7.2831873439700106
20
-81.92224338183009
30
3.9999998189574058
 70
     32
  0
SEQEND
  0
POLYLINE
 8
Group#11
 66
     1
70
    8
 10
0.0
 20
 0.0
 30
0.0
  0
VERTEX
  8
MY3DLAYER
10
7.6931949672967725
20
-82.09207410008545
30
3.9999998190889174
 70
     32
  0
VERTEX
  8
MY3DLAYER
10
8.133187343971407
20
-82.15000019539139
30
3.9999998192300454
 70
     32
  0
VERTEX
  8
MY3DLAYER
10
8.133187347178845
20
-82.15000019539166
30
-6.000000180769955
 70
     32
  0
VERTEX
  8
MY3DLAYER
10
7.693194970504211
20
-82.09207410008571
30
-6.000000180911083
 70
     32
  0
VERTEX
  8
MY3DLAYER
10
7.6931949672967725
20
-82.09207410008545
30
3.9999998190889174
 70
     32
  0
SEQEND
  0
POLYLINE
 8
Group#11
 66
     1
70
    8
 10
0.0
 20
 0.0
 30
0.0
  0
VERTEX
  8
MY3DLAYER
10
8.133187343971407
20
-82.15000019539139
30
3.9999998192300454
 70
     32
  0
VERTEX
  8
MY3DLAYER
10
8.573179720645344
20
-82.09207410008013
30
3.999999819371168
 70
     32
  0
VERTEX
  8
MY3DLAYER
10
8.573179723852782
20
-82.0920741000804
30
-6.000000180628832
 70
     32
  0
VERTEX
  8
MY3DLAYER
10
8.133187347178845
20
-82.15000019539166
30
-6.000000180769955
 70
     32
  0
VERTEX
  8
MY3DLAYER
10
8.133187343971407
20
-82.15000019539139
30
3.9999998192300454
 70
     32
  0
SEQEND
  0
POLYLINE
 8
Group#11
 66
     1
70
    8
 10
0.0
 20
 0.0
 30
0.0
  0
VERTEX
  8
MY3DLAYER
10
8.573179720645344
20
-82.09207410008013
30
3.999999819371168
 70
     32
  0
VERTEX
  8
MY3DLAYER
10
8.983187343970007
20
-81.92224338181977
30
3.9999998195026687
 70
     32
  0
VERTEX
  8
MY3DLAYER
10
8.983187347177445
20
-81.92224338182002
30
-6.000000180497331
 70
     32
  0
VERTEX
  8
MY3DLAYER
10
8.573179723852782
20
-82.0920741000804
30
-6.000000180628832
 70
     32
  0
VERTEX
  8
MY3DLAYER
10
8.573179720645344
20
-82.09207410008013
30
3.999999819371168
 70
     32
  0
SEQEND
  0
POLYLINE
 8
Group#11
 66
     1
70
    8
 10
0.0
 20
 0.0
 30
0.0
  0
VERTEX
  8
MY3DLAYER
10
8.983187343970007
20
-81.92224338181977
30
3.9999998195026687
 70
     32
  0
VERTEX
  8
MY3DLAYER
10
9.335268871985518
20
-81.65208172340122
30
3.9999998196155913
 70
     32
  0
VERTEX
  8
MY3DLAYER
10
9.335268875192956
20
-81.65208172340148
30
-6.000000180384409
 70
     32
  0
VERTEX
  8
MY3DLAYER
10
8.983187347177445
20
-81.92224338182002
30
-6.000000180497331
 70
     32
  0
VERTEX
  8
MY3DLAYER
10
8.983187343970007
20
-81.92224338181977
30
3.9999998195026687
 70
     32
  0
SEQEND
  0
POLYLINE
 8
Group#11
 66
     1
70
    8
 10
0.0
 20
 0.0
 30
0.0
  0
VERTEX
  8
MY3DLAYER
10
9.335268871985518
20
-81.65208172340122
30
3.9999998196155913
 70
     32
  0
VERTEX
  8
MY3DLAYER
10
9.605430530399788
20
-81.30000019538248
30
3.999999819702232
 70
     32
  0
VERTEX
  8
MY3DLAYER
10
9.605430533607226
20
-81.30000019538274
30
-6.000000180297768
 70
     32
  0
VERTEX
  8
MY3DLAYER
10
9.335268875192956
20
-81.65208172340148
30
-6.000000180384409
 70
     32
  0
VERTEX
  8
MY3DLAYER
10
9.335268871985518
20
-81.65208172340122
30
3.9999998196155913
 70
     32
  0
SEQEND
  0
POLYLINE
 8
Group#11
 66
     1
70
    8
 10
0.0
 20
 0.0
 30
0.0
  0
VERTEX
  8
MY3DLAYER
10
9.605430530399788
20
-81.30000019538248
30
3.999999819702232
 70
     32
  0
VERTEX
  8
MY3DLAYER
10
9.775261248655179
20
-80.88999257205573
30
3.999999819756697
 70
     32
  0
VERTEX
  8
MY3DLAYER
10
9.775261251862617
20
-80.88999257205599
30
-6.000000180243303
 70
     32
  0
VERTEX
  8
MY3DLAYER
10
9.605430533607226
20
-81.30000019538274
30
-6.000000180297768
 70
     32
  0
VERTEX
  8
MY3DLAYER
10
9.605430530399788
20
-81.30000019538248
30
3.999999819702232
 70
     32
  0
SEQEND
  0
POLYLINE
 8
Group#11
 66
     1
70
    8
 10
0.0
 20
 0.0
 30
0.0
  0
VERTEX
  8
MY3DLAYER
10
9.775261248655179
20
-80.88999257205573
30
3.999999819756697
 70
     32
  0
VERTEX
  8
MY3DLAYER
10
9.833187343961095
20
-80.45000019538108
30
3.9999998197752635
 70
     32
  0
VERTEX
  8
MY3DLAYER
10
9.833187347168533
20
-80.45000019538135
30
-6.0000001802247365
 70
     32
  0
VERTEX
  8
MY3DLAYER
10
9.775261251862617
20
-80.88999257205599
30
-6.000000180243303
 70
     32
  0
VERTEX
  8
MY3DLAYER
10
9.775261248655179
20
-80.88999257205573
30
3.999999819756697
 70
     32
  0
SEQEND
  0
POLYLINE
 8
Group#11
 66
     1
70
    8
 10
0.0
 20
 0.0
 30
0.0
  0
VERTEX
  8
MY3DLAYER
10
9.833187343961095
20
-80.45000019538108
30
3.9999998197752635
 70
     32
  0
VERTEX
  8
MY3DLAYER
10
9.77526124864986
20
-80.01000781870717
30
3.9999998197566744
 70
     32
  0
VERTEX
  8
MY3DLAYER
10
9.775261251857298
20
-80.01000781870742
30
-6.000000180243326
 70
     32
  0
VERTEX
  8
MY3DLAYER
10
9.833187347168533
20
-80.45000019538135
30
-6.0000001802247365
 70
     32
  0
VERTEX
  8
MY3DLAYER
10
9.833187343961095
20
-80.45000019538108
30
3.9999998197752635
 70
     32
  0
SEQEND
  0
POLYLINE
 8
Group#11
 66
     1
70
    8
 10
0.0
 20
 0.0
 30
0.0
  0
VERTEX
  8
MY3DLAYER
10
9.77526124864986
20
-80.01000781870717
30
3.9999998197566744
 70
     32
  0
VERTEX
  8
MY3DLAYER
10
9.605430530389496
20
-79.60000019538248
30
3.999999819702187
 70
     32
  0
VERTEX
  8
MY3DLAYER
10
9.605430533596934
20
-79.60000019538273
30
-6.000000180297813
 70
     32
  0
VERTEX
  8
MY3DLAYER
10
9.775261251857298
20
-80.01000781870742
30
-6.000000180243326
 70
     32
  0
VERTEX
  8
MY3DLAYER
10
9.77526124864986
20
-80.01000781870717
30
3.9999998197566744
 70
     32
  0
SEQEND
  0
POLYLINE
 8
Group#11
 66
     1
70
    8
 10
0.0
 20
 0.0
 30
0.0
  0
VERTEX
  8
MY3DLAYER
10
9.605430530389496
20
-79.60000019538248
30
3.999999819702187
 70
     32
  0
VERTEX
  8
MY3DLAYER
10
9.335268871970944
20
-79.24791866736697
30
3.9999998196155295
 70
     32
  0
VERTEX
  8
MY3DLAYER
10
9.335268875178382
20
-79.24791866736723
30
-6.000000180384471
 70
     32
  0
VERTEX
  8
MY3DLAYER
10
9.605430533596934
20
-79.60000019538273
30
-6.000000180297813
 70
     32
  0
VERTEX
  8
MY3DLAYER
10
9.605430530389496
20
-79.60000019538248
30
3.999999819702187
 70
     32
  0
SEQEND
  0
POLYLINE
 8
Group#11
 66
     1
70
    8
 10
0.0
 20
 0.0
 30
0.0
  0
VERTEX
  8
MY3DLAYER
10
8.133187343886572
20
-68.15000019539194
30
3.9999998192294366
 70
     32
  0
VERTEX
  8
MY3DLAYER
10
8.573179720560496
20
-68.09207410008068
30
3.999999819370559
 70
     32
  0
VERTEX
  8
MY3DLAYER
10
8.573179723767936
20
-68.09207410008094
30
-6.000000180629441
 70
     32
  0
VERTEX
  8
MY3DLAYER
10
8.133187347094012
20
-68.1500001953922
30
-6.000000180770564
 70
     32
  0
VERTEX
  8
MY3DLAYER
10
8.133187343886572
20
-68.15000019539194
30
3.9999998192294366
 70
     32
  0
SEQEND
  0
POLYLINE
 8
Group#11
 66
     1
70
    8
 10
0.0
 20
 0.0
 30
0.0
  0
VERTEX
  8
MY3DLAYER
10
8.573179720560496
20
-68.09207410008068
30
3.999999819370559
 70
     32
  0
VERTEX
  8
MY3DLAYER
10
8.983187343885172
20
-67.92224338182031
30
3.9999998195020594
 70
     32
  0
VERTEX
  8
MY3DLAYER
10
8.983187347092612
20
-67.92224338182058
30
-6.00000018049794
 70
     32
  0
VERTEX
  8
MY3DLAYER
10
8.573179723767936
20
-68.09207410008094
30
-6.000000180629441
 70
     32
  0
VERTEX
  8
MY3DLAYER
10
8.573179720560496
20
-68.09207410008068
30
3.999999819370559
 70
     32
  0
SEQEND
  0
POLYLINE
 8
Group#11
 66
     1
70
    8
 10
0.0
 20
 0.0
 30
0.0
  0
VERTEX
  8
MY3DLAYER
10
8.983187343885172
20
-67.92224338182031
30
3.9999998195020594
 70
     32
  0
VERTEX
  8
MY3DLAYER
10
9.33526887190067
20
-67.65208172340175
30
3.9999998196149824
 70
     32
  0
VERTEX
  8
MY3DLAYER
10
9.33526887510811
20
-67.65208172340202
30
-6.000000180385018
 70
     32
  0
VERTEX
  8
MY3DLAYER
10
8.983187347092612
20
-67.92224338182058
30
-6.00000018049794
 70
     32
  0
VERTEX
  8
MY3DLAYER
10
8.983187343885172
20
-67.92224338182031
30
3.9999998195020594
 70
     32
  0
SEQEND
  0
POLYLINE
 8
Group#11
 66
     1
70
    8
 10
0.0
 20
 0.0
 30
0.0
  0
VERTEX
  8
MY3DLAYER
10
9.33526887190067
20
-67.65208172340175
30
3.9999998196149824
 70
     32
  0
VERTEX
  8
MY3DLAYER
10
9.605430530314953
20
-67.30000019538302
30
3.9999998197016287
 70
     32
  0
VERTEX
  8
MY3DLAYER
10
9.605430533522393
20
-67.30000019538329
30
-6.000000180298372
 70
     32
  0
VERTEX
  8
MY3DLAYER
10
9.33526887510811
20
-67.65208172340202
30
-6.000000180385018
 70
     32
  0
VERTEX
  8
MY3DLAYER
10
9.33526887190067
20
-67.65208172340175
30
3.9999998196149824
 70
     32
  0
SEQEND
  0
POLYLINE
 8
Group#11
 66
     1
70
    8
 10
0.0
 20
 0.0
 30
0.0
  0
VERTEX
  8
MY3DLAYER
10
9.605430530314953
20
-67.30000019538302
30
3.9999998197016287
 70
     32
  0
VERTEX
  8
MY3DLAYER
10
9.775261248570347
20
-66.88999257205627
30
3.9999998197560878
 70
     32
  0
VERTEX
  8
MY3DLAYER
10
9.775261251777787
20
-66.88999257205653
30
-6.000000180243912
 70
     32
  0
VERTEX
  8
MY3DLAYER
10
9.605430533522393
20
-67.30000019538329
30
-6.000000180298372
 70
     32
  0
VERTEX
  8
MY3DLAYER
10
9.605430530314953
20
-67.30000019538302
30
3.9999998197016287
 70
     32
  0
SEQEND
  0
POLYLINE
 8
Group#11
 66
     1
70
    8
 10
0.0
 20
 0.0
 30
0.0
  0
VERTEX
  8
MY3DLAYER
10
9.775261248570347
20
-66.88999257205627
30
3.9999998197560878
 70
     32
  0
VERTEX
  8
MY3DLAYER
10
9.833187343876252
20
-66.45000019538163
30
3.9999998197746547
 70
     32
  0
VERTEX
  8
MY3DLAYER
10
9.833187347083692
20
-66.45000019538189
30
-6.000000180225346
 70
     32
  0
VERTEX
  8
MY3DLAYER
10
9.775261251777787
20
-66.88999257205653
30
-6.000000180243912
 70
     32
  0
VERTEX
  8
MY3DLAYER
10
9.775261248570347
20
-66.88999257205627
30
3.9999998197560878
 70
     32
  0
SEQEND
  0
POLYLINE
 8
Group#11
 66
     1
70
    8
 10
0.0
 20
 0.0
 30
0.0
  0
VERTEX
  8
MY3DLAYER
10
9.833187343876252
20
-66.45000019538163
30
3.9999998197746547
 70
     32
  0
VERTEX
  8
MY3DLAYER
10
9.775261248565007
20
-66.0100078187077
30
3.999999819756065
 70
     32
  0
VERTEX
  8
MY3DLAYER
10
9.775261251772447
20
-66.01000781870796
30
-6.0000001802439344
 70
     32
  0
VERTEX
  8
MY3DLAYER
10
9.833187347083692
20
-66.45000019538189
30
-6.000000180225346
 70
     32
  0
VERTEX
  8
MY3DLAYER
10
9.833187343876252
20
-66.45000019538163
30
3.9999998197746547
 70
     32
  0
SEQEND
  0
POLYLINE
 8
Group#11
 66
     1
70
    8
 10
0.0
 20
 0.0
 30
0.0
  0
VERTEX
  8
MY3DLAYER
10
9.775261248565007
20
-66.0100078187077
30
3.999999819756065
 70
     32
  0
VERTEX
  8
MY3DLAYER
10
9.605430530304654
20
-65.60000019538302
30
3.9999998197015834
 70
     32
  0
VERTEX
  8
MY3DLAYER
10
9.605430533512093
20
-65.60000019538327
30
-6.000000180298416
 70
     32
  0
VERTEX
  8
MY3DLAYER
10
9.775261251772447
20
-66.01000781870796
30
-6.0000001802439344
 70
     32
  0
VERTEX
  8
MY3DLAYER
10
9.775261248565007
20
-66.0100078187077
30
3.999999819756065
 70
     32
  0
SEQEND
  0
POLYLINE
 8
Group#11
 66
     1
70
    8
 10
0.0
 20
 0.0
 30
0.0
  0
VERTEX
  8
MY3DLAYER
10
9.605430530304654
20
-65.60000019538302
30
3.9999998197015834
 70
     32
  0
VERTEX
  8
MY3DLAYER
10
9.335268871886113
20
-65.24791866736749
30
3.9999998196149202
 70
     32
  0
VERTEX
  8
MY3DLAYER
10
9.335268875093552
20
-65.24791866736776
30
-6.000000180385079
 70
     32
  0
VERTEX
  8
MY3DLAYER
10
9.605430533512093
20
-65.60000019538327
30
-6.000000180298416
 70
     32
  0
VERTEX
  8
MY3DLAYER
10
9.605430530304654
20
-65.60000019538302
30
3.9999998197015834
 70
     32
  0
SEQEND
  0
POLYLINE
 8
Group#11
 66
     1
70
    8
 10
0.0
 20
 0.0
 30
0.0
  0
VERTEX
  8
MY3DLAYER
10
9.335268871886113
20
-65.24791866736749
30
3.9999998196149202
 70
     32
  0
VERTEX
  8
MY3DLAYER
10
8.98318734386735
20
-64.97775700895323
30
3.999999819501986
 70
     32
  0
VERTEX
  8
MY3DLAYER
10
8.98318734707479
20
-64.97775700895349
30
-6.000000180498014
 70
     32
  0
VERTEX
  8
MY3DLAYER
10
9.335268875093552
20
-65.24791866736776
30
-6.000000180385079
 70
     32
  0
VERTEX
  8
MY3DLAYER
10
9.335268871886113
20
-65.24791866736749
30
3.9999998196149202
 70
     32
  0
SEQEND
  0
POLYLINE
 8
Group#11
 66
     1
70
    8
 10
0.0
 20
 0.0
 30
0.0
  0
VERTEX
  8
MY3DLAYER
10
8.98318734386735
20
-64.97775700895323
30
3.999999819501986
 70
     32
  0
VERTEX
  8
MY3DLAYER
10
8.573179720540587
20
-64.80792629069784
30
3.9999998193704744
 70
     32
  0
VERTEX
  8
MY3DLAYER
10
8.573179723748027
20
-64.8079262906981
30
-6.000000180629526
 70
     32
  0
VERTEX
  8
MY3DLAYER
10
8.98318734707479
20
-64.97775700895349
30
-6.000000180498014
 70
     32
  0
VERTEX
  8
MY3DLAYER
10
8.98318734386735
20
-64.97775700895323
30
3.999999819501986
 70
     32
  0
SEQEND
  0
POLYLINE
 8
Group#11
 66
     1
70
    8
 10
0.0
 20
 0.0
 30
0.0
  0
VERTEX
  8
MY3DLAYER
10
8.573179720540587
20
-64.80792629069784
30
3.9999998193704744
 70
     32
  0
VERTEX
  8
MY3DLAYER
10
8.133187343865952
20
-64.75000019539195
30
3.9999998192293464
 70
     32
  0
VERTEX
  8
MY3DLAYER
10
8.133187347073392
20
-64.7500001953922
30
-6.000000180770654
 70
     32
  0
VERTEX
  8
MY3DLAYER
10
8.573179723748027
20
-64.8079262906981
30
-6.000000180629526
 70
     32
  0
VERTEX
  8
MY3DLAYER
10
8.573179720540587
20
-64.80792629069784
30
3.9999998193704744
 70
     32
  0
SEQEND
  0
POLYLINE
 8
Group#11
 66
     1
70
    8
 10
0.0
 20
 0.0
 30
0.0
  0
VERTEX
  8
MY3DLAYER
10
8.133187343865952
20
-64.75000019539195
30
3.9999998192293464
 70
     32
  0
VERTEX
  8
MY3DLAYER
10
7.693194967192016
20
-64.80792629070315
30
3.9999998190882238
 70
     32
  0
VERTEX
  8
MY3DLAYER
10
7.693194970399456
20
-64.8079262907034
30
-6.000000180911776
 70
     32
  0
VERTEX
  8
MY3DLAYER
10
8.133187347073392
20
-64.7500001953922
30
-6.000000180770654
 70
     32
  0
VERTEX
  8
MY3DLAYER
10
8.133187343865952
20
-64.75000019539195
30
3.9999998192293464
 70
     32
  0
SEQEND
  0
POLYLINE
 8
Group#11
 66
     1
70
    8
 10
0.0
 20
 0.0
 30
0.0
  0
VERTEX
  8
MY3DLAYER
10
7.693194967192016
20
-64.80792629070315
30
3.9999998190882238
 70
     32
  0
VERTEX
  8
MY3DLAYER
10
7.283187343867352
20
-64.97775700896352
30
3.999999818956723
 70
     32
  0
VERTEX
  8
MY3DLAYER
10
7.283187347074792
20
-64.97775700896378
30
-6.000000181043276
 70
     32
  0
VERTEX
  8
MY3DLAYER
10
7.693194970399456
20
-64.8079262907034
30
-6.000000180911776
 70
     32
  0
VERTEX
  8
MY3DLAYER
10
7.693194967192016
20
-64.80792629070315
30
3.9999998190882238
 70
     32
  0
SEQEND
  0
POLYLINE
 8
Group#11
 66
     1
70
    8
 10
0.0
 20
 0.0
 30
0.0
  0
VERTEX
  8
MY3DLAYER
10
7.283187343867352
20
-64.97775700896352
30
3.999999818956723
 70
     32
  0
VERTEX
  8
MY3DLAYER
10
6.931105815851848
20
-65.24791866738208
30
3.9999998188438006
 70
     32
  0
VERTEX
  8
MY3DLAYER
10
6.931105819059288
20
-65.24791866738234
30
-6.000000181156199
 70
     32
  0
VERTEX
  8
MY3DLAYER
10
7.283187347074792
20
-64.97775700896378
30
-6.000000181043276
 70
     32
  0
VERTEX
  8
MY3DLAYER
10
7.283187343867352
20
-64.97775700896352
30
3.999999818956723
 70
     32
  0
SEQEND
  0
POLYLINE
 8
Group#11
 66
     1
70
    8
 10
0.0
 20
 0.0
 30
0.0
  0
VERTEX
  8
MY3DLAYER
10
6.931105815851848
20
-65.24791866738208
30
3.9999998188438006
 70
     32
  0
VERTEX
  8
MY3DLAYER
10
6.66094415743756
20
-65.60000019540085
30
3.9999998187571544
 70
     32
  0
VERTEX
  8
MY3DLAYER
10
6.660944160644999
20
-65.60000019540111
30
-6.000000181242846
 70
     32
  0
VERTEX
  8
MY3DLAYER
10
6.931105819059288
20
-65.24791866738234
30
-6.000000181156199
 70
     32
  0
VERTEX
  8
MY3DLAYER
10
6.931105815851848
20
-65.24791866738208
30
3.9999998188438006
 70
     32
  0
SEQEND
  0
POLYLINE
 8
Group#11
 66
     1
70
    8
 10
0.0
 20
 0.0
 30
0.0
  0
VERTEX
  8
MY3DLAYER
10
6.66094415743756
20
-65.60000019540085
30
3.9999998187571544
 70
     32
  0
VERTEX
  8
MY3DLAYER
10
6.491113439182176
20
-66.0100078187276
30
3.999999818702695
 70
     32
  0
VERTEX
  8
MY3DLAYER
10
6.491113442389616
20
-66.01000781872786
30
-6.000000181297305
 70
     32
  0
VERTEX
  8
MY3DLAYER
10
6.660944160644999
20
-65.60000019540111
30
-6.000000181242846
 70
     32
  0
VERTEX
  8
MY3DLAYER
10
6.66094415743756
20
-65.60000019540085
30
3.9999998187571544
 70
     32
  0
SEQEND
  0
POLYLINE
 8
Group#11
 66
     1
70
    8
 10
0.0
 20
 0.0
 30
0.0
  0
VERTEX
  8
MY3DLAYER
10
6.491113439182176
20
-66.0100078187276
30
3.999999818702695
 70
     32
  0
VERTEX
  8
MY3DLAYER
10
6.433187343876237
20
-66.45000019540224
30
3.9999998186841283
 70
     32
  0
VERTEX
  8
MY3DLAYER
10
6.433187347083677
20
-66.4500001954025
30
-6.000000181315872
 70
     32
  0
VERTEX
  8
MY3DLAYER
10
6.491113442389616
20
-66.01000781872786
30
-6.000000181297305
 70
     32
  0
VERTEX
  8
MY3DLAYER
10
6.491113439182176
20
-66.0100078187276
30
3.999999818702695
 70
     32
  0
SEQEND
  0
POLYLINE
 8
Group#11
 66
     1
70
    8
 10
0.0
 20
 0.0
 30
0.0
  0
VERTEX
  8
MY3DLAYER
10
6.433187343876237
20
-66.45000019540224
30
3.9999998186841283
 70
     32
  0
VERTEX
  8
MY3DLAYER
10
6.491113439187512
20
-66.88999257207617
30
3.9999998187027175
 70
     32
  0
VERTEX
  8
MY3DLAYER
10
6.491113442394951
20
-66.88999257207644
30
-6.000000181297282
 70
     32
  0
VERTEX
  8
MY3DLAYER
10
6.433187347083677
20
-66.4500001954025
30
-6.000000181315872
 70
     32
  0
VERTEX
  8
MY3DLAYER
10
6.433187343876237
20
-66.45000019540224
30
3.9999998186841283
 70
     32
  0
SEQEND
  0
POLYLINE
 8
Group#11
 66
     1
70
    8
 10
0.0
 20
 0.0
 30
0.0
  0
VERTEX
  8
MY3DLAYER
10
6.491113439187512
20
-66.88999257207617
30
3.9999998187027175
 70
     32
  0
VERTEX
  8
MY3DLAYER
10
6.660944157447864
20
-67.30000019540084
30
3.9999998187571992
 70
     32
  0
VERTEX
  8
MY3DLAYER
10
6.660944160655304
20
-67.30000019540111
30
-6.0000001812428
 70
     32
  0
VERTEX
  8
MY3DLAYER
10
6.491113442394951
20
-66.88999257207644
30
-6.000000181297282
 70
     32
  0
VERTEX
  8
MY3DLAYER
10
6.491113439187512
20
-66.88999257207617
30
3.9999998187027175
 70
     32
  0
SEQEND
  0
POLYLINE
 8
Group#11
 66
     1
70
    8
 10
0.0
 20
 0.0
 30
0.0
  0
VERTEX
  8
MY3DLAYER
10
6.660944157447864
20
-67.30000019540084
30
3.9999998187571992
 70
     32
  0
VERTEX
  8
MY3DLAYER
10
6.9311058158664105
20
-67.65208172341634
30
3.9999998188438624
 70
     32
  0
VERTEX
  8
MY3DLAYER
10
6.93110581907385
20
-67.6520817234166
30
-6.000000181156137
 70
     32
  0
VERTEX
  8
MY3DLAYER
10
6.660944160655304
20
-67.30000019540111
30
-6.0000001812428
 70
     32
  0
VERTEX
  8
MY3DLAYER
10
6.660944157447864
20
-67.30000019540084
30
3.9999998187571992
 70
     32
  0
SEQEND
  0
POLYLINE
 8
Group#11
 66
     1
70
    8
 10
0.0
 20
 0.0
 30
0.0
  0
VERTEX
  8
MY3DLAYER
10
6.9311058158664105
20
-67.65208172341634
30
3.9999998188438624
 70
     32
  0
VERTEX
  8
MY3DLAYER
10
7.283187343885164
20
-67.92224338183063
30
3.9999998189567965
 70
     32
  0
VERTEX
  8
MY3DLAYER
10
7.283187347092603
20
-67.92224338183088
30
-6.0000001810432035
 70
     32
  0
VERTEX
  8
MY3DLAYER
10
6.93110581907385
20
-67.6520817234166
30
-6.000000181156137
 70
     32
  0
VERTEX
  8
MY3DLAYER
10
6.9311058158664105
20
-67.65208172341634
30
3.9999998188438624
 70
     32
  0
SEQEND
  0
POLYLINE
 8
Group#11
 66
     1
70
    8
 10
0.0
 20
 0.0
 30
0.0
  0
VERTEX
  8
MY3DLAYER
10
7.283187343885164
20
-67.92224338183063
30
3.9999998189567965
 70
     32
  0
VERTEX
  8
MY3DLAYER
10
7.693194967211926
20
-68.092074100086
30
3.9999998190883086
 70
     32
  0
VERTEX
  8
MY3DLAYER
10
7.693194970419365
20
-68.09207410008625
30
-6.000000180911692
 70
     32
  0
VERTEX
  8
MY3DLAYER
10
7.283187347092603
20
-67.92224338183088
30
-6.0000001810432035
 70
     32
  0
VERTEX
  8
MY3DLAYER
10
7.283187343885164
20
-67.92224338183063
30
3.9999998189567965
 70
     32
  0
SEQEND
  0
POLYLINE
 8
Group#11
 66
     1
70
    8
 10
0.0
 20
 0.0
 30
0.0
  0
VERTEX
  8
MY3DLAYER
10
7.693194967211926
20
-68.092074100086
30
3.9999998190883086
 70
     32
  0
VERTEX
  8
MY3DLAYER
10
8.133187343886572
20
-68.15000019539194
30
3.9999998192294366
 70
     32
  0
VERTEX
  8
MY3DLAYER
10
8.133187347094012
20
-68.1500001953922
30
-6.000000180770564
 70
     32
  0
VERTEX
  8
MY3DLAYER
10
7.693194970419365
20
-68.09207410008625
30
-6.000000180911692
 70
     32
  0
VERTEX
  8
MY3DLAYER
10
7.693194967211926
20
-68.092074100086
30
3.9999998190883086
 70
     32
  0
SEQEND
  0
POLYLINE
 8
Group#11
 66
     1
70
    8
 10
0.0
 20
 0.0
 30
0.0
  0
VERTEX
  8
MY3DLAYER
10
42.24813142801989
20
-68.09207409987671
30
3.9999998314545553
 70
     32
  0
VERTEX
  8
MY3DLAYER
10
42.688123804694534
20
-68.15000019518263
30
3.9999998315956833
 70
     32
  0
VERTEX
  8
MY3DLAYER
10
42.688123807901974
20
-68.15000019518288
30
-6.000000168404317
 70
     32
  0
VERTEX
  8
MY3DLAYER
10
42.24813143122733
20
-68.09207409987697
30
-6.000000168545445
 70
     32
  0
VERTEX
  8
MY3DLAYER
10
42.24813142801989
20
-68.09207409987671
30
3.9999998314545553
 70
     32
  0
SEQEND
  0
POLYLINE
 8
Group#11
 66
     1
70
    8
 10
0.0
 20
 0.0
 30
0.0
  0
VERTEX
  8
MY3DLAYER
10
42.688123804694534
20
-68.15000019518263
30
3.9999998315956833
 70
     32
  0
VERTEX
  8
MY3DLAYER
10
43.12811618136846
20
-68.09207409987135
30
3.9999998317368055
 70
     32
  0
VERTEX
  8
MY3DLAYER
10
43.1281161845759
20
-68.09207409987161
30
-6.0000001682631945
 70
     32
  0
VERTEX
  8
MY3DLAYER
10
42.688123807901974
20
-68.15000019518288
30
-6.000000168404317
 70
     32
  0
VERTEX
  8
MY3DLAYER
10
42.688123804694534
20
-68.15000019518263
30
3.9999998315956833
 70
     32
  0
SEQEND
  0
POLYLINE
 8
Group#11
 66
     1
70
    8
 10
0.0
 20
 0.0
 30
0.0
  0
VERTEX
  8
MY3DLAYER
10
43.12811618136846
20
-68.09207409987135
30
3.9999998317368055
 70
     32
  0
VERTEX
  8
MY3DLAYER
10
43.53812380469316
20
-67.92224338161104
30
3.9999998318683065
 70
     32
  0
VERTEX
  8
MY3DLAYER
10
43.5381238079006
20
-67.9222433816113
30
-6.0000001681316935
 70
     32
  0
VERTEX
  8
MY3DLAYER
10
43.1281161845759
20
-68.09207409987161
30
-6.0000001682631945
 70
     32
  0
VERTEX
  8
MY3DLAYER
10
43.12811618136846
20
-68.09207409987135
30
3.9999998317368055
 70
     32
  0
SEQEND
  0
POLYLINE
 8
Group#11
 66
     1
70
    8
 10
0.0
 20
 0.0
 30
0.0
  0
VERTEX
  8
MY3DLAYER
10
43.53812380469316
20
-67.92224338161104
30
3.9999998318683065
 70
     32
  0
VERTEX
  8
MY3DLAYER
10
43.890205332708646
20
-67.65208172319248
30
3.999999831981229
 70
     32
  0
VERTEX
  8
MY3DLAYER
10
43.89020533591609
20
-67.65208172319274
30
-6.000000168018771
 70
     32
  0
VERTEX
  8
MY3DLAYER
10
43.5381238079006
20
-67.9222433816113
30
-6.0000001681316935
 70
     32
  0
VERTEX
  8
MY3DLAYER
10
43.53812380469316
20
-67.92224338161104
30
3.9999998318683065
 70
     32
  0
SEQEND
  0
POLYLINE
 8
Group#11
 66
     1
70
    8
 10
0.0
 20
 0.0
 30
0.0
  0
VERTEX
  8
MY3DLAYER
10
43.890205332708646
20
-67.65208172319248
30
3.999999831981229
 70
     32
  0
VERTEX
  8
MY3DLAYER
10
44.16036699112292
20
-67.30000019517371
30
3.9999998320678753
 70
     32
  0
VERTEX
  8
MY3DLAYER
10
44.16036699433036
20
-67.30000019517396
30
-6.000000167932124
 70
     32
  0
VERTEX
  8
MY3DLAYER
10
43.89020533591609
20
-67.65208172319274
30
-6.000000168018771
 70
     32
  0
VERTEX
  8
MY3DLAYER
10
43.890205332708646
20
-67.65208172319248
30
3.999999831981229
 70
     32
  0
SEQEND
  0
POLYLINE
 8
Group#11
 66
     1
70
    8
 10
0.0
 20
 0.0
 30
0.0
  0
VERTEX
  8
MY3DLAYER
10
44.16036699112292
20
-67.30000019517371
30
3.9999998320678753
 70
     32
  0
VERTEX
  8
MY3DLAYER
10
44.330197709378325
20
-66.88999257184696
30
3.9999998321223345
 70
     32
  0
VERTEX
  8
MY3DLAYER
10
44.330197712585765
20
-66.88999257184723
30
-6.0000001678776655
 70
     32
  0
VERTEX
  8
MY3DLAYER
10
44.16036699433036
20
-67.30000019517396
30
-6.000000167932124
 70
     32
  0
VERTEX
  8
MY3DLAYER
10
44.16036699112292
20
-67.30000019517371
30
3.9999998320678753
 70
     32
  0
SEQEND
  0
POLYLINE
 8
Group#11
 66
     1
70
    8
 10
0.0
 20
 0.0
 30
0.0
  0
VERTEX
  8
MY3DLAYER
10
44.330197709378325
20
-66.88999257184696
30
3.9999998321223345
 70
     32
  0
VERTEX
  8
MY3DLAYER
10
44.388123804684234
20
-66.45000019517232
30
3.9999998321409014
 70
     32
  0
VERTEX
  8
MY3DLAYER
10
44.388123807891674
20
-66.45000019517258
30
-6.000000167859099
 70
     32
  0
VERTEX
  8
MY3DLAYER
10
44.330197712585765
20
-66.88999257184723
30
-6.0000001678776655
 70
     32
  0
VERTEX
  8
MY3DLAYER
10
44.330197709378325
20
-66.88999257184696
30
3.9999998321223345
 70
     32
  0
SEQEND
  0
POLYLINE
 8
Group#11
 66
     1
70
    8
 10
0.0
 20
 0.0
 30
0.0
  0
VERTEX
  8
MY3DLAYER
10
44.388123804684234
20
-66.45000019517232
30
3.9999998321409014
 70
     32
  0
VERTEX
  8
MY3DLAYER
10
44.330197709372996
20
-66.0100078184984
30
3.999999832122312
 70
     32
  0
VERTEX
  8
MY3DLAYER
10
44.330197712580436
20
-66.01000781849865
30
-6.000000167877688
 70
     32
  0
VERTEX
  8
MY3DLAYER
10
44.388123807891674
20
-66.45000019517258
30
-6.000000167859099
 70
     32
  0
VERTEX
  8
MY3DLAYER
10
44.388123804684234
20
-66.45000019517232
30
3.9999998321409014
 70
     32
  0
SEQEND
  0
POLYLINE
 8
Group#11
 66
     1
70
    8
 10
0.0
 20
 0.0
 30
0.0
  0
VERTEX
  8
MY3DLAYER
10
44.330197709372996
20
-66.0100078184984
30
3.999999832122312
 70
     32
  0
VERTEX
  8
MY3DLAYER
10
44.16036699111265
20
-65.6000001951737
30
3.99999983206783
 70
     32
  0
VERTEX
  8
MY3DLAYER
10
44.16036699432009
20
-65.60000019517396
30
-6.0000001679321695
 70
     32
  0
VERTEX
  8
MY3DLAYER
10
44.330197712580436
20
-66.01000781849865
30
-6.000000167877688
 70
     32
  0
VERTEX
  8
MY3DLAYER
10
44.330197709372996
20
-66.0100078184984
30
3.999999832122312
 70
     32
  0
SEQEND
  0
POLYLINE
 8
Group#11
 66
     1
70
    8
 10
0.0
 20
 0.0
 30
0.0
  0
VERTEX
  8
MY3DLAYER
10
44.16036699111265
20
-65.6000001951737
30
3.99999983206783
 70
     32
  0
VERTEX
  8
MY3DLAYER
10
43.8902053326941
20
-65.24791866715823
30
3.999999831981167
 70
     32
  0
VERTEX
  8
MY3DLAYER
10
43.89020533590154
20
-65.24791866715849
30
-6.000000168018833
 70
     32
  0
VERTEX
  8
MY3DLAYER
10
44.16036699432009
20
-65.60000019517396
30
-6.0000001679321695
 70
     32
  0
VERTEX
  8
MY3DLAYER
10
44.16036699111265
20
-65.6000001951737
30
3.99999983206783
 70
     32
  0
SEQEND
  0
POLYLINE
 8
Group#11
 66
     1
70
    8
 10
0.0
 20
 0.0
 30
0.0
  0
VERTEX
  8
MY3DLAYER
10
43.8902053326941
20
-65.24791866715823
30
3.999999831981167
 70
     32
  0
VERTEX
  8
MY3DLAYER
10
43.53812380467534
20
-64.97775700874394
30
3.999999831868233
 70
     32
  0
VERTEX
  8
MY3DLAYER
10
43.538123807882776
20
-64.97775700874419
30
-6.000000168131767
 70
     32
  0
VERTEX
  8
MY3DLAYER
10
43.89020533590154
20
-65.24791866715849
30
-6.000000168018833
 70
     32
  0
VERTEX
  8
MY3DLAYER
10
43.8902053326941
20
-65.24791866715823
30
3.999999831981167
 70
     32
  0
SEQEND
  0
POLYLINE
 8
Group#11
 66
     1
70
    8
 10
0.0
 20
 0.0
 30
0.0
  0
VERTEX
  8
MY3DLAYER
10
43.53812380467534
20
-64.97775700874394
30
3.999999831868233
 70
     32
  0
VERTEX
  8
MY3DLAYER
10
43.12811618134858
20
-64.80792629048851
30
3.999999831736721
 70
     32
  0
VERTEX
  8
MY3DLAYER
10
43.12811618455602
20
-64.80792629048877
30
-6.000000168263279
 70
     32
  0
VERTEX
  8
MY3DLAYER
10
43.538123807882776
20
-64.97775700874419
30
-6.000000168131767
 70
     32
  0
VERTEX
  8
MY3DLAYER
10
43.53812380467534
20
-64.97775700874394
30
3.999999831868233
 70
     32
  0
SEQEND
  0
POLYLINE
 8
Group#11
 66
     1
70
    8
 10
0.0
 20
 0.0
 30
0.0
  0
VERTEX
  8
MY3DLAYER
10
43.12811618134858
20
-64.80792629048851
30
3.999999831736721
 70
     32
  0
VERTEX
  8
MY3DLAYER
10
42.68812380467396
20
-64.75000019518261
30
3.999999831595593
 70
     32
  0
VERTEX
  8
MY3DLAYER
10
42.688123807881404
20
-64.75000019518286
30
-6.000000168404407
 70
     32
  0
VERTEX
  8
MY3DLAYER
10
43.12811618455602
20
-64.80792629048877
30
-6.000000168263279
 70
     32
  0
VERTEX
  8
MY3DLAYER
10
43.12811618134858
20
-64.80792629048851
30
3.999999831736721
 70
     32
  0
SEQEND
  0
POLYLINE
 8
Group#11
 66
     1
70
    8
 10
0.0
 20
 0.0
 30
0.0
  0
VERTEX
  8
MY3DLAYER
10
42.68812380467396
20
-64.75000019518261
30
3.999999831595593
 70
     32
  0
VERTEX
  8
MY3DLAYER
10
42.24813142800001
20
-64.80792629049387
30
3.9999998314544705
 70
     32
  0
VERTEX
  8
MY3DLAYER
10
42.24813143120745
20
-64.80792629049412
30
-6.0000001685455295
 70
     32
  0
VERTEX
  8
MY3DLAYER
10
42.688123807881404
20
-64.75000019518286
30
-6.000000168404407
 70
     32
  0
VERTEX
  8
MY3DLAYER
10
42.68812380467396
20
-64.75000019518261
30
3.999999831595593
 70
     32
  0
SEQEND
  0
POLYLINE
 8
Group#11
 66
     1
70
    8
 10
0.0
 20
 0.0
 30
0.0
  0
VERTEX
  8
MY3DLAYER
10
42.24813142800001
20
-64.80792629049387
30
3.9999998314544705
 70
     32
  0
VERTEX
  8
MY3DLAYER
10
41.83812380467534
20
-64.97775700875418
30
3.99999983132297
 70
     32
  0
VERTEX
  8
MY3DLAYER
10
41.83812380788278
20
-64.97775700875445
30
-6.00000016867703
 70
     32
  0
VERTEX
  8
MY3DLAYER
10
42.24813143120745
20
-64.80792629049412
30
-6.0000001685455295
 70
     32
  0
VERTEX
  8
MY3DLAYER
10
42.24813142800001
20
-64.80792629049387
30
3.9999998314544705
 70
     32
  0
SEQEND
  0
POLYLINE
 8
Group#11
 66
     1
70
    8
 10
0.0
 20
 0.0
 30
0.0
  0
VERTEX
  8
MY3DLAYER
10
41.83812380467534
20
-64.97775700875418
30
3.99999983132297
 70
     32
  0
VERTEX
  8
MY3DLAYER
10
41.48604227665983
20
-65.24791866717275
30
3.9999998312100473
 70
     32
  0
VERTEX
  8
MY3DLAYER
10
41.48604227986728
20
-65.24791866717301
30
-6.000000168789953
 70
     32
  0
VERTEX
  8
MY3DLAYER
10
41.83812380788278
20
-64.97775700875445
30
-6.00000016867703
 70
     32
  0
VERTEX
  8
MY3DLAYER
10
41.83812380467534
20
-64.97775700875418
30
3.99999983132297
 70
     32
  0
SEQEND
  0
POLYLINE
 8
Group#11
 66
     1
70
    8
 10
0.0
 20
 0.0
 30
0.0
  0
VERTEX
  8
MY3DLAYER
10
41.48604227665983
20
-65.24791866717275
30
3.9999998312100473
 70
     32
  0
VERTEX
  8
MY3DLAYER
10
41.215880618245556
20
-65.60000019519153
30
3.999999831123401
 70
     32
  0
VERTEX
  8
MY3DLAYER
10
41.215880621452996
20
-65.6000001951918
30
-6.000000168876599
 70
     32
  0
VERTEX
  8
MY3DLAYER
10
41.48604227986728
20
-65.24791866717301
30
-6.000000168789953
 70
     32
  0
VERTEX
  8
MY3DLAYER
10
41.48604227665983
20
-65.24791866717275
30
3.9999998312100473
 70
     32
  0
SEQEND
  0
POLYLINE
 8
Group#11
 66
     1
70
    8
 10
0.0
 20
 0.0
 30
0.0
  0
VERTEX
  8
MY3DLAYER
10
41.215880618245556
20
-65.60000019519153
30
3.999999831123401
 70
     32
  0
VERTEX
  8
MY3DLAYER
10
41.04604989999016
20
-66.01000781851828
30
3.9999998310689415
 70
     32
  0
VERTEX
  8
MY3DLAYER
10
41.046049903197606
20
-66.01000781851853
30
-6.0000001689310585
 70
     32
  0
VERTEX
  8
MY3DLAYER
10
41.215880621452996
20
-65.6000001951918
30
-6.000000168876599
 70
     32
  0
VERTEX
  8
MY3DLAYER
10
41.215880618245556
20
-65.60000019519153
30
3.999999831123401
 70
     32
  0
SEQEND
  0
POLYLINE
 8
Group#11
 66
     1
70
    8
 10
0.0
 20
 0.0
 30
0.0
  0
VERTEX
  8
MY3DLAYER
10
41.04604989999016
20
-66.01000781851828
30
3.9999998310689415
 70
     32
  0
VERTEX
  8
MY3DLAYER
10
40.98812380468423
20
-66.4500001951929
30
3.999999831050375
 70
     32
  0
VERTEX
  8
MY3DLAYER
10
40.98812380789167
20
-66.45000019519317
30
-6.000000168949625
 70
     32
  0
VERTEX
  8
MY3DLAYER
10
41.046049903197606
20
-66.01000781851853
30
-6.0000001689310585
 70
     32
  0
VERTEX
  8
MY3DLAYER
10
41.04604989999016
20
-66.01000781851828
30
3.9999998310689415
 70
     32
  0
SEQEND
  0
POLYLINE
 8
Group#11
 66
     1
70
    8
 10
0.0
 20
 0.0
 30
0.0
  0
VERTEX
  8
MY3DLAYER
10
40.98812380468423
20
-66.4500001951929
30
3.999999831050375
 70
     32
  0
VERTEX
  8
MY3DLAYER
10
41.04604989999549
20
-66.88999257186684
30
3.999999831068964
 70
     32
  0
VERTEX
  8
MY3DLAYER
10
41.04604990320293
20
-66.8899925718671
30
-6.000000168931035
 70
     32
  0
VERTEX
  8
MY3DLAYER
10
40.98812380789167
20
-66.45000019519317
30
-6.000000168949625
 70
     32
  0
VERTEX
  8
MY3DLAYER
10
40.98812380468423
20
-66.4500001951929
30
3.999999831050375
 70
     32
  0
SEQEND
  0
POLYLINE
 8
Group#11
 66
     1
70
    8
 10
0.0
 20
 0.0
 30
0.0
  0
VERTEX
  8
MY3DLAYER
10
41.04604989999549
20
-66.88999257186684
30
3.999999831068964
 70
     32
  0
VERTEX
  8
MY3DLAYER
10
41.215880618255824
20
-67.30000019519153
30
3.999999831123446
 70
     32
  0
VERTEX
  8
MY3DLAYER
10
41.21588062146327
20
-67.30000019519179
30
-6.000000168876554
 70
     32
  0
VERTEX
  8
MY3DLAYER
10
41.04604990320293
20
-66.8899925718671
30
-6.000000168931035
 70
     32
  0
VERTEX
  8
MY3DLAYER
10
41.04604989999549
20
-66.88999257186684
30
3.999999831068964
 70
     32
  0
SEQEND
  0
POLYLINE
 8
Group#11
 66
     1
70
    8
 10
0.0
 20
 0.0
 30
0.0
  0
VERTEX
  8
MY3DLAYER
10
41.215880618255824
20
-67.30000019519153
30
3.999999831123446
 70
     32
  0
VERTEX
  8
MY3DLAYER
10
41.48604227667438
20
-67.652081723207
30
3.999999831210109
 70
     32
  0
VERTEX
  8
MY3DLAYER
10
41.48604227988182
20
-67.65208172320727
30
-6.0000001687898905
 70
     32
  0
VERTEX
  8
MY3DLAYER
10
41.21588062146327
20
-67.30000019519179
30
-6.000000168876554
 70
     32
  0
VERTEX
  8
MY3DLAYER
10
41.215880618255824
20
-67.30000019519153
30
3.999999831123446
 70
     32
  0
SEQEND
  0
POLYLINE
 8
Group#11
 66
     1
70
    8
 10
0.0
 20
 0.0
 30
0.0
  0
VERTEX
  8
MY3DLAYER
10
41.48604227667438
20
-67.652081723207
30
3.999999831210109
 70
     32
  0
VERTEX
  8
MY3DLAYER
10
41.83812380469315
20
-67.92224338162129
30
3.999999831323043
 70
     32
  0
VERTEX
  8
MY3DLAYER
10
41.83812380790059
20
-67.92224338162156
30
-6.000000168676957
 70
     32
  0
VERTEX
  8
MY3DLAYER
10
41.48604227988182
20
-67.65208172320727
30
-6.0000001687898905
 70
     32
  0
VERTEX
  8
MY3DLAYER
10
41.48604227667438
20
-67.652081723207
30
3.999999831210109
 70
     32
  0
SEQEND
  0
POLYLINE
 8
Group#11
 66
     1
70
    8
 10
0.0
 20
 0.0
 30
0.0
  0
VERTEX
  8
MY3DLAYER
10
41.83812380469315
20
-67.92224338162129
30
3.999999831323043
 70
     32
  0
VERTEX
  8
MY3DLAYER
10
42.24813142801989
20
-68.09207409987671
30
3.9999998314545553
 70
     32
  0
VERTEX
  8
MY3DLAYER
10
42.24813143122733
20
-68.09207409987697
30
-6.000000168545445
 70
     32
  0
VERTEX
  8
MY3DLAYER
10
41.83812380790059
20
-67.92224338162156
30
-6.000000168676957
 70
     32
  0
VERTEX
  8
MY3DLAYER
10
41.83812380469315
20
-67.92224338162129
30
3.999999831323043
 70
     32
  0
SEQEND
  0
POLYLINE
 8
Group#11
 66
     1
70
    8
 10
0.0
 20
 0.0
 30
0.0
  0
VERTEX
  8
MY3DLAYER
10
42.24813142810472
20
-82.09207409987617
30
3.999999831455164
 70
     32
  0
VERTEX
  8
MY3DLAYER
10
42.68812380477937
20
-82.15000019518209
30
3.9999998315962926
 70
     32
  0
VERTEX
  8
MY3DLAYER
10
42.688123807986806
20
-82.15000019518234
30
-6.000000168403708
 70
     32
  0
VERTEX
  8
MY3DLAYER
10
42.24813143131216
20
-82.09207409987643
30
-6.000000168544836
 70
     32
  0
VERTEX
  8
MY3DLAYER
10
42.24813142810472
20
-82.09207409987617
30
3.999999831455164
 70
     32
  0
SEQEND
  0
POLYLINE
 8
Group#11
 66
     1
70
    8
 10
0.0
 20
 0.0
 30
0.0
  0
VERTEX
  8
MY3DLAYER
10
42.68812380477937
20
-82.15000019518209
30
3.9999998315962926
 70
     32
  0
VERTEX
  8
MY3DLAYER
10
43.12811618145331
20
-82.09207409987083
30
3.999999831737415
 70
     32
  0
VERTEX
  8
MY3DLAYER
10
43.12811618466074
20
-82.09207409987108
30
-6.000000168262585
 70
     32
  0
VERTEX
  8
MY3DLAYER
10
42.688123807986806
20
-82.15000019518234
30
-6.000000168403708
 70
     32
  0
VERTEX
  8
MY3DLAYER
10
42.68812380477937
20
-82.15000019518209
30
3.9999998315962926
 70
     32
  0
SEQEND
  0
POLYLINE
 8
Group#11
 66
     1
70
    8
 10
0.0
 20
 0.0
 30
0.0
  0
VERTEX
  8
MY3DLAYER
10
43.12811618145331
20
-82.09207409987083
30
3.999999831737415
 70
     32
  0
VERTEX
  8
MY3DLAYER
10
43.538123804777975
20
-81.92224338161049
30
3.999999831868921
 70
     32
  0
VERTEX
  8
MY3DLAYER
10
43.538123807985414
20
-81.92224338161074
30
-6.000000168131079
 70
     32
  0
VERTEX
  8
MY3DLAYER
10
43.12811618466074
20
-82.09207409987108
30
-6.000000168262585
 70
     32
  0
VERTEX
  8
MY3DLAYER
10
43.12811618145331
20
-82.09207409987083
30
3.999999831737415
 70
     32
  0
SEQEND
  0
POLYLINE
 8
Group#11
 66
     1
70
    8
 10
0.0
 20
 0.0
 30
0.0
  0
VERTEX
  8
MY3DLAYER
10
43.538123804777975
20
-81.92224338161049
30
3.999999831868921
 70
     32
  0
VERTEX
  8
MY3DLAYER
10
43.890205332793485
20
-81.65208172319194
30
3.9999998319818384
 70
     32
  0
VERTEX
  8
MY3DLAYER
10
43.89020533600092
20
-81.6520817231922
30
-6.000000168018162
 70
     32
  0
VERTEX
  8
MY3DLAYER
10
43.538123807985414
20
-81.92224338161074
30
-6.000000168131079
 70
     32
  0
VERTEX
  8
MY3DLAYER
10
43.538123804777975
20
-81.92224338161049
30
3.999999831868921
 70
     32
  0
SEQEND
  0
POLYLINE
 8
Group#11
 66
     1
70
    8
 10
0.0
 20
 0.0
 30
0.0
  0
VERTEX
  8
MY3DLAYER
10
43.890205332793485
20
-81.65208172319194
30
3.9999998319818384
 70
     32
  0
VERTEX
  8
MY3DLAYER
10
44.160366991207766
20
-81.30000019517315
30
3.9999998320684846
 70
     32
  0
VERTEX
  8
MY3DLAYER
10
44.160366994415206
20
-81.30000019517342
30
-6.000000167931516
 70
     32
  0
VERTEX
  8
MY3DLAYER
10
43.89020533600092
20
-81.6520817231922
30
-6.000000168018162
 70
     32
  0
VERTEX
  8
MY3DLAYER
10
43.890205332793485
20
-81.65208172319194
30
3.9999998319818384
 70
     32
  0
SEQEND
  0
POLYLINE
 8
Group#11
 66
     1
70
    8
 10
0.0
 20
 0.0
 30
0.0
  0
VERTEX
  8
MY3DLAYER
10
44.160366991207766
20
-81.30000019517315
30
3.9999998320684846
 70
     32
  0
VERTEX
  8
MY3DLAYER
10
44.33019770946315
20
-80.88999257184639
30
3.9999998321229437
 70
     32
  0
VERTEX
  8
MY3DLAYER
10
44.33019771267058
20
-80.88999257184666
30
-6.000000167877056
 70
     32
  0
VERTEX
  8
MY3DLAYER
10
44.160366994415206
20
-81.30000019517342
30
-6.000000167931516
 70
     32
  0
VERTEX
  8
MY3DLAYER
10
44.160366991207766
20
-81.30000019517315
30
3.9999998320684846
 70
     32
  0
SEQEND
  0
POLYLINE
 8
Group#11
 66
     1
70
    8
 10
0.0
 20
 0.0
 30
0.0
  0
VERTEX
  8
MY3DLAYER
10
44.33019770946315
20
-80.88999257184639
30
3.9999998321229437
 70
     32
  0
VERTEX
  8
MY3DLAYER
10
44.388123804769066
20
-80.45000019517177
30
3.999999832141516
 70
     32
  0
VERTEX
  8
MY3DLAYER
10
44.388123807976505
20
-80.45000019517204
30
-6.0000001678584844
 70
     32
  0
VERTEX
  8
MY3DLAYER
10
44.33019771267058
20
-80.88999257184666
30
-6.000000167877056
 70
     32
  0
VERTEX
  8
MY3DLAYER
10
44.33019770946315
20
-80.88999257184639
30
3.9999998321229437
 70
     32
  0
SEQEND
  0
POLYLINE
 8
Group#11
 66
     1
70
    8
 10
0.0
 20
 0.0
 30
0.0
  0
VERTEX
  8
MY3DLAYER
10
44.388123804769066
20
-80.45000019517177
30
3.999999832141516
 70
     32
  0
VERTEX
  8
MY3DLAYER
10
44.33019770945782
20
-80.01000781849783
30
3.999999832122921
 70
     32
  0
VERTEX
  8
MY3DLAYER
10
44.33019771266526
20
-80.01000781849808
30
-6.0000001678770785
 70
     32
  0
VERTEX
  8
MY3DLAYER
10
44.388123807976505
20
-80.45000019517204
30
-6.0000001678584844
 70
     32
  0
VERTEX
  8
MY3DLAYER
10
44.388123804769066
20
-80.45000019517177
30
3.999999832141516
 70
     32
  0
SEQEND
  0
POLYLINE
 8
Group#11
 66
     1
70
    8
 10
0.0
 20
 0.0
 30
0.0
  0
VERTEX
  8
MY3DLAYER
10
44.33019770945782
20
-80.01000781849783
30
3.999999832122921
 70
     32
  0
VERTEX
  8
MY3DLAYER
10
44.160366991197456
20
-79.60000019517317
30
3.9999998320684393
 70
     32
  0
VERTEX
  8
MY3DLAYER
10
44.160366994404896
20
-79.60000019517342
30
-6.00000016793156
 70
     32
  0
VERTEX
  8
MY3DLAYER
10
44.33019771266526
20
-80.01000781849808
30
-6.0000001678770785
 70
     32
  0
VERTEX
  8
MY3DLAYER
10
44.33019770945782
20
-80.01000781849783
30
3.999999832122921
 70
     32
  0
SEQEND
  0
POLYLINE
 8
Group#11
 66
     1
70
    8
 10
0.0
 20
 0.0
 30
0.0
  0
VERTEX
  8
MY3DLAYER
10
44.160366991197456
20
-79.60000019517317
30
3.9999998320684393
 70
     32
  0
VERTEX
  8
MY3DLAYER
10
43.890205332778905
20
-79.24791866715766
30
3.999999831981776
 70
     32
  0
VERTEX
  8
MY3DLAYER
10
43.890205335986344
20
-79.24791866715792
30
-6.000000168018224
 70
     32
  0
VERTEX
  8
MY3DLAYER
10
44.160366994404896
20
-79.60000019517342
30
-6.00000016793156
 70
     32
  0
VERTEX
  8
MY3DLAYER
10
44.160366991197456
20
-79.60000019517317
30
3.9999998320684393
 70
     32
  0
SEQEND
  0
POLYLINE
 8
Group#11
 66
     1
70
    8
 10
0.0
 20
 0.0
 30
0.0
  0
VERTEX
  8
MY3DLAYER
10
43.890205332778905
20
-79.24791866715766
30
3.999999831981776
 70
     32
  0
VERTEX
  8
MY3DLAYER
10
43.53812380476015
20
-78.97775700874338
30
3.999999831868842
 70
     32
  0
VERTEX
  8
MY3DLAYER
10
43.53812380796759
20
-78.97775700874365
30
-6.000000168131158
 70
     32
  0
VERTEX
  8
MY3DLAYER
10
43.890205335986344
20
-79.24791866715792
30
-6.000000168018224
 70
     32
  0
VERTEX
  8
MY3DLAYER
10
43.890205332778905
20
-79.24791866715766
30
3.999999831981776
 70
     32
  0
SEQEND
  0
POLYLINE
 8
Group#11
 66
     1
70
    8
 10
0.0
 20
 0.0
 30
0.0
  0
VERTEX
  8
MY3DLAYER
10
43.53812380476015
20
-78.97775700874338
30
3.999999831868842
 70
     32
  0
VERTEX
  8
MY3DLAYER
10
43.1281161814334
20
-78.80792629048797
30
3.99999983173733
 70
     32
  0
VERTEX
  8
MY3DLAYER
10
43.12811618464083
20
-78.80792629048824
30
-6.00000016826267
 70
     32
  0
VERTEX
  8
MY3DLAYER
10
43.53812380796759
20
-78.97775700874365
30
-6.000000168131158
 70
     32
  0
VERTEX
  8
MY3DLAYER
10
43.53812380476015
20
-78.97775700874338
30
3.999999831868842
 70
     32
  0
SEQEND
  0
POLYLINE
 8
Group#11
 66
     1
70
    8
 10
0.0
 20
 0.0
 30
0.0
  0
VERTEX
  8
MY3DLAYER
10
43.1281161814334
20
-78.80792629048797
30
3.99999983173733
 70
     32
  0
VERTEX
  8
MY3DLAYER
10
42.68812380475876
20
-78.75000019518207
30
3.9999998315962078
 70
     32
  0
VERTEX
  8
MY3DLAYER
10
42.6881238079662
20
-78.75000019518232
30
-6.000000168403792
 70
     32
  0
VERTEX
  8
MY3DLAYER
10
43.12811618464083
20
-78.80792629048824
30
-6.00000016826267
 70
     32
  0
VERTEX
  8
MY3DLAYER
10
43.1281161814334
20
-78.80792629048797
30
3.99999983173733
 70
     32
  0
SEQEND
  0
POLYLINE
 8
Group#11
 66
     1
70
    8
 10
0.0
 20
 0.0
 30
0.0
  0
VERTEX
  8
MY3DLAYER
10
42.68812380475876
20
-78.75000019518207
30
3.9999998315962078
 70
     32
  0
VERTEX
  8
MY3DLAYER
10
42.248131428084825
20
-78.80792629049333
30
3.9999998314550855
 70
     32
  0
VERTEX
  8
MY3DLAYER
10
42.248131431292265
20
-78.80792629049358
30
-6.000000168544915
 70
     32
  0
VERTEX
  8
MY3DLAYER
10
42.6881238079662
20
-78.75000019518232
30
-6.000000168403792
 70
     32
  0
VERTEX
  8
MY3DLAYER
10
42.68812380475876
20
-78.75000019518207
30
3.9999998315962078
 70
     32
  0
SEQEND
  0
POLYLINE
 8
Group#11
 66
     1
70
    8
 10
0.0
 20
 0.0
 30
0.0
  0
VERTEX
  8
MY3DLAYER
10
42.248131428084825
20
-78.80792629049333
30
3.9999998314550855
 70
     32
  0
VERTEX
  8
MY3DLAYER
10
41.83812380476015
20
-78.97775700875367
30
3.999999831323579
 70
     32
  0
VERTEX
  8
MY3DLAYER
10
41.838123807967584
20
-78.97775700875393
30
-6.000000168676421
 70
     32
  0
VERTEX
  8
MY3DLAYER
10
42.248131431292265
20
-78.80792629049358
30
-6.000000168544915
 70
     32
  0
VERTEX
  8
MY3DLAYER
10
42.248131428084825
20
-78.80792629049333
30
3.9999998314550855
 70
     32
  0
SEQEND
  0
POLYLINE
 8
Group#11
 66
     1
70
    8
 10
0.0
 20
 0.0
 30
0.0
  0
VERTEX
  8
MY3DLAYER
10
41.83812380476015
20
-78.97775700875367
30
3.999999831323579
 70
     32
  0
VERTEX
  8
MY3DLAYER
10
41.48604227674464
20
-79.24791866717221
30
3.999999831210656
 70
     32
  0
VERTEX
  8
MY3DLAYER
10
41.48604227995207
20
-79.24791866717247
30
-6.000000168789343
 70
     32
  0
VERTEX
  8
MY3DLAYER
10
41.838123807967584
20
-78.97775700875393
30
-6.000000168676421
 70
     32
  0
VERTEX
  8
MY3DLAYER
10
41.83812380476015
20
-78.97775700875367
30
3.999999831323579
 70
     32
  0
SEQEND
  0
POLYLINE
 8
Group#11
 66
     1
70
    8
 10
0.0
 20
 0.0
 30
0.0
  0
VERTEX
  8
MY3DLAYER
10
41.48604227674464
20
-79.24791866717221
30
3.999999831210656
 70
     32
  0
VERTEX
  8
MY3DLAYER
10
41.21588061833037
20
-79.60000019519099
30
3.9999998311240157
 70
     32
  0
VERTEX
  8
MY3DLAYER
10
41.2158806215378
20
-79.60000019519124
30
-6.000000168875984
 70
     32
  0
VERTEX
  8
MY3DLAYER
10
41.48604227995207
20
-79.24791866717247
30
-6.000000168789343
 70
     32
  0
VERTEX
  8
MY3DLAYER
10
41.48604227674464
20
-79.24791866717221
30
3.999999831210656
 70
     32
  0
SEQEND
  0
POLYLINE
 8
Group#11
 66
     1
70
    8
 10
0.0
 20
 0.0
 30
0.0
  0
VERTEX
  8
MY3DLAYER
10
41.21588061833037
20
-79.60000019519099
30
3.9999998311240157
 70
     32
  0
VERTEX
  8
MY3DLAYER
10
41.04604990007498
20
-80.01000781851774
30
3.999999831069551
 70
     32
  0
VERTEX
  8
MY3DLAYER
10
41.04604990328242
20
-80.01000781851799
30
-6.000000168930449
 70
     32
  0
VERTEX
  8
MY3DLAYER
10
41.2158806215378
20
-79.60000019519124
30
-6.000000168875984
 70
     32
  0
VERTEX
  8
MY3DLAYER
10
41.21588061833037
20
-79.60000019519099
30
3.9999998311240157
 70
     32
  0
SEQEND
  0
POLYLINE
 8
Group#11
 66
     1
70
    8
 10
0.0
 20
 0.0
 30
0.0
  0
VERTEX
  8
MY3DLAYER
10
41.04604990007498
20
-80.01000781851774
30
3.999999831069551
 70
     32
  0
VERTEX
  8
MY3DLAYER
10
40.98812380476906
20
-80.45000019519237
30
3.9999998310509843
 70
     32
  0
VERTEX
  8
MY3DLAYER
10
40.9881238079765
20
-80.45000019519263
30
-6.000000168949016
 70
     32
  0
VERTEX
  8
MY3DLAYER
10
41.04604990328242
20
-80.01000781851799
30
-6.000000168930449
 70
     32
  0
VERTEX
  8
MY3DLAYER
10
41.04604990007498
20
-80.01000781851774
30
3.999999831069551
 70
     32
  0
SEQEND
  0
POLYLINE
 8
Group#11
 66
     1
70
    8
 10
0.0
 20
 0.0
 30
0.0
  0
VERTEX
  8
MY3DLAYER
10
40.98812380476906
20
-80.45000019519237
30
3.9999998310509843
 70
     32
  0
VERTEX
  8
MY3DLAYER
10
41.04604990008031
20
-80.8899925718663
30
3.9999998310695735
 70
     32
  0
VERTEX
  8
MY3DLAYER
10
41.046049903287745
20
-80.88999257186657
30
-6.000000168930427
 70
     32
  0
VERTEX
  8
MY3DLAYER
10
40.9881238079765
20
-80.45000019519263
30
-6.000000168949016
 70
     32
  0
VERTEX
  8
MY3DLAYER
10
40.98812380476906
20
-80.45000019519237
30
3.9999998310509843
 70
     32
  0
SEQEND
  0
POLYLINE
 8
Group#11
 66
     1
70
    8
 10
0.0
 20
 0.0
 30
0.0
  0
VERTEX
  8
MY3DLAYER
10
41.04604990008031
20
-80.8899925718663
30
3.9999998310695735
 70
     32
  0
VERTEX
  8
MY3DLAYER
10
41.21588061834068
20
-81.30000019519099
30
3.999999831124061
 70
     32
  0
VERTEX
  8
MY3DLAYER
10
41.21588062154811
20
-81.30000019519125
30
-6.000000168875939
 70
     32
  0
VERTEX
  8
MY3DLAYER
10
41.046049903287745
20
-80.88999257186657
30
-6.000000168930427
 70
     32
  0
VERTEX
  8
MY3DLAYER
10
41.04604990008031
20
-80.8899925718663
30
3.9999998310695735
 70
     32
  0
SEQEND
  0
POLYLINE
 8
Group#11
 66
     1
70
    8
 10
0.0
 20
 0.0
 30
0.0
  0
VERTEX
  8
MY3DLAYER
10
41.21588061834068
20
-81.30000019519099
30
3.999999831124061
 70
     32
  0
VERTEX
  8
MY3DLAYER
10
41.48604227675922
20
-81.65208172320649
30
3.9999998312107183
 70
     32
  0
VERTEX
  8
MY3DLAYER
10
41.486042279966654
20
-81.65208172320675
30
-6.000000168789281
 70
     32
  0
VERTEX
  8
MY3DLAYER
10
41.21588062154811
20
-81.30000019519125
30
-6.000000168875939
 70
     32
  0
VERTEX
  8
MY3DLAYER
10
41.21588061834068
20
-81.30000019519099
30
3.999999831124061
 70
     32
  0
SEQEND
  0
POLYLINE
 8
Group#11
 66
     1
70
    8
 10
0.0
 20
 0.0
 30
0.0
  0
VERTEX
  8
MY3DLAYER
10
41.48604227675922
20
-81.65208172320649
30
3.9999998312107183
 70
     32
  0
VERTEX
  8
MY3DLAYER
10
41.83812380477797
20
-81.92224338162077
30
3.9999998313236524
 70
     32
  0
VERTEX
  8
MY3DLAYER
10
41.83812380798541
20
-81.92224338162103
30
-6.000000168676348
 70
     32
  0
VERTEX
  8
MY3DLAYER
10
41.486042279966654
20
-81.65208172320675
30
-6.000000168789281
 70
     32
  0
VERTEX
  8
MY3DLAYER
10
41.48604227675922
20
-81.65208172320649
30
3.9999998312107183
 70
     32
  0
SEQEND
  0
POLYLINE
 8
Group#11
 66
     1
70
    8
 10
0.0
 20
 0.0
 30
0.0
  0
VERTEX
  8
MY3DLAYER
10
41.83812380477797
20
-81.92224338162077
30
3.9999998313236524
 70
     32
  0
VERTEX
  8
MY3DLAYER
10
42.24813142810472
20
-82.09207409987617
30
3.999999831455164
 70
     32
  0
VERTEX
  8
MY3DLAYER
10
42.24813143131216
20
-82.09207409987643
30
-6.000000168544836
 70
     32
  0
VERTEX
  8
MY3DLAYER
10
41.83812380798541
20
-81.92224338162103
30
-6.000000168676348
 70
     32
  0
VERTEX
  8
MY3DLAYER
10
41.83812380477797
20
-81.92224338162077
30
3.9999998313236524
 70
     32
  0
SEQEND
 0
ENDSEC
 0
EOF
